<svg xmlns="http://www.w3.org/2000/svg" width="311.801" height="92.454" viewBox="0 0 311.801 92.454">
  <g id="Group_18" data-name="Group 18" transform="translate(-2147.214 -3964.927)">
    <path id="Path_33" data-name="Path 33" d="M2287.293,4049.356a.635.635,0,0,1-.449-.861l.449-1.549c.137-.448.482-.517.894-.345a13.489,13.489,0,0,0,4.891,1c2.342,0,4.821-1.1,4.821-3.823,0-1.928-1.135-2.927-3.03-3.926l-4.374-2.341c-2.376-1.275-3.788-3.1-3.788-5.579,0-3.961,3.685-6.1,7.3-6.1a12.6,12.6,0,0,1,5.613,1.1c.414.207.517.448.379.827l-.517,1.377c-.137.414-.447.517-.894.31a11.183,11.183,0,0,0-4.408-1c-1.93,0-4.168.9-4.168,3.2,0,1.791,1.033,2.686,2.686,3.547l3.686,1.963c2.754,1.447,4.683,3.169,4.683,6.371,0,4.512-3.754,6.785-7.99,6.785A18.016,18.016,0,0,1,2287.293,4049.356Zm16.528-5.269v-10.056a.6.6,0,0,1,.689-.688h1.584c.448,0,.655.206.655.688v9.609c0,2.445.55,4.167,3.306,4.167a7.647,7.647,0,0,0,4.546-2.032v-11.744a.6.6,0,0,1,.688-.688h1.584c.448,0,.654.206.654.688v15.257c0,.482-.172.688-.654.688h-1.515c-.413,0-.654-.172-.654-.62l-.035-1.1a8.315,8.315,0,0,1-5.441,2.067C2305.268,4050.321,2303.821,4047.772,2303.821,4044.087Zm17.6,12.571v-22.627c0-.482.172-.688.654-.688h1.413c.412,0,.653.172.653.62l.035,1.205a7.017,7.017,0,0,1,5.131-2.2c4.891,0,7.06,4.1,7.06,8.54,0,4.581-2.48,8.817-7.473,8.817a5.957,5.957,0,0,1-4.546-1.929v8.266a.629.629,0,0,1-.689.723h-1.55A.629.629,0,0,1,2321.418,4056.658Zm11.881-15.085c0-3-1-6.267-4.581-6.267a5.791,5.791,0,0,0-4.373,2.2v8.093a5,5,0,0,0,4.167,2.41C2332.059,4048.013,2333.3,4044.638,2333.3,4041.573Zm6.162,15.085v-22.627c0-.482.173-.688.655-.688h1.412c.413,0,.654.172.654.62l.035,1.205a7.017,7.017,0,0,1,5.131-2.2c4.89,0,7.059,4.1,7.059,8.54,0,4.581-2.479,8.817-7.473,8.817a5.96,5.96,0,0,1-4.546-1.929v8.266a.629.629,0,0,1-.688.723h-1.55A.629.629,0,0,1,2339.461,4056.658Zm11.881-15.085c0-3-1-6.267-4.58-6.267a5.793,5.793,0,0,0-4.374,2.2v8.093a5,5,0,0,0,4.167,2.41C2350.1,4048.013,2351.342,4044.638,2351.342,4041.573Zm5.371.035c0-4.856,2.789-8.644,7.921-8.644,5.337,0,7.748,3.685,7.748,8.678,0,4.856-2.824,8.679-7.955,8.679C2359.09,4050.321,2356.713,4046.532,2356.713,4041.608Zm12.639.069c0-3.2-1.171-6.44-4.753-6.44-3.72,0-4.856,3.271-4.856,6.3,0,3.168,1.069,6.509,4.719,6.509C2368.078,4048.048,2369.352,4044.879,2369.352,4041.677Zm5.99,7.576v-15.222c0-.482.172-.688.654-.688h1.516c.413,0,.654.172.654.62l.034,1.17a4.8,4.8,0,0,1,4.03-2.169c.758,0,1.273.1,1.205.62l-.241,1.549a.439.439,0,0,1-.482.414,8.825,8.825,0,0,0-1-.1,4.509,4.509,0,0,0-3.444,2.067v11.743a.629.629,0,0,1-.688.723h-1.551A.629.629,0,0,1,2375.342,4049.253Zm12.328-4.374v-9.47h-1.9c-.378,0-.516-.138-.516-.517v-1.033c0-.379.138-.516.516-.516h1.9v-3.892c0-.447.1-.654.516-.723l1.722-.241c.482-.069.69.138.69.585v4.271h4.029c.379,0,.516.137.516.516v1.033c0,.379-.137.517-.516.517H2390.6v9.264c0,2.238.412,3.34,2.444,3.34a6.341,6.341,0,0,0,2.1-.379c.345-.137.62-.068.724.31l.309,1.034c.1.378-.034.551-.448.723a9.837,9.837,0,0,1-3.237.62C2388.5,4050.321,2387.67,4048.392,2387.67,4044.879Zm22.389,7.485,11.2-11.2a1.348,1.348,0,0,0,0-1.909l-11.2-11.2a1.351,1.351,0,0,0-1.91,1.91l10.242,10.241-10.242,10.243a1.35,1.35,0,1,0,1.91,1.909Zm-13.416-22.017a2.734,2.734,0,0,1,5.467,0,2.734,2.734,0,0,1-5.467,0Zm4.968.007a2.235,2.235,0,1,0-2.234,2.227A2.136,2.136,0,0,0,2401.611,4030.354Zm-3.007,1.25v-2.476c0-.076.03-.1.1-.1h.551c.553,0,.984.189.984.795a.784.784,0,0,1-.522.743l.622,1.037c.029.053.037.1-.054.1h-.257a.128.128,0,0,1-.129-.068l-.568-.992h-.318v.962c0,.076-.03.1-.091.1h-.227C2398.634,4031.7,2398.6,4031.68,2398.6,4031.6Zm.675-1.287a.478.478,0,0,0,.544-.485c0-.348-.22-.469-.6-.469h-.212v.954Zm-227.488-38.111a1.927,1.927,0,0,0,3.854,0v-12.921a1.927,1.927,0,0,0-3.854,0Zm-6.145-2.53a1.986,1.986,0,0,0,3.973,0v-19.12a1.986,1.986,0,0,0-3.973,0Zm-6.146-1.465a1.987,1.987,0,0,0,3.974,0v-21.3a1.987,1.987,0,0,0-3.974,0Zm-6.145.459a1.986,1.986,0,1,0,3.973,0v-15.84a1.986,1.986,0,1,0-3.973,0Zm5.727,17.992a1.945,1.945,0,0,1-1.742,1.091,1.916,1.916,0,0,1-.844-.194c-6.073-2.945-9.282-8.133-9.282-15.005v-7.763a1.935,1.935,0,1,1,3.871,0v7.763c0,5.361,2.389,9.237,7.1,11.522a1.938,1.938,0,0,1,.9,2.586" fill="#be2bbb"/>
    <path id="Path_34" data-name="Path 34" d="M2183.713,4049.288l8.644-22.557a.661.661,0,0,1,.619-.483h1.826a.6.6,0,0,1,.62.414l8.506,22.626c.172.413.1.688-.447.688h-2.2c-.482,0-.689-.137-.827-.551l-2.308-6.474h-8.919l-2.377,6.474c-.137.414-.343.551-.825.551h-1.9C2183.609,4049.976,2183.541,4049.7,2183.713,4049.288Zm13.6-8.713-3.547-10.228h-.035l-3.684,10.228Zm7.884,1.1c0-5.063,3.065-8.713,8.231-8.713a10.167,10.167,0,0,1,4.443,1c.31.172.447.378.31.723l-.379,1.067c-.1.31-.31.448-.724.276a8.065,8.065,0,0,0-3.512-.792c-3.271,0-5.338,2.445-5.338,6.3,0,3.512,1.515,6.543,5.2,6.543a8.739,8.739,0,0,0,3.823-.792.466.466,0,0,1,.688.276l.311.964c.137.413.068.62-.379.826a10.936,10.936,0,0,1-4.65.965C2207.818,4050.321,2205.2,4046.808,2205.2,4041.677Zm14.566,0c0-5.063,3.065-8.713,8.231-8.713a10.166,10.166,0,0,1,4.443,1c.309.172.447.378.309.723l-.379,1.067c-.1.31-.309.448-.723.276a8.068,8.068,0,0,0-3.512-.792c-3.272,0-5.339,2.445-5.339,6.3,0,3.512,1.516,6.543,5.2,6.543a8.74,8.74,0,0,0,3.823-.792.467.467,0,0,1,.688.276l.311.964c.137.413.068.62-.379.826a10.936,10.936,0,0,1-4.65.965C2222.384,4050.321,2219.766,4046.808,2219.766,4041.677Zm14.5-.035c0-5.028,2.962-8.678,7.921-8.678,4.476,0,6.75,3.306,6.75,7.3v.861c0,.792-.138.964-1.034.964h-10.572c.1,3.237,1.894,5.82,5.3,5.82a11.072,11.072,0,0,0,4.237-.723c.31-.138.62-.138.757.241l.413,1.136c.138.379.035.551-.344.758a13.389,13.389,0,0,1-5.442,1C2237.018,4050.321,2234.263,4046.808,2234.263,4041.642Zm11.778-1.55v-.619c0-2.342-1.309-4.236-4-4.236-2.859,0-4.408,2.238-4.649,4.855Zm5.474,9.127c-.309-.173-.448-.379-.309-.689l.446-1.171a.44.44,0,0,1,.655-.31,11.079,11.079,0,0,0,4,1.033c2,0,3.341-1,3.341-2.617,0-1.343-.964-2.067-2.583-2.686l-2.307-.9c-1.964-.757-3.444-2.169-3.444-4.339,0-3.03,2.686-4.58,5.716-4.58a10.309,10.309,0,0,1,4.443.93.474.474,0,0,1,.31.654l-.413,1.136c-.1.345-.345.414-.689.276a10.05,10.05,0,0,0-3.582-.827c-2.032,0-2.927,1.034-2.927,2.2s.792,1.722,2.238,2.342l2.652,1.137c1.893.792,3.478,2.169,3.478,4.373,0,3.169-2.652,5.132-6.3,5.132A11.092,11.092,0,0,1,2251.515,4049.219Zm13.636,0c-.31-.173-.448-.379-.31-.689l.447-1.171a.44.44,0,0,1,.655-.31,11.07,11.07,0,0,0,3.995,1.033c2,0,3.34-1,3.34-2.617,0-1.343-.964-2.067-2.583-2.686l-2.307-.9c-1.963-.757-3.444-2.169-3.444-4.339,0-3.03,2.686-4.58,5.718-4.58a10.3,10.3,0,0,1,4.441.93.474.474,0,0,1,.31.654l-.413,1.136c-.1.345-.345.414-.688.276a10.055,10.055,0,0,0-3.583-.827c-2.031,0-2.926,1.034-2.926,2.2s.791,1.722,2.238,2.342l2.652,1.137c1.894.792,3.478,2.169,3.478,4.373,0,3.169-2.652,5.132-6.3,5.132A11.085,11.085,0,0,1,2265.151,4049.219Zm152.879-70.1c0,1.406-.64,2.065-1.76,2.065s-1.761-.659-1.761-2.065.64-2.1,1.761-2.1,1.76.7,1.76,2.1m30.95,14.359c0,4.328-1.511,5.737-3.986,5.737s-3.984-1.409-3.984-5.737v-2.337c0-4.33,1.512-5.738,3.984-5.738s3.986,1.408,3.986,5.738Zm-3.641-10.617a4.386,4.386,0,0,0-4.158,2.542h-.137v-8.04h-2.886v24.051h2.886v-2.2h.137a4.388,4.388,0,0,0,4.158,2.542c4.5,0,6.562-3.092,6.562-8.108v-2.68c0-5.016-2.061-8.108-6.562-8.108m-12.933,10.617c0,4.328-1.512,5.737-3.985,5.737s-3.985-1.409-3.985-5.737v-2.337c0-4.33,1.511-5.738,3.985-5.738s3.985,1.408,3.985,5.738Zm-3.642-10.617a4.385,4.385,0,0,0-4.157,2.542h-.138v-8.04h-2.885v24.051h2.885v-2.2h.138a4.387,4.387,0,0,0,4.157,2.542c4.5,0,6.562-3.092,6.562-8.108v-2.68c0-5.016-2.062-8.108-6.562-8.108m-13.937.344h2.885v18.209h-2.885Zm-6.593,0h2.887v18.209h-2.887v-2.337h-.136a4.678,4.678,0,0,1-4.467,2.68c-3.4,0-5.5-1.925-5.5-6.219V3983.2h2.921v11.922c0,2.92,1.2,4.191,3.367,4.191,2.1,0,3.813-1.409,3.813-4.947Zm-20.092,16.01c-2.474,0-3.986-1.409-3.986-5.737v-2.337c0-4.33,1.512-5.738,3.986-5.738s3.986,1.408,3.986,5.738v2.337c0,4.328-1.512,5.737-3.986,5.737m3.951-13.812h-.14a4.417,4.417,0,0,0-4.154-2.542c-4.5,0-6.563,3.092-6.563,8.108v2.68c0,5.016,2.061,8.108,6.563,8.108a4.419,4.419,0,0,0,4.154-2.542h.14v8.04h2.886V3983.2h-2.886Zm-13.04,9.654c0,4.3-2.955,6.7-7.49,6.7-4.26,0-7.765-2.061-8.211-6.665h3.2c.378,2.714,2.3,3.985,4.982,3.985,3.057,0,4.432-1.821,4.432-3.847,0-6.838-12.232-2.887-12.232-11.854,0-3.848,3.058-6.355,7.319-6.355,4.122,0,7.558,2.026,7.765,6.767h-3.2c-.275-2.92-2.129-4.088-4.6-4.088-2.922,0-4.192,1.718-4.192,3.538,0,6.048,12.231,2.474,12.231,11.819m-22.938,1.341c0,3.505-2.61,5.359-6.425,5.359-3.848,0-6.389-1.649-6.6-5.359h2.886c.1,2.233,1.753,2.955,3.71,2.955s3.539-.859,3.539-2.75c0-4.431-9.928-1.373-9.928-8.554,0-2.989,2.2-5.188,6.218-5.188,3.676,0,6.116,1.821,6.391,5.359h-2.887c-.171-2.13-1.649-2.954-3.5-2.954-2.1,0-3.4.962-3.4,2.783,0,4.294,10,1.649,10,8.349m-15.46-13.193h.893v2.817h-.721c-2.886,0-4.776,1.442-4.776,5.257v10.135h-2.886V3983.2h2.886v3.263h.138a4.424,4.424,0,0,1,4.466-3.263m-17.263,2.2c2.338,0,3.6,1.376,3.639,5.566h-7.62c.04-4.19,1.542-5.566,3.981-5.566m0-2.542c-4.5,0-6.905,3.229-6.905,8.108v2.68c0,5.016,2.405,8.108,6.905,8.108,3.608,0,5.738-1.993,6.46-5.394H2326.9a3.231,3.231,0,0,1-3.5,2.852c-2.473,0-3.985-1.409-3.985-5.737v-.242h10.547v-2.267c0-4.879-2.06-8.108-6.562-8.108m-10.674.344h2.92l-8.073,24.05h-2.989l2.027-5.7-5.91-18.346h3.058l4.364,14.189h.137Zm-18.933-5.842h4.9v24.051h-3.058V3980.7h-.171l-6.151,16.735h-3.746l-6.079-16.735h-.172v20.717h-3.024v-24.051h5.138l6.062,16.7h.173Zm-30.725,0h2.887v24.05h-2.887Zm-5.97,16.115c0,4.328-1.512,5.737-3.985,5.737s-3.985-1.409-3.985-5.737v-2.337c0-4.33,1.511-5.738,3.985-5.738s3.985,1.408,3.985,5.738Zm-3.985-10.617c-4.5,0-6.905,3.092-6.905,8.108v2.68c0,5.016,2.4,8.108,6.905,8.108s6.905-3.092,6.905-8.108v-2.68c0-5.016-2.4-8.108-6.905-8.108m-12.443.344h3.917v2.542h-3.917v10.066c0,2.646.688,3.2,2.44,3.2.481,0,1.03-.068,1.477-.1v2.475a10.937,10.937,0,0,1-1.786.171c-3.573,0-5.016-1.408-5.016-5.292v-10.512h-3.059V3983.2h3.059v-5.842h2.885ZM2234,3996.4c0,3.505-2.612,5.359-6.425,5.359-3.849,0-6.391-1.649-6.6-5.359h2.886c.1,2.233,1.752,2.955,3.711,2.955s3.538-.859,3.538-2.75c0-4.431-9.929-1.373-9.929-8.554,0-2.989,2.2-5.188,6.219-5.188,3.677,0,6.115,1.821,6.391,5.359h-2.887c-.171-2.13-1.649-2.954-3.5-2.954-2.1,0-3.4.962-3.4,2.783,0,4.294,10,1.649,10,8.349m-15.692-17.279c0,1.406-.64,2.065-1.761,2.065s-1.761-.659-1.761-2.065.64-2.1,1.761-2.1,1.761.7,1.761,2.1m-3.2,4.086h2.886v18.209h-2.886Zm-3.461,0h.893v2.817h-.721c-2.887,0-4.776,1.442-4.776,5.257v10.135h-2.886V3983.2h2.886v3.263h.137a4.426,4.426,0,0,1,4.467-3.263m-13.275,11.439c0,2.977-2.344,4.09-5.764,4.09h-3.931v-8.671h3.986c3.368,0,5.709,1.119,5.709,4.2Zm-9.7-14.567h3.534c3.369,0,5.087,1.276,5.087,3.561v.241c0,2.758-2.384,3.643-5.517,3.643h-3.1Zm7.537,8.481,0-.119c2.5-.86,4.049-2.363,4.049-5.047v-.413c0-3.081-2.505-5.616-7.614-5.616h-7.069v24.051h7.581c4.967,0,8.375-2.5,8.375-6.493v-.241c0-3.118-1.836-5.4-5.326-6.122m256.381-6.335v-4.3h1.3v-.555h-3.228v.555h1.291v4.3Zm6.42,0v-4.859h-1.028l-1.2,3.762h-.035l-1.187-3.762h-1.076v4.859h.61v-4.186h.035l1.319,4.186h.583l1.326-4.186h.035v4.186Zm-6.728,31.7a.385.385,0,0,0-.386-.386H2185.594a.386.386,0,0,0,0,.772H2451.9A.386.386,0,0,0,2452.287,4013.922Z" fill="#595454"/>
  </g>
</svg>
