<?xml version="1.0" encoding="utf-8"?>
<!-- Generator: Adobe Illustrator 28.1.0, SVG Export Plug-In . SVG Version: 6.00 Build 0)  -->
<svg version="1.1" id="Layer_2_00000154421070251071512170000010758210979691550141_"
	 xmlns="http://www.w3.org/2000/svg" xmlns:xlink="http://www.w3.org/1999/xlink" x="0px" y="0px" viewBox="0 0 637.9 240"
	 style="enable-background:new 0 0 637.9 240;" xml:space="preserve">
<style type="text/css">
	.st0{fill:#007B98;}
	.st1{fill:#808080;}
	.st2{fill:#00DFC3;}
</style>
<g id="Layer_1-2">
	<g id="color-logo">
		<path class="st0" d="M183.1,207.6c-1.6-0.9-2.8-2.2-3.7-3.8c-0.9-1.6-1.3-3.4-1.3-5.4s0.4-3.8,1.3-5.4c0.9-1.6,2.1-2.9,3.7-3.8
			c1.6-0.9,3.4-1.4,5.3-1.4c1.5,0,2.9,0.3,4.2,0.8s2.4,1.3,3.2,2.4l-1.8,1.9c-1.5-1.6-3.3-2.4-5.5-2.4c-1.5,0-2.8,0.3-3.9,1
			s-2.1,1.6-2.8,2.8c-0.7,1.2-1,2.6-1,4s0.3,2.8,1,4c0.7,1.2,1.6,2.1,2.8,2.8s2.5,1,3.9,1c2.2,0,4-0.8,5.5-2.5l1.8,1.9
			c-0.9,1.1-2,1.9-3.3,2.4s-2.7,0.8-4.2,0.8C186.5,208.9,184.7,208.5,183.1,207.6L183.1,207.6z"/>
		<path class="st0" d="M217.1,208.7l-4.2-6.3c-0.5,0-0.9,0.1-1.2,0.1h-4.8v6.3H204v-20.6h7.6c2.5,0,4.5,0.6,6,1.9
			c1.5,1.3,2.2,3,2.2,5.3c0,1.6-0.4,2.9-1.1,4.1s-1.8,1.9-3.2,2.4l4.6,6.9L217.1,208.7L217.1,208.7z M215.7,198.7
			c0.9-0.8,1.4-1.9,1.4-3.4s-0.5-2.6-1.4-3.4s-2.3-1.2-4.1-1.2h-4.8v9.3h4.8C213.4,199.9,214.7,199.5,215.7,198.7L215.7,198.7z"/>
		<path class="st0" d="M242.7,206.1v2.6h-14.2v-20.6h13.8v2.6h-11v6.3h9.8v2.5h-9.8v6.6H242.7z"/>
		<path class="st0" d="M263.8,203.6h-10.4l-2.2,5.1h-2.9l8.9-20.6h2.8l8.9,20.6h-2.9L263.8,203.6L263.8,203.6z M262.8,201.2
			l-4.2-10.1l-4.2,10.1H262.8z"/>
		<path class="st0" d="M278.8,190.7h-6.7v-2.6h16.2v2.6h-6.7v18h-2.8V190.7z"/>
		<path class="st0" d="M295.4,188.1h2.8v20.6h-2.8V188.1z"/>
		<path class="st0" d="M325,188.1l-8.6,20.6h-2.8l-8.6-20.6h3l7,16.9l7.1-16.9H325L325,188.1z"/>
		<path class="st0" d="M345.8,206.1v2.6h-14.2v-20.6h13.8v2.6h-11v6.3h9.8v2.5h-9.8v6.6H345.8z"/>
		<path class="st0" d="M367.5,208.2c-1.4-0.5-2.5-1.1-3.2-1.9l1-2.3c0.8,0.7,1.7,1.3,2.9,1.7c1.2,0.4,2.4,0.7,3.6,0.7
			c1.6,0,2.8-0.3,3.6-0.9s1.2-1.4,1.2-2.3c0-0.7-0.2-1.3-0.7-1.7s-1-0.8-1.6-1c-0.6-0.2-1.5-0.5-2.7-0.8c-1.5-0.4-2.7-0.7-3.6-1.1
			c-0.9-0.4-1.7-0.9-2.3-1.7s-1-1.8-1-3.1c0-1.1,0.3-2.1,0.8-3s1.4-1.6,2.5-2.1c1.1-0.5,2.5-0.8,4.2-0.8c1.2,0,2.3,0.2,3.4,0.5
			c1.1,0.3,2.1,0.8,2.9,1.4l-0.9,2.4c-0.8-0.6-1.7-1-2.6-1.2c-0.9-0.3-1.9-0.4-2.7-0.4c-1.6,0-2.8,0.3-3.6,0.9s-1.2,1.4-1.2,2.4
			c0,0.7,0.2,1.3,0.7,1.7s1,0.8,1.7,1c0.7,0.2,1.6,0.5,2.7,0.8c1.5,0.4,2.7,0.8,3.6,1.1s1.7,0.9,2.3,1.7c0.6,0.8,1,1.8,1,3.1
			c0,1.1-0.3,2.1-0.8,2.9s-1.4,1.6-2.5,2.1s-2.5,0.8-4.2,0.8C370.4,208.9,368.9,208.7,367.5,208.2L367.5,208.2z"/>
		<path class="st0" d="M391.1,207.6c-1.6-0.9-2.8-2.2-3.7-3.8s-1.4-3.4-1.4-5.4s0.5-3.8,1.4-5.4c0.9-1.6,2.1-2.9,3.7-3.8
			s3.4-1.4,5.4-1.4s3.7,0.5,5.3,1.4c1.6,0.9,2.8,2.2,3.7,3.8c0.9,1.6,1.3,3.4,1.3,5.4s-0.5,3.8-1.3,5.4c-0.9,1.6-2.1,2.9-3.7,3.8
			c-1.6,0.9-3.4,1.4-5.3,1.4S392.6,208.5,391.1,207.6L391.1,207.6z M400.3,205.3c1.1-0.7,2-1.6,2.7-2.8s1-2.6,1-4s-0.3-2.8-1-4
			s-1.6-2.1-2.7-2.8s-2.4-1-3.9-1s-2.7,0.3-3.9,1s-2.1,1.6-2.7,2.8c-0.7,1.2-1,2.6-1,4s0.3,2.8,1,4c0.7,1.2,1.6,2.1,2.7,2.8
			c1.2,0.7,2.5,1,3.9,1S399.1,206,400.3,205.3z"/>
		<path class="st0" d="M415.2,188.1h2.8v18h10.6v2.6h-13.4L415.2,188.1L415.2,188.1z"/>
		<path class="st0" d="M437.6,206.6c-1.5-1.6-2.2-3.8-2.2-6.8v-11.7h2.8v11.6c0,4.4,1.8,6.6,5.5,6.6c1.8,0,3.2-0.5,4.1-1.6
			c1-1.1,1.4-2.8,1.4-5v-11.6h2.7v11.7c0,3-0.7,5.2-2.2,6.8c-1.5,1.6-3.5,2.3-6.1,2.3S439,208.2,437.6,206.6L437.6,206.6z"/>
		<path class="st0" d="M465.3,190.7h-6.7v-2.6h16.2v2.6h-6.7v18h-2.8V190.7z"/>
		<path class="st0" d="M482,188.1h2.8v20.6H482V188.1z"/>
		<path class="st0" d="M498.2,207.6c-1.6-0.9-2.8-2.2-3.7-3.8s-1.4-3.4-1.4-5.4s0.5-3.8,1.4-5.4c0.9-1.6,2.1-2.9,3.7-3.8
			s3.4-1.4,5.4-1.4s3.7,0.5,5.3,1.4c1.6,0.9,2.8,2.2,3.7,3.8c0.9,1.6,1.3,3.4,1.3,5.4s-0.5,3.8-1.3,5.4c-0.9,1.6-2.1,2.9-3.7,3.8
			c-1.6,0.9-3.4,1.4-5.3,1.4S499.8,208.5,498.2,207.6L498.2,207.6z M507.4,205.3c1.1-0.7,2-1.6,2.7-2.8c0.7-1.2,1-2.6,1-4
			s-0.3-2.8-1-4c-0.7-1.2-1.6-2.1-2.7-2.8s-2.4-1-3.9-1s-2.7,0.3-3.9,1s-2.1,1.6-2.7,2.8s-1,2.6-1,4s0.3,2.8,1,4s1.6,2.1,2.7,2.8
			c1.2,0.7,2.5,1,3.9,1S506.3,206,507.4,205.3z"/>
		<path class="st0" d="M539.2,188.1v20.6h-2.3l-11.8-15.4v15.4h-2.8v-20.6h2.3l11.8,15.4v-15.4H539.2L539.2,188.1z"/>
		<path class="st0" d="M550.6,208.2c-1.4-0.5-2.5-1.1-3.2-1.9l1-2.3c0.8,0.7,1.7,1.3,2.9,1.7s2.4,0.7,3.6,0.7c1.6,0,2.8-0.3,3.6-0.9
			s1.2-1.4,1.2-2.3c0-0.7-0.2-1.3-0.7-1.7s-1-0.8-1.6-1s-1.5-0.5-2.7-0.8c-1.5-0.4-2.7-0.7-3.6-1.1c-0.9-0.4-1.7-0.9-2.3-1.7
			s-1-1.8-1-3.1c0-1.1,0.3-2.1,0.8-3s1.4-1.6,2.5-2.1c1.1-0.5,2.5-0.8,4.2-0.8c1.2,0,2.3,0.2,3.4,0.5c1.1,0.3,2.1,0.8,2.9,1.4
			l-0.9,2.4c-0.8-0.6-1.7-1-2.6-1.2c-0.9-0.3-1.8-0.4-2.7-0.4c-1.6,0-2.8,0.3-3.6,0.9s-1.2,1.4-1.2,2.4c0,0.7,0.2,1.3,0.7,1.7
			s1,0.8,1.7,1c0.7,0.2,1.6,0.5,2.7,0.8c1.5,0.4,2.7,0.8,3.6,1.1s1.7,0.9,2.3,1.7c0.6,0.8,1,1.8,1,3.1c0,1.1-0.3,2.1-0.8,2.9
			s-1.4,1.6-2.5,2.1s-2.5,0.8-4.2,0.8C553.4,208.9,552,208.7,550.6,208.2L550.6,208.2z"/>
		<path class="st1" d="M240.7,116.2h-40.8c-0.2,0-0.4,0.2-0.3,0.4l2.1,10.3c1.1,2.8,3.9,4.7,7,4.7h14.8c0.2,0,0.3,0.2,0.3,0.3v14.5
			c0,0.1,0,0.2-0.1,0.3c-4.8,4.2-11.6,6.2-20.4,6.2c-5.8,0-11.1-1.4-15.9-4.2c-4.9-2.8-8.8-6.7-11.7-11.8s-4.4-11-4.4-17.9
			c0-6.2,1.2-11.8,3.7-17.1c2.4-5.2,6-9.4,10.5-12.6s10-4.8,16.2-4.8s11.3,1.3,15.4,4c4,2.6,7.5,6.1,10.5,10.4
			c0.1,0.2,0.4,0.2,0.5,0.1l12.3-10.9c0.1-0.1,0.2-0.3,0.1-0.5c-3.8-5.3-8.8-9.8-15-13.4c-6.3-3.8-14.2-5.6-23.7-5.6
			c-7.3,0-14,1.3-20,4c-6.1,2.6-11.3,6.3-15.6,11s-7.8,10.1-10.2,16.2c-2.4,6.2-3.6,12.7-3.6,19.8c0,9.3,2,17.8,6.1,25.3
			c4,7.6,9.8,13.5,17.3,17.9s16.5,6.6,27,6.6c9.7,0,17.6-1.4,23.7-4c6-2.7,10.9-5.8,14.7-9.3c0.1-0.1,0.1-0.2,0.1-0.2v-39.3
			C241,116.4,240.9,116.2,240.7,116.2L240.7,116.2z"/>
		<path class="st1" d="M291.2,98.5c-1.3-0.2-2.8-0.3-4.4-0.3c-3.6,0-6.8,0.6-9.4,1.7s-4.9,2.4-6.6,3.9s-3.2,2.9-4.2,4.2
			c-0.2-4.8-4.2-8.5-9-8.5h-7.8v67.6h17v-36.5c0-5,1.7-9,5-12c3.4-3,7.4-4.5,12.1-4.5c2.9,0,5.5,0.4,7.8,1.3l3.5-16
			C293.9,99,292.5,98.6,291.2,98.5L291.2,98.5z"/>
		<path class="st1" d="M349.8,102.1c-5.4-3.3-11.8-4.9-19-4.9s-13.5,1.6-19,4.9c-5.4,3.3-9.7,7.6-12.8,13.1
			c-3.1,5.5-4.6,11.5-4.6,18s1.5,12.5,4.6,18c3.1,5.5,7.3,9.9,12.8,13.2c5.4,3.3,11.8,5,19,5s13.5-1.7,19-5
			c5.4-3.3,9.7-7.7,12.8-13.2c3.1-5.5,4.6-11.5,4.6-18s-1.5-12.5-4.6-18C359.5,109.7,355.2,105.3,349.8,102.1z M347.9,143.1
			c-1.4,3.3-3.5,6.1-6.3,8.3c-2.8,2.2-6.4,3.3-10.7,3.3s-7.9-1.1-10.7-3.3c-2.8-2.2-5-5-6.3-8.3c-1.4-3.3-2.1-6.6-2.1-9.9
			c0-3.3,0.7-6.5,2.1-9.8c1.4-3.3,3.5-6,6.3-8.2c2.8-2.2,6.4-3.3,10.7-3.3s7.9,1.1,10.7,3.3c2.8,2.2,5,4.9,6.3,8.2
			c1.4,3.3,2.1,6.5,2.1,9.8C350,136.5,349.3,139.8,347.9,143.1z"/>
		<path class="st1" d="M402.2,147.9l-14.3-38c-2.4-6.2-8.3-10.4-15-10.4h-8.5l28.7,67.6h17.3l28.5-67.6h-18.6
			C420.3,99.5,402.2,147.9,402.2,147.9z"/>
		<path class="st1" d="M499.3,109.3c-2.6-3.7-6-6.7-10.2-8.9c-4.2-2.2-9.5-3.3-15.7-3.3c-6.7,0-12.7,1.6-17.8,4.7
			c-5.1,3.1-9.2,7.3-12.1,12.7c-2.9,5.3-4.4,11.3-4.4,17.9c0,7.2,1.5,13.6,4.5,19.2c3,5.6,7.1,9.9,12.5,13.1
			c5.3,3.1,11.6,4.7,18.8,4.7c5.3,0,9.8-0.6,13.6-1.7c3.8-1.1,6.9-2.4,9.4-3.9c2.5-1.5,4.3-2.9,5.6-4.2c1.3-1.3,2.1-2.1,2.4-2.4
			l-9.2-10.4c-0.8,0.8-2,1.8-3.8,3s-4,2.4-6.9,3.4s-6.5,1.5-11,1.5c-3,0-5.9-0.7-8.8-2.1c-2.9-1.4-5.3-3.3-7.1-5.8
			c-1.9-2.4-2.8-5.3-2.8-8.6h50.5v-2.4c0-4.8-0.6-9.5-1.7-14.1C503.8,117.2,501.9,113,499.3,109.3L499.3,109.3z M456.1,126.1
			c0-2.3,0.7-4.6,2-6.8c1.3-2.3,3.3-4.1,5.8-5.6c2.5-1.5,5.7-2.2,9.4-2.2c3.5,0,6.5,0.8,8.8,2.2c2.3,1.5,4.1,3.4,5.3,5.6
			s1.8,4.5,1.8,6.8H456.1L456.1,126.1z"/>
		<path class="st1" d="M551.1,98.2c-3.7,0-6.8,0.6-9.4,1.7s-4.8,2.4-6.6,3.9s-3.2,2.9-4.2,4.2c-0.2-4.8-4.2-8.5-9-8.5H514v67.6h17
			v-36.5c0-5,1.7-9,5-12s7.4-4.5,12.1-4.5c2.9,0,5.5,0.4,7.8,1.3l3.5-16c-1.3-0.5-2.7-0.8-4-1C554.2,98.3,552.7,98.2,551.1,98.2
			L551.1,98.2z"/>
		<path class="st1" d="M250.6,71.7c0,4.4,0.9,7.7,2.8,9.9c1.8,2.1,4.7,3.2,8.5,3.2c2.2,0,4.1-0.3,5.7-1c1.6-0.7,3.2-1.7,4.7-3.2
			l-3.2-4.3c-0.8,0.8-1.7,1.5-2.6,1.9c-0.9,0.4-2.1,0.6-3.4,0.6c-1.7,0-3-0.6-3.9-1.7c-0.9-1.1-1.4-3.1-1.4-6.1V52.9h10.8V47h-10.8
			V35h-7.1v12H244v5.9h6.6V71.7L250.6,71.7z"/>
		<path class="st1" d="M281.7,66.7c0-2.4,0.3-4.7,1-6.9c0.7-2.2,1.8-4,3.4-5.4c1.6-1.4,3.7-2.1,6.4-2.1s4.7,0.8,6.2,2.4
			s2.2,4.1,2.2,7.5v21.5h7.1V61.7c0-4.8-1.2-8.5-3.5-11.3s-5.9-4.2-10.7-4.2c-2.3,0-4.2,0.3-5.8,1c-1.6,0.7-2.9,1.5-4,2.5
			c-1,1-1.9,1.9-2.5,2.8V31h-7v52.8h7.1L281.7,66.7L281.7,66.7z"/>
		<path class="st1" d="M321.8,82.4c2.9,1.7,6.2,2.5,10,2.5c3.1,0,5.8-0.4,8-1.2c2.2-0.8,4-1.7,5.3-2.8s2.3-1.9,2.9-2.5l-4-4.3
			c-0.8,1-2.3,2-4.3,3.1c-2,1.1-4.6,1.6-7.7,1.6c-2.1,0-4.1-0.5-5.9-1.5s-3.3-2.3-4.4-4c-1.1-1.7-1.7-3.7-1.7-5.8h29
			c0-3.7-0.6-7.3-1.8-10.5c-1.2-3.3-3.1-5.9-5.8-8c-2.6-2.1-6.1-3.1-10.4-3.1c-3.6,0-6.8,0.9-9.5,2.6s-4.9,4-6.5,6.9
			c-1.6,2.9-2.3,6.1-2.3,9.7c0,3.9,0.8,7.3,2.4,10.3C316.7,78.4,318.9,80.7,321.8,82.4L321.8,82.4z M321.4,57.2
			c0.9-1.6,2.1-2.8,3.8-3.8c1.6-1,3.6-1.5,5.9-1.5c3.3,0,5.8,1,7.6,3c1.8,2,2.8,4.4,3,7.3h-21.7C320,60.4,320.5,58.8,321.4,57.2
			L321.4,57.2z"/>
		<polygon class="st1" points="619.1,99 600.7,148.6 582.1,99 563.4,99 591.5,166.6 574.2,209 593,209 637.9,99 		"/>
		<path class="st2" d="M63.1,195.7c0.6,0,1.1-0.2,1.6-0.6l46.8-46.8c8.4-8.4,13.9-19.5,14.6-31.4c0.8-13.8-4.2-26.8-13.8-36.5
			L95.5,63.5c-0.9-0.9-2.3-0.9-3.2,0L65,90.9c-1.2,1.2-1.9,2.8-1.9,4.6l0,26.9c0,1.4,1.7,2.1,2.7,1.1l28.8-28.4
			c9.9,11.1,9.5,28.1-1.1,38.8l-28.9,28.9c-0.4,0.4-1,0.6-1.6,0.6L63.1,195.7L63.1,195.7z"/>
		<path class="st0" d="M61.5,162.8l-28.9-28.9c-11-10.9-11-28.8-0.1-39.8c0,0,0.1-0.1,0.1-0.1l29.3-29.3c0.9-0.9,1.5-2.2,1.5-3.5
			l0-26.6c0-1.4-1.8-2.2-2.8-1.1l-46.7,47c-18.5,18.5-18.5,48.6,0,67.2l47.6,47.6c0.4,0.4,1,0.6,1.6,0.6c0,0,0,0,0,0v-32.3
			C62.5,163.4,62,163.2,61.5,162.8L61.5,162.8z"/>
	</g>
</g>
</svg>
