<svg xmlns="http://www.w3.org/2000/svg" width="51.305" height="41.533" viewBox="0 0 51.305 41.533">
  <path id="Path_147" data-name="Path 147" d="M594.393,3093.422h-6.158a18.318,18.318,0,0,0-35.312,0h-6.17a1.832,1.832,0,0,0-1.833,1.832v14.694a1.833,1.833,0,0,0,1.833,1.832h6.725a7.438,7.438,0,0,0,7.426,7.294h1.118v1.222a1.222,1.222,0,0,0,1.221,1.222h9.773a1.222,1.222,0,0,0,1.221-1.222v-6.108a1.221,1.221,0,0,0-1.221-1.221h-9.773a1.221,1.221,0,0,0-1.221,1.221v2.443H560.9a5,5,0,0,1-4.99-4.988h-.009v-13.335h.015a14.659,14.659,0,0,1,29.318,0h0v11.64a1.833,1.833,0,0,0,1.833,1.832h7.32a1.832,1.832,0,0,0,1.832-1.832v-14.694A1.832,1.832,0,0,0,594.393,3093.422Zm-29.928,21.988h7.329v3.664h-7.329Zm-12.225-7.294h-3.655v-11.029h3.655Zm40.321,0h-3.656v-11.029h3.656Z" transform="translate(-544.92 -3079.985)" fill="#453838"/>
</svg>
