<svg xmlns="http://www.w3.org/2000/svg" width="83.122" height="83.122" viewBox="0 0 83.122 83.122">
  <g id="Group_107" data-name="Group 107" transform="translate(-1233.531 -3073.921)">
    <path id="Path_150" data-name="Path 150" d="M1304.374,3086.515h-11.965a.944.944,0,0,1-.944-.944v-.63a.945.945,0,0,1,.944-.945h11.965a.945.945,0,0,1,.944.945v.63a.944.944,0,0,1-.944.944m-21.725,10.076H1268.8a1.294,1.294,0,0,1-1.259-1.326v-9.942A1.294,1.294,0,0,1,1268.8,3084h13.854a1.294,1.294,0,0,1,1.259,1.327v9.942a1.294,1.294,0,0,1-1.259,1.326m-12.6-10.076v7.557h11.335v-7.557Zm34.32,10.076h-11.965a.945.945,0,0,1-.944-.945v-.63a.944.944,0,0,1,.944-.944h11.965a.944.944,0,0,1,.944.944v.63a.945.945,0,0,1-.944.945m-.033,10.075h-35.828a.96.96,0,0,1-.977-.944v-.63a.961.961,0,0,1,.977-.945h35.828a.961.961,0,0,1,.977.945v.63a.96.96,0,0,1-.977.944m10.423-32.745H1258.09a1.889,1.889,0,0,0-1.889,1.889v37.153H1235.42a1.889,1.889,0,0,0-1.889,1.889v40.3a1.889,1.889,0,0,0,1.889,1.889h66.75a1.889,1.889,0,0,0,1.889-1.889v-5.667h10.705a1.889,1.889,0,0,0,1.889-1.889V3075.81a1.889,1.889,0,0,0-1.889-1.889m-14.483,79.344h-62.972v-36.523h62.972Zm12.594-7.557h-8.816v-30.856a1.889,1.889,0,0,0-1.889-1.889h-42.191V3077.7h52.9Z" fill="#453838"/>
    <path id="Path_151" data-name="Path 151" d="M1259.979,3143.188v-16.373a1.26,1.26,0,0,1,1.9-1.084l13.853,8.186a1.26,1.26,0,0,1,0,2.169l-13.853,8.186a1.26,1.26,0,0,1-1.9-1.084m2.519-14.166v11.959l10.118-5.98Z" fill="#267148"/>
  </g>
</svg>
