<svg xmlns="http://www.w3.org/2000/svg" xmlns:xlink="http://www.w3.org/1999/xlink" width="77" height="77" viewBox="0 0 77 77">
  <defs>
    <clipPath id="clip-path">
      <rect id="Rectangle_609" data-name="Rectangle 609" width="77" height="77" transform="translate(0 -0.143)" fill="none"/>
    </clipPath>
  </defs>
  <g id="Group_866" data-name="Group 866" transform="translate(0.359 0.143)">
    <g id="Group_866-2" data-name="Group 866" transform="translate(-0.359)" clip-path="url(#clip-path)">
      <path id="Path_3480" data-name="Path 3480" d="M51.126,37.076h-.542a1.145,1.145,0,0,1-.62-.18A72.28,72.28,0,0,1,40.22,29.32C33.439,23.009,30,17.033,30,11.557A11.5,11.5,0,0,1,41.418,0a11.644,11.644,0,0,1,9.438,5.337A11.646,11.646,0,0,1,60.293,0,11.5,11.5,0,0,1,71.71,11.557c0,5.476-3.439,11.452-10.22,17.763A72.233,72.233,0,0,1,51.746,36.9a1.142,1.142,0,0,1-.619.18M41.418,2.327a9.176,9.176,0,0,0-9.1,9.23c0,10.421,15.277,21.006,18.538,23.146,3.26-2.141,18.538-12.736,18.538-23.146A9.012,9.012,0,0,0,52.21,7.544a1.142,1.142,0,0,1-1.021.621h-.577A1.183,1.183,0,0,1,49.5,7.544a9.251,9.251,0,0,0-8.083-5.218" transform="translate(-12.232)" fill="#3a90a0"/>
      <path id="Path_3481" data-name="Path 3481" d="M36.125,70.256V84.551a1.159,1.159,0,0,1-1.144,1.173H33.838a1.158,1.158,0,0,1-1.143-1.173V69.906a1.735,1.735,0,0,1,.158-.76c2.46-5.47-1.1-9.717-6.009-14.7-.353-.359-.7-.707-1.022-1.045-1.576-1.631-9.4-9.646-9.4-9.646a2.811,2.811,0,0,0-4.044,0,2.986,2.986,0,0,0,0,4.148l.08.088c1.533,1.8,5.278,6.187,7,8.12a1.158,1.158,0,0,1-.036,1.578l-.806.827a1.143,1.143,0,0,1-1.692-.034c-2.07-2.321-6.524-7.555-7.016-8.134a6.575,6.575,0,0,1,.044-9.082,6.374,6.374,0,0,1,.772-.664L9.285,28.611c-.244-1.521-1.184-3.242-3.1-3.129a3.012,3.012,0,0,0-2.713,3.036v24.6A4.253,4.253,0,0,0,4.633,56.04L21.58,75.307a1.737,1.737,0,0,1,.433,1.148v8.11a1.158,1.158,0,0,1-1.159,1.159H19.7a1.159,1.159,0,0,1-1.159-1.159V77.111L2.062,58.377A7.673,7.673,0,0,1,0,53.118v-24.6a6.453,6.453,0,0,1,5.981-6.505c3.378-.2,6.155,2.3,6.744,6.094l.008.06L14.08,39.395a6.179,6.179,0,0,1,4.766,1.871s7.833,8.024,9.412,9.658c.318.33.653.67,1,1.02,4.07,4.131,10.189,10.343,6.869,18.313M70.489,22.012c-3.373-.211-6.155,2.3-6.744,6.094L62.389,39.395a6.177,6.177,0,0,0-4.763,1.871s-7.836,8.024-9.414,9.659c-.319.33-.653.67-1,1.02-4.07,4.131-10.189,10.342-6.869,18.313V84.551a1.159,1.159,0,0,0,1.143,1.173h1.144a1.159,1.159,0,0,0,1.144-1.173v-14.7a1.691,1.691,0,0,0-.158-.708c-2.46-5.47,1.1-9.716,6.01-14.7.353-.358.7-.707,1.022-1.044,1.577-1.631,9.4-9.646,9.4-9.647a2.812,2.812,0,0,1,4.044,0,2.991,2.991,0,0,1,0,4.148l-.08.088c-1.533,1.8-5.279,6.187-7,8.119a1.2,1.2,0,0,0,.144,1.688l.7.717a1.143,1.143,0,0,0,1.692-.034c2.07-2.321,6.525-7.556,7.017-8.135a6.581,6.581,0,0,0-.045-9.081,6.319,6.319,0,0,0-.774-.666l1.438-11.989c.244-1.522,1.2-3.249,3.1-3.129a3.011,3.011,0,0,1,2.712,3.035v24.6a4.291,4.291,0,0,1-1.2,2.963L54.888,75.307a1.737,1.737,0,0,0-.433,1.147v8.111a1.159,1.159,0,0,0,1.159,1.159h1.159a1.158,1.158,0,0,0,1.159-1.159V77.111L74.37,58.419a7.713,7.713,0,0,0,2.1-5.3v-24.6a6.453,6.453,0,0,0-5.98-6.505" transform="translate(0.388 -9.255)" fill="#5a5454"/>
    </g>
  </g>
</svg>
