<svg xmlns="http://www.w3.org/2000/svg" xmlns:xlink="http://www.w3.org/1999/xlink" width="77" height="77" viewBox="0 0 77 77">
  <defs>
    <clipPath id="clip-path">
      <rect id="Rectangle_1935" data-name="Rectangle 1935" width="77" height="77" fill="none"/>
    </clipPath>
  </defs>
  <g id="calendar-icon" clip-path="url(#clip-path)">
    <path id="Path_5230" data-name="Path 5230" d="M23.177,46.354H13.906a1.159,1.159,0,0,1-1.159-1.159V35.924a1.159,1.159,0,0,1,1.159-1.159h9.271a1.159,1.159,0,0,1,1.159,1.159v9.271a1.159,1.159,0,0,1-1.159,1.159m-8.112-2.318h6.953V37.083H15.065Zm27.812,2.318H33.606a1.159,1.159,0,0,1-1.159-1.159V35.924a1.159,1.159,0,0,1,1.159-1.159h9.271a1.159,1.159,0,0,1,1.159,1.159v9.271a1.159,1.159,0,0,1-1.159,1.159m-8.112-2.318h6.953V37.083H34.765ZM23.177,64.9H13.906a1.159,1.159,0,0,1-1.159-1.159V54.466a1.159,1.159,0,0,1,1.159-1.159h9.271a1.159,1.159,0,0,1,1.159,1.159v9.271A1.159,1.159,0,0,1,23.177,64.9m-8.112-2.318h6.953V55.624H15.065ZM42.877,64.9H33.606a1.159,1.159,0,0,1-1.159-1.159V54.466a1.159,1.159,0,0,1,1.159-1.159h9.271a1.159,1.159,0,0,1,1.159,1.159v9.271A1.159,1.159,0,0,1,42.877,64.9m-8.112-2.318h6.953V55.624H34.765ZM62.577,64.9H53.307a1.159,1.159,0,0,1-1.159-1.159V54.466a1.159,1.159,0,0,1,1.159-1.159h9.271a1.159,1.159,0,0,1,1.159,1.159v9.271A1.159,1.159,0,0,1,62.577,64.9m-8.112-2.318h6.953V55.624H54.466ZM74.745,6.953H59.1V1.159A1.159,1.159,0,0,0,57.942,0H56.783a1.159,1.159,0,0,0-1.159,1.159V6.953H20.859V1.159A1.159,1.159,0,0,0,19.7,0H18.541a1.159,1.159,0,0,0-1.159,1.159V6.953H1.738A1.738,1.738,0,0,0,0,8.691V74.745a1.738,1.738,0,0,0,1.738,1.738H74.745a1.738,1.738,0,0,0,1.738-1.738V8.691a1.738,1.738,0,0,0-1.738-1.738M17.383,10.43v5.794a1.159,1.159,0,0,0,1.159,1.159H19.7a1.159,1.159,0,0,0,1.159-1.159V10.43H55.624v5.794a1.159,1.159,0,0,0,1.159,1.159h1.159A1.159,1.159,0,0,0,59.1,16.224V10.43H73.007V24.336H3.477V10.43ZM3.477,27.812H73.007V73.007H3.477Z" transform="translate(0 0.44)" fill="#5a5454"/>
    <path id="Path_5231" data-name="Path 5231" d="M100.43,71.588H91.159A1.159,1.159,0,0,1,90,70.43V61.159A1.159,1.159,0,0,1,91.159,60h9.271a1.159,1.159,0,0,1,1.159,1.159V70.43a1.159,1.159,0,0,1-1.159,1.159m-8.112-2.318h6.953V62.318H92.318Z" transform="translate(-37.852 -24.794)" fill="#be2bbb"/>
  </g>
</svg>
