<svg xmlns="http://www.w3.org/2000/svg" xmlns:xlink="http://www.w3.org/1999/xlink" width="78.955" height="75.119" viewBox="0 0 78.955 75.119">
  <defs>
    <clipPath id="clip-path">
      <rect id="Rectangle_1927" data-name="Rectangle 1927" width="78.955" height="75.119" fill="none"/>
    </clipPath>
  </defs>
  <g id="Group_1472" data-name="Group 1472" clip-path="url(#clip-path)">
    <path id="Path_5214" data-name="Path 5214" d="M78.955,25.605a4.047,4.047,0,0,0-4.182-3.887H66.031V2.952A2.955,2.955,0,0,0,63.079,0h-47.2a2.955,2.955,0,0,0-2.952,2.952V21.719H4.181A4.046,4.046,0,0,0,0,25.605V61.537a4.046,4.046,0,0,0,4.181,3.885H10.75v6.425a3.275,3.275,0,0,0,3.27,3.271H64.933A3.275,3.275,0,0,0,68.2,71.848V65.423h6.569a4.046,4.046,0,0,0,4.182-3.885ZM15.7,2.775H63.256V21.719H15.7ZM65.43,71.848a.5.5,0,0,1-.5.5H14.021a.5.5,0,0,1-.5-.5V46.64a.5.5,0,0,1,.5-.5H64.933a.5.5,0,0,1,.5.5Zm10.75-10.31a1.3,1.3,0,0,1-1.407,1.111H68.2V46.64a3.275,3.275,0,0,0-3.271-3.271H14.021a3.275,3.275,0,0,0-3.27,3.271V62.648H4.181a1.3,1.3,0,0,1-1.406-1.111V25.605a1.3,1.3,0,0,1,1.406-1.112H74.773a1.3,1.3,0,0,1,1.407,1.112Z" fill="#5a5454"/>
    <path id="Path_5215" data-name="Path 5215" d="M118.339,62.92a1.866,1.866,0,1,0,1.866,1.866,1.868,1.868,0,0,0-1.866-1.866" transform="translate(-55.703 -30.091)" fill="#be2bbb"/>
    <path id="Path_5216" data-name="Path 5216" d="M75.923,98.46H46.429a1.387,1.387,0,1,0,0,2.775H75.923a1.387,1.387,0,0,0,0-2.775" transform="translate(-21.541 -47.088)" fill="#be2bbb"/>
    <path id="Path_5217" data-name="Path 5217" d="M75.923,110.89H46.429a1.387,1.387,0,0,0,0,2.775H75.923a1.387,1.387,0,0,0,0-2.775" transform="translate(-21.541 -53.033)" fill="#be2bbb"/>
    <path id="Path_5218" data-name="Path 5218" d="M61.176,123.32H46.428a1.387,1.387,0,1,0,0,2.775H61.176a1.387,1.387,0,0,0,0-2.775" transform="translate(-21.541 -58.978)" fill="#be2bbb"/>
  </g>
</svg>
