<svg xmlns="http://www.w3.org/2000/svg" xmlns:xlink="http://www.w3.org/1999/xlink" width="92" height="109" viewBox="0 0 92 109">
  <defs>
    <clipPath id="clip-path">
      <rect id="Rectangle_1926" data-name="Rectangle 1926" width="92" height="109" fill="none"/>
    </clipPath>
  </defs>
  <g id="Group_1469" data-name="Group 1469" clip-path="url(#clip-path)">
    <path id="Path_5212" data-name="Path 5212" d="M14.79,44.781v-.822a1.233,1.233,0,0,1,1.233-1.233H59.571A1.233,1.233,0,0,1,60.8,43.959v.822a1.232,1.232,0,0,1-1.233,1.233H16.023a1.232,1.232,0,0,1-1.233-1.233M41.494,60.8H16.023a1.232,1.232,0,0,1-1.233-1.233v-.822a1.233,1.233,0,0,1,1.233-1.233H41.494a1.233,1.233,0,0,1,1.233,1.233v.822A1.232,1.232,0,0,1,41.494,60.8M36.153,73.539v.822a1.232,1.232,0,0,1-1.233,1.233h-18.9a1.232,1.232,0,0,1-1.233-1.233v-.822a1.233,1.233,0,0,1,1.233-1.232h18.9a1.233,1.233,0,0,1,1.233,1.232m37.8-25.686V103.53H4.93V29.723l.143-.143h25.3a2.478,2.478,0,0,0,2.492-2.465V4.93H73.95V40.9l4.93-4.92V2.465A2.465,2.465,0,0,0,76.415,0h-47.7a2.465,2.465,0,0,0-1.742.722L.722,26.958A2.466,2.466,0,0,0,0,28.7V106a2.464,2.464,0,0,0,2.465,2.465h73.95A2.464,2.464,0,0,0,78.88,106V42.933ZM27.883,6.784V24.65H10.006Z" fill="#5a5454"/>
    <path id="Path_5213" data-name="Path 5213" d="M53.575,80.787l-1.136-1.177a1.652,1.652,0,0,1,.021-2.3L97.361,32.5a1.642,1.642,0,0,1,2.343.021l1.136,1.176A1.655,1.655,0,0,1,100.819,36l-44.9,44.807a1.642,1.642,0,0,1-2.343-.021" transform="translate(-9.27 -5.71)" fill="#be2bbb"/>
  </g>
</svg>
