<svg xmlns="http://www.w3.org/2000/svg" xmlns:xlink="http://www.w3.org/1999/xlink" width="68" height="94" viewBox="0 0 68 94">
  <defs>
    <clipPath id="clip-path">
      <rect id="Rectangle_1940" data-name="Rectangle 1940" width="68" height="94" transform="translate(0 0)" fill="none"/>
    </clipPath>
  </defs>
  <g id="Group_1501" data-name="Group 1501" transform="translate(0 0)" clip-path="url(#clip-path)">
    <path id="Path_5237" data-name="Path 5237" d="M34.993,56.161H19.416A1.455,1.455,0,0,1,18,54.67V43.49A1.455,1.455,0,0,1,19.416,42H34.993a1.455,1.455,0,0,1,1.416,1.49V54.67a1.455,1.455,0,0,1-1.416,1.49M20.832,53.329H33.577v-8.5H20.832Z" transform="translate(-5.463 -12.294)" fill="#be2bbb"/>
    <path id="Path_5238" data-name="Path 5238" d="M65.847,8.5H53.811V2.124A2.164,2.164,0,0,0,51.608,0H16.363a2.164,2.164,0,0,0-2.2,2.124V8.5H2.124A2.124,2.124,0,0,0,0,10.621V91.337a2.124,2.124,0,0,0,2.124,2.124H65.847a2.124,2.124,0,0,0,2.124-2.124V10.621A2.124,2.124,0,0,0,65.847,8.5M18.409,4.248H49.562V16.993H18.409ZM63.723,89.212H4.248V12.745h9.912v6.372a2.165,2.165,0,0,0,2.2,2.124H51.608a2.165,2.165,0,0,0,2.2-2.124V12.745h9.912ZM54.165,32.57H40.712a1.062,1.062,0,0,1-1.062-1.062V30.8a1.062,1.062,0,0,1,1.062-1.062H54.165A1.062,1.062,0,0,1,55.227,30.8v.708a1.062,1.062,0,0,1-1.062,1.062m0,11.329a1.062,1.062,0,0,0,1.062-1.062v-.708a1.062,1.062,0,0,0-1.062-1.062H40.712a1.062,1.062,0,0,0-1.062,1.062v.708A1.062,1.062,0,0,0,40.712,43.9H54.165m-.037,11.329a1.081,1.081,0,0,0,1.1-1.062v-.708a1.081,1.081,0,0,0-1.1-1.062H13.844a1.081,1.081,0,0,0-1.1,1.062v.708a1.081,1.081,0,0,0,1.1,1.062H54.128m.037,11.329a1.062,1.062,0,0,0,1.062-1.062v-.708a1.062,1.062,0,0,0-1.062-1.062H13.807a1.062,1.062,0,0,0-1.062,1.062v.708a1.062,1.062,0,0,0,1.062,1.062H54.165m0,11.329a1.062,1.062,0,0,0,1.062-1.062v-.708a1.062,1.062,0,0,0-1.062-1.062H13.807a1.062,1.062,0,0,0-1.062,1.062v.708a1.062,1.062,0,0,0,1.062,1.062H54.165" transform="translate(-0.207 -0.031)" fill="#5a5454"/>
  </g>
</svg>
