<svg xmlns="http://www.w3.org/2000/svg" xmlns:xlink="http://www.w3.org/1999/xlink" width="79.357" height="71.361" viewBox="0 0 79.357 71.361">
  <defs>
    <clipPath id="clip-path">
      <rect id="Rectangle_1929" data-name="Rectangle 1929" width="79.357" height="71.361" fill="none"/>
    </clipPath>
  </defs>
  <g id="Group_1474" data-name="Group 1474" clip-path="url(#clip-path)">
    <path id="Path_5219" data-name="Path 5219" d="M77.827,0H1.81A1.726,1.726,0,0,0,0,1.628V54.794a1.726,1.726,0,0,0,1.81,1.628H33.785V68.357H21.719a1.151,1.151,0,0,0-1.207,1.085v1.085a1.151,1.151,0,0,0,1.207,1.085h36.2a1.151,1.151,0,0,0,1.207-1.085V69.442a1.151,1.151,0,0,0-1.207-1.085H45.851V56.422H77.827a1.726,1.726,0,0,0,1.81-1.628V1.628A1.726,1.726,0,0,0,77.827,0m-35.6,68.357H37.405V56.422h4.826ZM76.017,10.85h0v2.17h0V53.167H3.62V13.02h0V3.255h72.4ZM9.05,5.425a1.726,1.726,0,0,1,1.81,1.628A1.726,1.726,0,0,1,9.05,8.68,1.726,1.726,0,0,1,7.24,7.053,1.726,1.726,0,0,1,9.05,5.425m4.826,1.628a1.726,1.726,0,0,0,1.81,1.628A1.726,1.726,0,0,0,17.5,7.053a1.726,1.726,0,0,0-1.81-1.628,1.726,1.726,0,0,0-1.81,1.628m6.636,0a1.82,1.82,0,0,0,3.62,0,1.82,1.82,0,0,0-3.62,0" transform="translate(0)" fill="#5a5454"/>
    <path id="Path_5220" data-name="Path 5220" d="M6,20H78.4v2.17H6" transform="translate(-2.38 -9.15)" fill="#be2bbb"/>
  </g>
</svg>
