<svg id="clock_icn" xmlns="http://www.w3.org/2000/svg" width="132" height="132" viewBox="0 0 132 132">
  <path id="clock_arms" d="M62.048,73.278,34.7,50.89a2,2,0,0,1-.217-2.82l1.3-1.518a2,2,0,0,1,2.82-.217l25.24,20.579L101.172,30.44a2,2,0,0,1,2.829,0l1.413,1.413a2,2,0,0,1,0,2.829L66.122,73.122a3,3,0,0,1-4.074.156" fill="#007B98"/>
  <path id="clock_outline" d="M66,0a66,66,0,1,0,66,66A66.074,66.074,0,0,0,66,0m2,125.949V115.5a1.5,1.5,0,0,0-1.5-1.5h-1a1.5,1.5,0,0,0-1.5,1.5v10.449A60.054,60.054,0,0,1,6.051,68H16.5A1.5,1.5,0,0,0,18,66.5v-1A1.5,1.5,0,0,0,16.5,64H6.051A60.053,60.053,0,0,1,64,6.051V16.5A1.5,1.5,0,0,0,65.5,18h1A1.5,1.5,0,0,0,68,16.5V6.051A60.053,60.053,0,0,1,125.949,64H115.5a1.5,1.5,0,0,0-1.5,1.5v1a1.5,1.5,0,0,0,1.5,1.5h10.449A60.054,60.054,0,0,1,68,125.949" fill="#5a5454"/>
</svg>
