<svg xmlns="http://www.w3.org/2000/svg" width="87.792" height="53.18" viewBox="0 0 87.792 53.18">
  <g id="Group_27" data-name="Group 27" transform="translate(-3796.945 -4397.294)">
    <g id="Group_25" data-name="Group 25">
      <path id="Path_37" data-name="Path 37" d="M3863.966,4423.729l-16.787-11.626a6.228,6.228,0,0,0-7.082,10.247l18.179,12.6,1.157-1.786c-.024-.271-.037-.554-.037-.825l-17.637-12.231a3.429,3.429,0,0,1,1.885-6.318,3.325,3.325,0,0,1,1.958.616l16.763,11.614a1.381,1.381,0,0,0,1.97-.381,1.414,1.414,0,0,0-.369-1.91Z" fill="#fff"/>
      <path id="Path_38" data-name="Path 38" d="M3884.1,4442.389a1.393,1.393,0,0,1-1.921-.431l-15.753-24.6a4.977,4.977,0,0,0-1.687-1.638,5.163,5.163,0,0,0-2.624-.727h-2.611a2.532,2.532,0,0,0-1.823.776,2.5,2.5,0,0,0-.726,1.774v4.729l-2.784-1.909v-2.808c0-.2.025-.382.025-.591a5.3,5.3,0,0,1,1.379-3.03,5.427,5.427,0,0,1,1.909-1.318,5.062,5.062,0,0,1,2.02-.406h2.611a7.974,7.974,0,0,1,4.053,1.12,8.159,8.159,0,0,1,2.611,2.538l15.74,24.595A1.406,1.406,0,0,1,3884.1,4442.389Z" fill="#fff"/>
      <path id="Path_39" data-name="Path 39" d="M3856.666,4433.838v0l-.681-.473a1.685,1.685,0,0,1-.321.6l-.171.221a1.383,1.383,0,0,1-.568.469l2.058,1.413C3856.846,4435.355,3856.738,4434.614,3856.666,4433.838Zm2.164-1.388,0-.007a3.05,3.05,0,0,1-.046-.314c-.014-.083-.034-.155-.048-.249l0-.01-12.043-8.349h-.005a1.25,1.25,0,0,0-.2.035l-.009,0a4.39,4.39,0,0,0-2.575,1.427l0,0c-.037.014-.06.06-.1.1a4.673,4.673,0,0,0-.589.871l0,0a4.663,4.663,0,0,0,1.367,5.863l6.726,4.95a4.416,4.416,0,0,0,3.073.887h.042a2.565,2.565,0,0,0,.309-.037,4.307,4.307,0,0,0,2.3-1.06l.046-.034a1.849,1.849,0,0,0,.238-.224l.005-.005a2.664,2.664,0,0,0,.364-.4l.174-.208a3.5,3.5,0,0,0,.528-.9l.014-.03A4.629,4.629,0,0,0,3858.83,4432.45Zm-5.874,2.08-6.712-4.962a1.785,1.785,0,0,1-.753-1.256,1.933,1.933,0,0,1,.432-1.417,1.768,1.768,0,0,1,.314-.289l.007-.007a1.422,1.422,0,0,1,.369-.21,1.577,1.577,0,0,1,.566-.148,1.8,1.8,0,0,1,1.193.321l6.886,4.754a1.824,1.824,0,0,1,.776,1.245,1.975,1.975,0,0,1-.049.8,1.685,1.685,0,0,1-.321.6l-.171.221a1.383,1.383,0,0,1-.568.469A1.815,1.815,0,0,1,3852.956,4434.53Z" fill="#fff"/>
      <path id="Path_40" data-name="Path 40" d="M3860.026,4439.938a4.685,4.685,0,0,0-1.947-3.117l-3.154-2.166a1.815,1.815,0,0,1-1.969-.125l-4.4-3.251a4.66,4.66,0,0,0-3.1,1.182l0,0a5.68,5.68,0,0,0-.4.429,4.545,4.545,0,0,0-1.072,3.547,4.688,4.688,0,0,0,1.836,3.191l6.712,4.95a4.619,4.619,0,0,0,6.405-.875l.171-.2a3.33,3.33,0,0,0,.406-.628.945.945,0,0,0,.051-.1A4.714,4.714,0,0,0,3860.026,4439.938Zm-3.117,1.847-.174.222a1.867,1.867,0,0,1-2.56.332l-6.7-4.95a1.851,1.851,0,0,1-.739-1.27,1.909,1.909,0,0,1,.432-1.4,1.745,1.745,0,0,1,.66-.5l.005,0a2.074,2.074,0,0,1,.591-.148,1.97,1.97,0,0,1,1.194.307l6.885,4.754a1.868,1.868,0,0,1,.776,1.245A1.829,1.829,0,0,1,3856.909,4441.785Z" fill="#fff"/>
      <path id="Path_41" data-name="Path 41" d="M3869.758,4449.517a1.406,1.406,0,0,1-1.963.808,20.189,20.189,0,0,1-11.129-16.487c-.029-.316-.055-.631-.055-.965l2.784-.538c0,.278.018.557.037.835a17.847,17.847,0,0,0,9.647,14.652A1.4,1.4,0,0,1,3869.758,4449.517Z" fill="#fff"/>
      <path id="Path_42" data-name="Path 42" d="M3854.975,4408.728a4.29,4.29,0,0,0-2.858-1.638L3835.6,4405a4.272,4.272,0,0,0-3.178.85,4.363,4.363,0,0,0-1.613,2.857l-1.429,11.159a4.308,4.308,0,0,0,3.72,4.8l16.516,2.106a2.788,2.788,0,0,0,.554.037,3.239,3.239,0,0,0,1.035-.148l-4.409-3.067-13.351-1.687a1.5,1.5,0,0,1-1.294-1.688l1.4-11.159a1.489,1.489,0,0,1,.579-1,1.534,1.534,0,0,1,.924-.32.459.459,0,0,1,.185.024l16.529,2.094a1.469,1.469,0,0,1,1,.579,1.418,1.418,0,0,1,.3,1.108l-.924,7.39,2.562,1.774,1.133-8.806A4.3,4.3,0,0,0,3854.975,4408.728Z" fill="#fff"/>
    </g>
    <g id="Group_26" data-name="Group 26">
      <path id="Path_43" data-name="Path 43" d="M3818.632,4414.484c0,.021,0,.042,0,.064a10,10,0,0,0,1.9,5.863,6.77,6.77,0,0,0,.439.571,1.814,1.814,0,1,0,2.7-2.419s-.021-.025-.053-.066l.007-.007.014.014a2.122,2.122,0,0,1-.17-.208,6.609,6.609,0,0,1,0-7.619,2.664,2.664,0,0,1,.171-.21l-.014.014-.007-.007c.032-.041.053-.065.053-.065a1.814,1.814,0,1,0-2.7-2.418,6.8,6.8,0,0,0-.44.572,10.009,10.009,0,0,0-1.895,5.86Z" fill="#fff"/>
      <path id="Path_44" data-name="Path 44" d="M3815.962,4404.218a1.781,1.781,0,0,1,1.413,2.862,13.228,13.228,0,0,0-2.045,7.346,14.552,14.552,0,0,0,2.083,7.641,1.78,1.78,0,0,1-2.9,2.06,17.825,17.825,0,0,1-2.74-9.7,16.525,16.525,0,0,1,2.776-9.508A1.78,1.78,0,0,1,3815.962,4404.218Z" fill="#fff"/>
      <path id="Path_45" data-name="Path 45" d="M3809.431,4400.82a1.782,1.782,0,0,1,1.425,2.847,19.452,19.452,0,0,0-2.94,10.712,21.038,21.038,0,0,0,2.977,11.1,1.781,1.781,0,0,1-2.927,2.03,24.521,24.521,0,0,1-3.611-13.131,22.623,22.623,0,0,1,3.648-12.844A1.781,1.781,0,0,1,3809.431,4400.82Z" fill="#fff"/>
      <path id="Path_46" data-name="Path 46" d="M3802.993,4397.294a1.78,1.78,0,0,1,1.426,2.846,25.688,25.688,0,0,0-3.913,14.189,28.119,28.119,0,0,0,3.952,14.681,1.78,1.78,0,0,1-2.928,2.026,31.156,31.156,0,0,1-4.585-16.707c0-10.019,4.432-16.068,4.621-16.32A1.775,1.775,0,0,1,3802.993,4397.294Z" fill="#fff"/>
    </g>
  </g>
</svg>
