<svg xmlns="http://www.w3.org/2000/svg" width="27.188" height="34.507" viewBox="0 0 27.188 34.507">
  <g id="Group_119" data-name="Group 119" transform="translate(-1163.278 -3325.704)">
    <path id="Path_172" data-name="Path 172" d="M1184.965,3342.894c0,.021,0,.042,0,.065a10,10,0,0,0,1.9,5.862,6.845,6.845,0,0,0,.439.571,1.814,1.814,0,0,0,2.7-2.419s-.021-.025-.053-.066l.007-.007.014.014a2.127,2.127,0,0,1-.17-.208,6.609,6.609,0,0,1,0-7.619,2.619,2.619,0,0,1,.171-.21l-.014.014-.007-.007c.032-.041.053-.065.053-.065a1.814,1.814,0,1,0-2.705-2.418,6.958,6.958,0,0,0-.44.572,10.01,10.01,0,0,0-1.9,5.86Z" fill="#267148"/>
    <path id="Path_173" data-name="Path 173" d="M1182.3,3332.628a1.781,1.781,0,0,1,1.413,2.862,13.228,13.228,0,0,0-2.045,7.346,14.553,14.553,0,0,0,2.083,7.641,1.78,1.78,0,0,1-2.9,2.06,17.829,17.829,0,0,1-2.74-9.7,16.512,16.512,0,0,1,2.777-9.508A1.776,1.776,0,0,1,1182.3,3332.628Z" fill="#267148"/>
    <path id="Path_174" data-name="Path 174" d="M1175.764,3329.23a1.782,1.782,0,0,1,1.425,2.847,19.456,19.456,0,0,0-2.94,10.712,21.038,21.038,0,0,0,2.977,11.1,1.781,1.781,0,0,1-2.926,2.03,24.5,24.5,0,0,1-3.612-13.131,22.618,22.618,0,0,1,3.648-12.843A1.779,1.779,0,0,1,1175.764,3329.23Z" fill="#267148"/>
    <path id="Path_175" data-name="Path 175" d="M1169.326,3325.7a1.78,1.78,0,0,1,1.426,2.846,25.7,25.7,0,0,0-3.913,14.189,28.121,28.121,0,0,0,3.952,14.681,1.78,1.78,0,0,1-2.928,2.026,31.155,31.155,0,0,1-4.585-16.707c0-10.019,4.433-16.068,4.621-16.32A1.777,1.777,0,0,1,1169.326,3325.7Z" fill="#267148"/>
  </g>
</svg>
