<svg xmlns="http://www.w3.org/2000/svg" width="27.188" height="34.507" viewBox="0 0 27.188 34.507">
  <g id="Group_116" data-name="Group 116" transform="translate(-110.639 -3301.819)">
    <path id="Path_160" data-name="Path 160" d="M132.327,3319.009c0,.021,0,.043,0,.065a10.014,10.014,0,0,0,1.9,5.863,6.558,6.558,0,0,0,.44.57,1.814,1.814,0,0,0,2.7-2.419s-.022-.024-.054-.065l.008-.008.014.014a1.912,1.912,0,0,1-.17-.207,6.606,6.606,0,0,1,0-7.619,2.191,2.191,0,0,1,.172-.21l-.014.014-.008-.007c.032-.041.054-.066.054-.066a1.814,1.814,0,0,0-2.705-2.418,6.608,6.608,0,0,0-.441.573,10.013,10.013,0,0,0-1.894,5.859Z" fill="#671112"/>
    <path id="Path_161" data-name="Path 161" d="M129.656,3308.744a1.779,1.779,0,0,1,1.413,2.861,13.244,13.244,0,0,0-2.044,7.347,14.577,14.577,0,0,0,2.082,7.641,1.78,1.78,0,0,1-2.9,2.059,17.832,17.832,0,0,1-2.739-9.7,16.527,16.527,0,0,1,2.776-9.509A1.778,1.778,0,0,1,129.656,3308.744Z" fill="#671112"/>
    <path id="Path_162" data-name="Path 162" d="M123.126,3305.346a1.78,1.78,0,0,1,1.424,2.846,19.466,19.466,0,0,0-2.94,10.712,21.039,21.039,0,0,0,2.977,11.1,1.781,1.781,0,1,1-2.926,2.03,24.5,24.5,0,0,1-3.612-13.131,22.615,22.615,0,0,1,3.649-12.843A1.777,1.777,0,0,1,123.126,3305.346Z" fill="#671112"/>
    <path id="Path_163" data-name="Path 163" d="M116.688,3301.819a1.781,1.781,0,0,1,1.425,2.846,25.7,25.7,0,0,0-3.913,14.189,28.107,28.107,0,0,0,3.953,14.682,1.78,1.78,0,0,1-2.928,2.026,31.153,31.153,0,0,1-4.586-16.708c0-10.019,4.433-16.068,4.622-16.32A1.776,1.776,0,0,1,116.688,3301.819Z" fill="#671112"/>
  </g>
</svg>
