<svg xmlns="http://www.w3.org/2000/svg" width="27.188" height="34.507" viewBox="0 0 27.188 34.507">
  <g id="Group_117" data-name="Group 117" transform="translate(-456.574 -3325.704)">
    <path id="Path_164" data-name="Path 164" d="M478.262,3342.894c0,.021,0,.042,0,.065a10.01,10.01,0,0,0,1.9,5.862,6.725,6.725,0,0,0,.44.571,1.814,1.814,0,0,0,2.7-2.419l-.054-.066.008-.007.014.014a1.978,1.978,0,0,1-.17-.208,6.6,6.6,0,0,1,0-7.619,2.4,2.4,0,0,1,.171-.21l-.014.014-.008-.007c.033-.041.054-.065.054-.065a1.814,1.814,0,0,0-2.7-2.418,6.943,6.943,0,0,0-.44.572,10.01,10.01,0,0,0-1.9,5.86Z" fill="#c06005"/>
    <path id="Path_165" data-name="Path 165" d="M475.592,3332.628a1.781,1.781,0,0,1,1.413,2.862,13.228,13.228,0,0,0-2.045,7.346,14.569,14.569,0,0,0,2.082,7.641,1.78,1.78,0,0,1-2.9,2.06,17.843,17.843,0,0,1-2.739-9.7,16.525,16.525,0,0,1,2.776-9.508A1.777,1.777,0,0,1,475.592,3332.628Z" fill="#c06005"/>
    <path id="Path_166" data-name="Path 166" d="M469.061,3329.23a1.782,1.782,0,0,1,1.425,2.847,19.452,19.452,0,0,0-2.941,10.712,21.048,21.048,0,0,0,2.977,11.1,1.781,1.781,0,0,1-2.926,2.03,24.513,24.513,0,0,1-3.612-13.131,22.615,22.615,0,0,1,3.649-12.843A1.779,1.779,0,0,1,469.061,3329.23Z" fill="#c06005"/>
    <path id="Path_167" data-name="Path 167" d="M462.623,3325.7a1.78,1.78,0,0,1,1.425,2.846,25.7,25.7,0,0,0-3.912,14.189,28.11,28.11,0,0,0,3.952,14.681,1.78,1.78,0,0,1-2.928,2.026,31.151,31.151,0,0,1-4.586-16.707c0-10.019,4.433-16.068,4.622-16.32A1.776,1.776,0,0,1,462.623,3325.7Z" fill="#c06005"/>
  </g>
</svg>
