<svg xmlns="http://www.w3.org/2000/svg" width="27.188" height="34.507" viewBox="0 0 27.188 34.507">
  <g id="Group_118" data-name="Group 118" transform="translate(-803.902 -3325.704)">
    <path id="Path_168" data-name="Path 168" d="M825.59,3342.894c0,.021,0,.042,0,.065a10.01,10.01,0,0,0,1.9,5.862,6.494,6.494,0,0,0,.44.571,1.814,1.814,0,0,0,2.7-2.419s-.022-.025-.054-.066l.008-.007.013.014a2.221,2.221,0,0,1-.169-.208,6.606,6.606,0,0,1,0-7.619c.092-.125.16-.2.171-.21l-.013.014-.008-.007c.032-.041.054-.065.054-.065a1.814,1.814,0,0,0-2.705-2.418,6.576,6.576,0,0,0-.441.572,10.011,10.011,0,0,0-1.894,5.86Z" fill="#225c6e"/>
    <path id="Path_169" data-name="Path 169" d="M822.919,3332.628a1.78,1.78,0,0,1,1.413,2.862,13.233,13.233,0,0,0-2.044,7.346,14.569,14.569,0,0,0,2.082,7.641,1.78,1.78,0,0,1-2.9,2.06,17.843,17.843,0,0,1-2.739-9.7,16.525,16.525,0,0,1,2.776-9.508A1.776,1.776,0,0,1,822.919,3332.628Z" fill="#225c6e"/>
    <path id="Path_170" data-name="Path 170" d="M816.389,3329.23a1.782,1.782,0,0,1,1.424,2.847,19.466,19.466,0,0,0-2.94,10.712,21.048,21.048,0,0,0,2.977,11.1,1.781,1.781,0,0,1-2.926,2.03,24.5,24.5,0,0,1-3.612-13.131,22.615,22.615,0,0,1,3.649-12.843A1.778,1.778,0,0,1,816.389,3329.23Z" fill="#225c6e"/>
    <path id="Path_171" data-name="Path 171" d="M809.951,3325.7a1.78,1.78,0,0,1,1.425,2.846,25.7,25.7,0,0,0-3.913,14.189,28.122,28.122,0,0,0,3.952,14.681,1.78,1.78,0,0,1-2.927,2.026,31.151,31.151,0,0,1-4.586-16.707c0-10.019,4.433-16.068,4.622-16.32A1.776,1.776,0,0,1,809.951,3325.7Z" fill="#225c6e"/>
  </g>
</svg>
