<svg xmlns="http://www.w3.org/2000/svg" xmlns:xlink="http://www.w3.org/1999/xlink" width="1963.013" height="1113.665" viewBox="0 0 1963.013 1113.665">
  <defs>
    <clipPath id="clip-path">
      <rect id="Rectangle_1423" data-name="Rectangle 1423" width="1957.72" height="842.826" fill="none"/>
    </clipPath>
    <linearGradient id="linear-gradient" x1="0.263" y1="-0.1" x2="0.918" y2="1" gradientUnits="objectBoundingBox">
      <stop offset="0" stop-color="#373231"/>
      <stop offset="1" stop-color="#453838"/>
    </linearGradient>
    <filter id="Rectangle_638" x="428.293" y="557.123" width="118" height="74" filterUnits="userSpaceOnUse">
      <feOffset dy="3" input="SourceAlpha"/>
      <feGaussianBlur stdDeviation="3" result="blur"/>
      <feFlood flood-color="#595454" flood-opacity="0.2"/>
      <feComposite operator="in" in2="blur"/>
      <feComposite in="SourceGraphic"/>
    </filter>
    <filter id="Rectangle_638-2" x="1094.293" y="557.123" width="118" height="74" filterUnits="userSpaceOnUse">
      <feOffset dy="3" input="SourceAlpha"/>
      <feGaussianBlur stdDeviation="3" result="blur-2"/>
      <feFlood flood-color="#595454" flood-opacity="0.2"/>
      <feComposite operator="in" in2="blur-2"/>
      <feComposite in="SourceGraphic"/>
    </filter>
    <filter id="Rectangle_638-3" x="757.293" y="557.123" width="118" height="74" filterUnits="userSpaceOnUse">
      <feOffset dy="3" input="SourceAlpha"/>
      <feGaussianBlur stdDeviation="3" result="blur-3"/>
      <feFlood flood-color="#595454" flood-opacity="0.2"/>
      <feComposite operator="in" in2="blur-3"/>
      <feComposite in="SourceGraphic"/>
    </filter>
  </defs>
  <g id="Doors_Component" data-name="Doors Component" transform="translate(15.293 17.123)">
    <path id="Background" d="M0,0H1932.2V984.848H0Z" transform="translate(-14.793 -16.623)" fill="#c0f2fb" stroke="#595454" stroke-width="1" opacity="0.196"/>
    <g id="Objects" transform="translate(-10 156.498)">
      <rect id="Rectangle_1410" data-name="Rectangle 1410" width="359.694" height="330.247" transform="translate(1366.261 151.114)" fill="#fff"/>
      <path id="Path_4397" data-name="Path 4397" d="M1759.9,489.511H1384.558V148.977H1759.9Zm-362.777-9.739h350.212V158.716H1397.123Z" transform="translate(-25.001 -2.69)" fill="#ede7e7"/>
      <rect id="Rectangle_1411" data-name="Rectangle 1411" width="12.565" height="327.88" transform="translate(1540.946 152.614)" fill="#ede7e7"/>
      <rect id="Rectangle_1412" data-name="Rectangle 1412" width="182.19" height="3.246" transform="translate(1365.509 250.329)" fill="#ede7e7"/>
      <rect id="Rectangle_1413" data-name="Rectangle 1413" width="182.19" height="3.246" transform="translate(1365.509 371.094)" fill="#ede7e7"/>
      <rect id="Rectangle_1414" data-name="Rectangle 1414" width="182.19" height="3.246" transform="translate(1547.175 250.329)" fill="#ede7e7"/>
      <rect id="Rectangle_1415" data-name="Rectangle 1415" width="182.19" height="3.246" transform="translate(1547.175 371.094)" fill="#ede7e7"/>
      <rect id="Rectangle_1416" data-name="Rectangle 1416" width="4.189" height="330.045" transform="translate(1455.38 152.046)" fill="#ede7e7"/>
      <rect id="Rectangle_1417" data-name="Rectangle 1417" width="4.189" height="330.045" transform="translate(1636.523 152.046)" fill="#ede7e7"/>
      <rect id="Rectangle_1418" data-name="Rectangle 1418" width="63.983" height="23.634" transform="translate(141.096 630.417)" fill="#ede7e7"/>
      <rect id="Rectangle_1419" data-name="Rectangle 1419" width="63.983" height="23.634" transform="translate(141.096 630.417)" fill="none" stroke="#595454" stroke-linecap="round" stroke-linejoin="round" stroke-width="0.519"/>
      <rect id="Rectangle_1420" data-name="Rectangle 1420" width="90.175" height="10.049" transform="translate(128 749.117)" fill="#ede7e7"/>
      <rect id="Rectangle_1421" data-name="Rectangle 1421" width="90.175" height="10.049" transform="translate(128 749.117)" fill="none" stroke="#595454" stroke-linecap="round" stroke-linejoin="round" stroke-width="0.519"/>
      <g id="Group_1215" data-name="Group 1215">
        <g id="Group_1214" data-name="Group 1214" clip-path="url(#clip-path)">
          <path id="Path_4398" data-name="Path 4398" d="M118.807,854.218h0c-2.345,0-4.195-1.577-4.015-3.424L134.663,645H154.2L122.8,851.415c-.244,1.6-1.96,2.8-4,2.8" transform="translate(-2.073 -11.647)" fill="#ede7e7"/>
          <path id="Path_4399" data-name="Path 4399" d="M118.807,854.218h0c-2.345,0-4.195-1.577-4.015-3.424L134.663,645H154.2L122.8,851.415C122.561,853.015,120.844,854.218,118.807,854.218Z" transform="translate(-2.073 -11.647)" fill="none" stroke="#595454" stroke-linecap="round" stroke-linejoin="round" stroke-width="0.519"/>
          <path id="Path_4400" data-name="Path 4400" d="M233.042,854.218h0c2.345,0,4.194-1.577,4.016-3.424L217.187,645H197.652l31.392,206.416c.244,1.6,1.96,2.8,4,2.8" transform="translate(-3.569 -11.647)" fill="#ede7e7"/>
          <path id="Path_4401" data-name="Path 4401" d="M233.042,854.218h0c2.345,0,4.194-1.577,4.016-3.424L217.187,645H197.652l31.392,206.416C229.287,853.015,231,854.218,233.042,854.218Z" transform="translate(-3.569 -11.647)" fill="none" stroke="#595454" stroke-linecap="round" stroke-linejoin="round" stroke-width="0.519"/>
          <path id="Path_4402" data-name="Path 4402" d="M217.557,647.7H133.034a11.655,11.655,0,0,1-11.655-11.655v-.935a11.655,11.655,0,0,1,11.655-11.655h84.524a11.655,11.655,0,0,1,11.655,11.655v.935A11.655,11.655,0,0,1,217.557,647.7" transform="translate(-2.192 -11.258)" fill="#a59f9f"/>
          <rect id="Rectangle_1422" data-name="Rectangle 1422" width="107.833" height="24.244" rx="11.869" transform="translate(119.187 612.199)" fill="none" stroke="#ede7e7" stroke-linecap="round" stroke-linejoin="round" stroke-width="0.519"/>
          <path id="Path_4403" data-name="Path 4403" d="M1435.554,854.87h0a5.479,5.479,0,0,0,5.055-4.005l17.922-53.709H1441.52l-9.414,53.731a3.362,3.362,0,0,0,3.448,3.984" transform="translate(-25.858 -14.394)" fill="#a59f9f"/>
          <path id="Path_4404" data-name="Path 4404" d="M1435.554,854.87h0a5.479,5.479,0,0,0,5.055-4.005l17.922-53.709H1441.52l-9.414,53.731A3.362,3.362,0,0,0,1435.554,854.87Z" transform="translate(-25.858 -14.394)" fill="none" stroke="#a59f9f" stroke-linecap="round" stroke-linejoin="round" stroke-width="0.636"/>
          <path id="Path_4405" data-name="Path 4405" d="M1922.266,854.87h0a5.478,5.478,0,0,1-5.055-4.005l-17.922-53.709H1916.3l9.414,53.731a3.362,3.362,0,0,1-3.448,3.984" transform="translate(-34.295 -14.394)" fill="#a59f9f"/>
          <path id="Path_4406" data-name="Path 4406" d="M1922.266,854.87h0a5.478,5.478,0,0,1-5.055-4.005l-17.922-53.709H1916.3l9.414,53.731A3.362,3.362,0,0,1,1922.266,854.87Z" transform="translate(-34.295 -14.394)" fill="none" stroke="#a59f9f" stroke-linecap="round" stroke-linejoin="round" stroke-width="0.636"/>
          <path id="Path_4407" data-name="Path 4407" d="M1927.027,727.373V591.97a44.041,44.041,0,0,0-44.041-44.041H1718.452a44.042,44.042,0,0,0-43.943,41.12,44.041,44.041,0,0,0-43.942-41.12H1466.032a44.041,44.041,0,0,0-44.041,44.041v135.4Z" transform="translate(-25.677 -9.894)" fill="#ccc8c8"/>
          <path id="Path_4408" data-name="Path 4408" d="M1927.027,727.373V591.97a44.041,44.041,0,0,0-44.041-44.041H1718.452a44.042,44.042,0,0,0-43.943,41.12,44.041,44.041,0,0,0-43.942-41.12H1466.032a44.041,44.041,0,0,0-44.041,44.041v135.4Z" transform="translate(-25.677 -9.894)" fill="none" stroke="#a84599" stroke-linecap="round" stroke-linejoin="round" stroke-width="2"/>
          <path id="Path_4409" data-name="Path 4409" d="M1916.115,657.556v71.209H1430.867V657.556a32.641,32.641,0,1,0-65.282,0v92.276a44.213,44.213,0,0,0,44.214,44.213h527.384a44.213,44.213,0,0,0,44.213-44.213V657.556a32.64,32.64,0,1,0-65.281,0" transform="translate(-24.658 -11.284)" fill="#ccc8c8"/>
          <path id="Path_4410" data-name="Path 4410" d="M1916.115,657.556v71.209H1430.867V657.556a32.641,32.641,0,1,0-65.282,0v92.276a44.213,44.213,0,0,0,44.214,44.213h527.384a44.213,44.213,0,0,0,44.213-44.213V657.556a32.64,32.64,0,1,0-65.281,0Z" transform="translate(-24.658 -11.284)" fill="none" stroke="#a84599" stroke-linecap="round" stroke-linejoin="round" stroke-width="2"/>
          <path id="Path_4411" data-name="Path 4411" d="M1454.866,698.982h439.651a22.8,22.8,0,0,1,22.8,22.8v8.32H1432.067v-8.32a22.8,22.8,0,0,1,22.8-22.8" transform="translate(-25.858 -12.621)" fill="#ccc8c8"/>
          <path id="Path_4412" data-name="Path 4412" d="M1454.866,698.982h439.651a22.8,22.8,0,0,1,22.8,22.8v8.32H1432.067v-8.32A22.8,22.8,0,0,1,1454.866,698.982Z" transform="translate(-25.858 -12.621)" fill="none" stroke="#a84599" stroke-linecap="round" stroke-linejoin="round" stroke-width="2"/>
          <line id="Line_450" data-name="Line 450" y2="107.206" transform="translate(1648.833 579.156)" fill="#ede7e7"/>
          <line id="Line_451" data-name="Line 451" y2="107.206" transform="translate(1648.833 579.156)" fill="none" stroke="#595454" stroke-linecap="round" stroke-linejoin="round" stroke-width="0.636"/>
        </g>
      </g>
      <g id="Group_1217" data-name="Group 1217">
        <g id="Group_1216" data-name="Group 1216" clip-path="url(#clip-path)">
          <path id="Path_4413" data-name="Path 4413" d="M1564.372,1.5H147.65a.1.1,0,0,0-.049,0H4.031a2.531,2.531,0,1,0,0,5.063h141.06v56L80.016,103.611a2.533,2.533,0,0,0,1.352,4.677h45.319a21.089,21.089,0,0,0,41.875,0h45.32a2.535,2.535,0,0,0,1.351-4.677L171.821,76.233a2.512,2.512,0,0,0-.816-.515l-20.85-13.15v-56H569.478v56L504.4,103.611a2.534,2.534,0,0,0,1.349,4.677h45.32a21.088,21.088,0,0,0,41.874,0h45.32a2.532,2.532,0,0,0,1.348-4.677l-43.4-27.37a2.513,2.513,0,0,0-.835-.525L574.543,62.573V6.566H993.861V62.573l-65.073,41.038a2.533,2.533,0,0,0,1.352,4.677h45.317a21.089,21.089,0,0,0,41.876,0h45.321a2.533,2.533,0,0,0,1.346-4.677l-43.392-27.365a2.516,2.516,0,0,0-.842-.531L998.929,62.574V6.566h419.317V62.574l-65.077,41.035a2.536,2.536,0,0,0,1.356,4.679h45.317a21.088,21.088,0,0,0,41.874,0h45.321a2.535,2.535,0,0,0,1.348-4.679l-43.4-27.367a2.528,2.528,0,0,0-.835-.527l-20.841-13.141V6.566h141.06a2.531,2.531,0,1,0,0-5.063M147.621,66.962l13.6,8.579h-27.2Zm0,54.831a16.044,16.044,0,0,1-15.814-13.5h31.629a16.048,16.048,0,0,1-15.815,13.5M90.131,103.222,125.992,80.6h43.26l35.863,22.618Zm481.878-36.26,13.6,8.579h-27.2Zm0,54.831a16.046,16.046,0,0,1-15.816-13.5h31.63a16.045,16.045,0,0,1-15.814,13.5m-57.493-18.571,35.859-22.615h43.267L629.5,103.222ZM996.392,66.964l13.6,8.577h-27.2Zm0,54.829a16.048,16.048,0,0,1-15.817-13.5h31.631a16.046,16.046,0,0,1-15.814,13.5m-57.5-18.571L974.764,80.6h43.256l35.863,22.618Zm481.876-36.258,13.6,8.577h-27.2Zm0,54.829a16.038,16.038,0,0,1-15.812-13.5h31.626a16.042,16.042,0,0,1-15.814,13.5m-57.49-18.571,35.858-22.615h43.263l35.86,22.615Z" transform="translate(-0.027 -0.027)" fill="#a59f9f"/>
          <path id="Path_4414" data-name="Path 4414" d="M1564.372,1.5H147.65a.1.1,0,0,0-.049,0H4.031a2.531,2.531,0,1,0,0,5.063h141.06v56L80.016,103.611a2.533,2.533,0,0,0,1.352,4.677h45.319a21.089,21.089,0,0,0,41.875,0h45.32a2.535,2.535,0,0,0,1.351-4.677L171.821,76.233a2.512,2.512,0,0,0-.816-.515l-20.85-13.15v-56H569.478v56L504.4,103.611a2.534,2.534,0,0,0,1.349,4.677h45.32a21.088,21.088,0,0,0,41.874,0h45.32a2.532,2.532,0,0,0,1.348-4.677l-43.4-27.37a2.513,2.513,0,0,0-.835-.525L574.543,62.573V6.566H993.861V62.573l-65.073,41.038a2.533,2.533,0,0,0,1.352,4.677h45.317a21.089,21.089,0,0,0,41.876,0h45.321a2.533,2.533,0,0,0,1.346-4.677l-43.392-27.365a2.516,2.516,0,0,0-.842-.531L998.929,62.574V6.566h419.317V62.574l-65.077,41.035a2.536,2.536,0,0,0,1.356,4.679h45.317a21.088,21.088,0,0,0,41.874,0h45.321a2.535,2.535,0,0,0,1.348-4.679l-43.4-27.367a2.528,2.528,0,0,0-.835-.527l-20.841-13.141V6.566h141.06a2.531,2.531,0,1,0,0-5.063ZM147.621,66.962l13.6,8.579h-27.2Zm0,54.831a16.044,16.044,0,0,1-15.814-13.5h31.629A16.048,16.048,0,0,1,147.624,121.793ZM90.131,103.222,125.992,80.6h43.26l35.863,22.618Zm481.878-36.26,13.6,8.579h-27.2Zm0,54.831a16.046,16.046,0,0,1-15.816-13.5h31.63A16.045,16.045,0,0,1,572.009,121.793Zm-57.493-18.571,35.859-22.615h43.267L629.5,103.222ZM996.392,66.964l13.6,8.577h-27.2Zm0,54.829a16.048,16.048,0,0,1-15.817-13.5h31.631A16.046,16.046,0,0,1,996.4,121.793Zm-57.5-18.571L974.764,80.6h43.256l35.863,22.618Zm481.876-36.258,13.6,8.577h-27.2Zm0,54.829a16.038,16.038,0,0,1-15.812-13.5h31.626A16.042,16.042,0,0,1,1420.777,121.793Zm-57.49-18.571,35.858-22.615h43.263l35.86,22.615Z" transform="translate(-0.027 -0.027)" fill="none" stroke="#edf7f7" stroke-width="3"/>
          <path id="Path_4415" data-name="Path 4415" d="M207.915,511.481c0,33.749-14.175,56.689-31.662,56.689S144.59,545.23,144.59,511.481s14.175-56.689,31.663-56.689,31.662,22.939,31.662,56.689" transform="translate(-2.611 -8.212)" fill="#fff"/>
          <path id="Path_4416" data-name="Path 4416" d="M207.915,511.481c0,33.749-14.175,56.689-31.662,56.689S144.59,545.23,144.59,511.481s14.175-56.689,31.663-56.689S207.915,477.731,207.915,511.481Z" transform="translate(-2.611 -8.212)" fill="none" stroke="#be2bbb" stroke-linecap="round" stroke-linejoin="round" stroke-width="1.04"/>
          <ellipse id="Ellipse_62" data-name="Ellipse 62" cx="19.66" cy="56.689" rx="19.66" ry="56.689" transform="translate(153.982 446.58)" fill="none" stroke="#be2bbb" stroke-linecap="round" stroke-linejoin="round" stroke-width="1.04"/>
          <ellipse id="Ellipse_63" data-name="Ellipse 63" cx="6.894" cy="56.689" rx="6.894" ry="56.689" transform="translate(166.748 446.58)" fill="none" stroke="#be2bbb" stroke-linecap="round" stroke-linejoin="round" stroke-width="1.04"/>
          <path id="Path_4417" data-name="Path 4417" d="M210.223,442.2c11.932-11.932,25.487-14.6,32.2-7.881s4.051,20.272-7.88,32.2-25.487,14.6-32.2,7.88-4.052-20.272,7.881-32.2" transform="translate(-3.588 -7.777)" fill="#fff"/>
          <path id="Path_4418" data-name="Path 4418" d="M210.223,442.2c11.932-11.932,25.487-14.6,32.2-7.881s4.051,20.272-7.88,32.2-25.487,14.6-32.2,7.88S198.29,454.127,210.223,442.2Z" transform="translate(-3.588 -7.777)" fill="none" stroke="#be2bbb" stroke-linecap="round" stroke-linejoin="round" stroke-width="1.04"/>
          <path id="Path_4419" data-name="Path 4419" d="M218.195,450.168c11.932-11.932,21.944-18.14,24.289-15.8s-3.863,12.358-15.795,24.29-21.944,18.14-24.29,15.795S206.263,462.1,218.195,450.168Z" transform="translate(-3.646 -7.834)" fill="none" stroke="#be2bbb" stroke-linecap="round" stroke-linejoin="round" stroke-width="1.04"/>
          <path id="Path_4420" data-name="Path 4420" d="M193.718,425.4c0,16.875-7.7,28.344-17.2,28.345s-17.2-11.47-17.2-28.345,7.7-28.345,17.2-28.345,17.2,11.47,17.2,28.345" transform="translate(-2.877 -7.17)" fill="#fff"/>
          <path id="Path_4421" data-name="Path 4421" d="M193.718,425.4c0,16.875-7.7,28.344-17.2,28.345s-17.2-11.47-17.2-28.345,7.7-28.345,17.2-28.345S193.718,408.53,193.718,425.4Z" transform="translate(-2.877 -7.17)" fill="none" stroke="#be2bbb" stroke-linecap="round" stroke-linejoin="round" stroke-width="1.04"/>
          <path id="Path_4422" data-name="Path 4422" d="M182.731,425.4c0,16.875-2.69,28.344-6.007,28.345s-6.007-11.47-6.007-28.345,2.69-28.345,6.007-28.345S182.731,408.53,182.731,425.4Z" transform="translate(-3.083 -7.17)" fill="none" stroke="#be2bbb" stroke-linecap="round" stroke-linejoin="round" stroke-width="1.04"/>
          <path id="Path_4423" data-name="Path 4423" d="M179.794,617.169h-7.068a27.75,27.75,0,0,1-27.749-27.75V556.334h62.565V589.42a27.749,27.749,0,0,1-27.749,27.75" transform="translate(-2.618 -10.046)" fill="#c3e8f5"/>
          <path id="Path_4424" data-name="Path 4424" d="M179.794,617.169h-7.068a27.75,27.75,0,0,1-27.749-27.75V556.334h62.565V589.42A27.749,27.749,0,0,1,179.794,617.169Z" transform="translate(-2.618 -10.046)" fill="none" stroke="#595454" stroke-linecap="round" stroke-linejoin="round" stroke-width="1.04"/>
          <line id="Line_452" data-name="Line 452" x2="61.475" transform="translate(142.905 559.957)" fill="#fff"/>
          <line id="Line_453" data-name="Line 453" x2="61.475" transform="translate(142.905 559.957)" fill="none" stroke="#595454" stroke-miterlimit="10" stroke-width="1.04"/>
          <path id="Path_4425" data-name="Path 4425" d="M207.714,623.175h-63.2a7.523,7.523,0,0,1-7.523-7.523v-.3h78.241v.3a7.523,7.523,0,0,1-7.523,7.523" transform="translate(-2.474 -11.111)" fill="#c3e8f5"/>
          <path id="Path_4426" data-name="Path 4426" d="M207.714,623.175h-63.2a7.523,7.523,0,0,1-7.523-7.523v-.3h78.241v.3A7.523,7.523,0,0,1,207.714,623.175Z" transform="translate(-2.474 -11.111)" fill="none" stroke="#595454" stroke-linecap="round" stroke-linejoin="round" stroke-width="1.04"/>
          <path id="Path_4427" data-name="Path 4427" d="M126.653,221.256A71.049,71.049,0,1,0,197.7,292.3a71.049,71.049,0,0,0-71.049-71.049m0,130.259a59.21,59.21,0,1,1,59.21-59.21,59.21,59.21,0,0,1-59.21,59.21" transform="translate(-1.004 -3.995)" fill="#be2bbb"/>
          <path id="Path_4428" data-name="Path 4428" d="M126.653,221.256A71.049,71.049,0,1,0,197.7,292.3,71.049,71.049,0,0,0,126.653,221.256Zm0,130.259a59.21,59.21,0,1,1,59.21-59.21A59.21,59.21,0,0,1,126.653,351.515Z" transform="translate(-1.004 -3.995)" fill="none" stroke="#fff" stroke-miterlimit="10" stroke-width="1.148"/>
          <line id="Line_454" data-name="Line 454" y2="9.549" transform="translate(125.648 240.097)" fill="none" stroke="#595454" stroke-linecap="round" stroke-linejoin="round" stroke-width="1.148"/>
          <line id="Line_455" data-name="Line 455" y2="9.549" transform="translate(125.648 326.974)" fill="none" stroke="#595454" stroke-linecap="round" stroke-linejoin="round" stroke-width="1.148"/>
          <line id="Line_456" data-name="Line 456" x1="9.549" transform="translate(164.312 288.31)" fill="none" stroke="#595454" stroke-linecap="round" stroke-linejoin="round" stroke-width="1.148"/>
          <line id="Line_457" data-name="Line 457" x1="9.549" transform="translate(77.434 288.31)" fill="none" stroke="#595454" stroke-linecap="round" stroke-linejoin="round" stroke-width="1.148"/>
          <path id="Path_4429" data-name="Path 4429" d="M101.072,271.338l26.4,21.7L165.12,262" transform="translate(-1.825 -4.731)" fill="none" stroke="#be2bbb" stroke-linecap="round" stroke-linejoin="round" stroke-width="3"/>
        </g>
      </g>
      <g id="Layer_2" data-name="Layer 2" transform="translate(-2408.383 -156.498)">
        <rect id="Rectangle_151" data-name="Rectangle 151" width="1941.038" height="126.788" transform="translate(2404.597 969.253)" fill="#fff" stroke="#453838" stroke-miterlimit="10" stroke-width="1"/>
      </g>
    </g>
    <g id="Doors" transform="translate(-2577.383 -1)">
      <rect id="Rectangle_185" data-name="Rectangle 185" width="279.31" height="86.697" transform="translate(2910.074 307.358)" fill="#fff" stroke="#9f9089" stroke-linecap="round" stroke-linejoin="round" stroke-width="1.264"/>
      <rect id="Rectangle_186" data-name="Rectangle 186" width="279.31" height="86.697" transform="translate(3242.813 307.358)" fill="#fff" stroke="#9f9089" stroke-linecap="round" stroke-linejoin="round" stroke-width="1.264"/>
      <text id="Government_Patients" data-name="Government Patients" transform="translate(3261.688 324)" fill="#595454" font-size="24" font-family="SegoeUI, Segoe UI" letter-spacing="0.02em"><tspan x="0" y="26">GOVERNMENT </tspan><tspan x="0" y="51">PATIENTS</tspan></text>
      <rect id="Rectangle_187" data-name="Rectangle 187" width="279.31" height="86.697" transform="translate(3582.998 307.359)" fill="#fff" stroke="#9f9089" stroke-linecap="round" stroke-linejoin="round" stroke-width="1.264"/>
      <text id="Uninsured_or_Underinsured_Patients" data-name="Uninsured or Underinsured Patients" transform="translate(3594.918 324)" fill="#595454" font-size="21" font-family="SegoeUI, Segoe UI" letter-spacing="-0.01em"><tspan x="0" y="23">UNINSURED OR </tspan><tspan x="0" y="48">UNDERINSURED PATIENTS</tspan></text>
      <g id="Group_877" data-name="Group 877" transform="translate(320.439 0.607)">
        <g id="Group_193" data-name="Group 193" transform="translate(2589.634 442.31)">
          <path id="Path_3483" data-name="Path 3483" d="M0,0H279.311V526.307H0Z" fill="#a69f9f"/>
          <rect id="Rectangle_181" data-name="Rectangle 181" width="52.952" height="231.056" transform="translate(24.139 23.792)" fill="#fff" stroke="#595454" stroke-width="1"/>
          <rect id="Rectangle_183" data-name="Rectangle 183" width="10.71" height="161.774" transform="translate(6.14 185.963)" fill="#fff" stroke="#9f9089" stroke-linecap="round" stroke-linejoin="round" stroke-width="1.403"/>
          <path id="Path_3487" data-name="Path 3487" d="M128.4,267.483,159.178,237.8" transform="translate(-89.051 -79.297)" fill="none" stroke="#707070" stroke-width="1"/>
          <path id="Path_3488" data-name="Path 3488" d="M128.4,267.483l16.985-16.615" transform="translate(-89.051 -102.297)" fill="none" stroke="#707070" stroke-width="1"/>
        </g>
        <g id="Component_3_54" data-name="Component 3 – 54" transform="translate(2678.943 546.393)">
          <g transform="matrix(1, 0, 0, 1, -437.29, -563.12)" filter="url(#Rectangle_638)">
            <rect id="Rectangle_638-4" data-name="Rectangle 638" width="100" height="56" rx="3" transform="translate(437.29 563.12)" fill="url(#linear-gradient)"/>
          </g>
          <text id="Scan_Here" data-name="Scan
Here" transform="translate(45.349 26.412)" fill="#fff" font-size="16" font-family="SegoeUI-Bold, Segoe UI" font-weight="700"><tspan x="0" y="0">SCAN</tspan><tspan x="0" y="16">HERE</tspan></text>
          <g id="Group_875" data-name="Group 875" transform="translate(18.949 15.597) rotate(3)">
            <path id="Path_160" data-name="Path 160" d="M0,5.252c0,.016,0,.032,0,.048A7.41,7.41,0,0,0,1.4,9.639a4.838,4.838,0,0,0,.326.422,1.342,1.342,0,0,0,2-1.79s-.016-.018-.04-.048L3.7,8.217l.01.01a1.4,1.4,0,0,1-.126-.153,5.039,5.039,0,0,1-.9-2.822,5.037,5.037,0,0,1,.894-2.816,1.631,1.631,0,0,1,.127-.156l-.01.01L3.69,2.286c.024-.031.04-.049.04-.049a1.342,1.342,0,0,0-2-1.789A4.849,4.849,0,0,0,1.4.872,7.409,7.409,0,0,0,0,5.207Z" transform="translate(16.048 7.468)" fill="#fff"/>
            <path id="Path_161" data-name="Path 161" d="M3.1,0A1.317,1.317,0,0,1,4.148,2.117,9.8,9.8,0,0,0,2.635,7.554a10.787,10.787,0,0,0,1.541,5.655,1.317,1.317,0,0,1-2.149,1.524A13.2,13.2,0,0,1,0,7.554,12.229,12.229,0,0,1,2.054.518,1.315,1.315,0,0,1,3.1,0Z" transform="translate(10.971 5.124)" fill="#fff"/>
            <path id="Path_162" data-name="Path 162" d="M3.757,0A1.318,1.318,0,0,1,4.811,2.106a14.4,14.4,0,0,0-2.176,7.927,15.568,15.568,0,0,0,2.2,8.215,1.318,1.318,0,1,1-2.165,1.5A18.132,18.132,0,0,1,0,10.033,16.735,16.735,0,0,1,2.7.529,1.315,1.315,0,0,1,3.757,0Z" transform="translate(5.483 2.61)" fill="#fff"/>
            <path id="Path_163" data-name="Path 163" d="M4.476,0A1.318,1.318,0,0,1,5.531,2.106a19.019,19.019,0,0,0-2.9,10.5A20.8,20.8,0,0,0,5.56,23.47a1.317,1.317,0,0,1-2.167,1.5A23.053,23.053,0,0,1,0,12.606,21.249,21.249,0,0,1,3.42.529,1.314,1.314,0,0,1,4.476,0Z" transform="translate(0)" fill="#fff"/>
          </g>
          <g id="Rectangle_639" data-name="Rectangle 639" transform="translate(1 1)" fill="none" stroke="#707070" stroke-width="1.5">
            <rect width="98.5" height="54" rx="3" stroke="none"/>
            <rect x="0.75" y="0.75" width="97" height="52.5" rx="2.25" fill="none"/>
          </g>
          <g id="Rectangle_640" data-name="Rectangle 640" transform="translate(5.5 5.5)" fill="none" stroke="#fff" stroke-width="0.5" stroke-dasharray="2 2">
            <rect width="89" height="45" rx="3" stroke="none"/>
            <rect x="0.25" y="0.25" width="88.5" height="44.5" rx="2.75" fill="none"/>
          </g>
        </g>
      </g>
      <g id="Group_879" data-name="Group 879" transform="translate(986.089 0.607)">
        <g id="Group_193-2" data-name="Group 193" transform="translate(2589.634 442.31)">
          <path id="Path_3483-2" data-name="Path 3483" d="M0,0H279.311V526.307H0Z" fill="#a69f9f"/>
          <rect id="Rectangle_181-2" data-name="Rectangle 181" width="52.952" height="231.056" transform="translate(24.139 23.792)" fill="#fff" stroke="#595454" stroke-width="1"/>
          <rect id="Rectangle_183-2" data-name="Rectangle 183" width="10.71" height="161.774" transform="translate(6.14 185.963)" fill="#fff" stroke="#9f9089" stroke-linecap="round" stroke-linejoin="round" stroke-width="1.403"/>
          <path id="Path_3487-2" data-name="Path 3487" d="M128.4,267.483,159.178,237.8" transform="translate(-89.051 -79.297)" fill="none" stroke="#707070" stroke-width="1"/>
          <path id="Path_3488-2" data-name="Path 3488" d="M128.4,267.483l16.985-16.615" transform="translate(-89.051 -102.297)" fill="none" stroke="#707070" stroke-width="1"/>
        </g>
        <g id="Component_3_55" data-name="Component 3 – 55" transform="translate(2679.294 546.393)">
          <g transform="matrix(1, 0, 0, 1, -1103.29, -563.12)" filter="url(#Rectangle_638-2)">
            <rect id="Rectangle_638-5" data-name="Rectangle 638" width="100" height="56" rx="3" transform="translate(1103.29 563.12)" fill="url(#linear-gradient)"/>
          </g>
          <text id="Scan_Here-2" data-name="Scan
Here" transform="translate(45.349 26.412)" fill="#fff" font-size="16" font-family="SegoeUI-Bold, Segoe UI" font-weight="700"><tspan x="0" y="0">SCAN</tspan><tspan x="0" y="16">HERE</tspan></text>
          <g id="Group_875-2" data-name="Group 875" transform="translate(18.949 15.597) rotate(3)">
            <path id="Path_160-2" data-name="Path 160" d="M0,5.252c0,.016,0,.032,0,.048A7.41,7.41,0,0,0,1.4,9.639a4.838,4.838,0,0,0,.326.422,1.342,1.342,0,0,0,2-1.79s-.016-.018-.04-.048L3.7,8.217l.01.01a1.4,1.4,0,0,1-.126-.153,5.039,5.039,0,0,1-.9-2.822,5.037,5.037,0,0,1,.894-2.816,1.631,1.631,0,0,1,.127-.156l-.01.01L3.69,2.286c.024-.031.04-.049.04-.049a1.342,1.342,0,0,0-2-1.789A4.849,4.849,0,0,0,1.4.872,7.409,7.409,0,0,0,0,5.207Z" transform="translate(16.048 7.468)" fill="#fff"/>
            <path id="Path_161-2" data-name="Path 161" d="M3.1,0A1.317,1.317,0,0,1,4.148,2.117,9.8,9.8,0,0,0,2.635,7.554a10.787,10.787,0,0,0,1.541,5.655,1.317,1.317,0,0,1-2.149,1.524A13.2,13.2,0,0,1,0,7.554,12.229,12.229,0,0,1,2.054.518,1.315,1.315,0,0,1,3.1,0Z" transform="translate(10.971 5.124)" fill="#fff"/>
            <path id="Path_162-2" data-name="Path 162" d="M3.757,0A1.318,1.318,0,0,1,4.811,2.106a14.4,14.4,0,0,0-2.176,7.927,15.568,15.568,0,0,0,2.2,8.215,1.318,1.318,0,1,1-2.165,1.5A18.132,18.132,0,0,1,0,10.033,16.735,16.735,0,0,1,2.7.529,1.315,1.315,0,0,1,3.757,0Z" transform="translate(5.483 2.61)" fill="#fff"/>
            <path id="Path_163-2" data-name="Path 163" d="M4.476,0A1.318,1.318,0,0,1,5.531,2.106a19.019,19.019,0,0,0-2.9,10.5A20.8,20.8,0,0,0,5.56,23.47a1.317,1.317,0,0,1-2.167,1.5A23.053,23.053,0,0,1,0,12.606,21.249,21.249,0,0,1,3.42.529,1.314,1.314,0,0,1,4.476,0Z" transform="translate(0)" fill="#fff"/>
          </g>
          <g id="Rectangle_639-2" data-name="Rectangle 639" transform="translate(1 1)" fill="none" stroke="#707070" stroke-width="1.5">
            <rect width="98.5" height="54" rx="3" stroke="none"/>
            <rect x="0.75" y="0.75" width="97" height="52.5" rx="2.25" fill="none"/>
          </g>
          <g id="Rectangle_640-2" data-name="Rectangle 640" transform="translate(5.5 5.5)" fill="none" stroke="#fff" stroke-width="0.5" stroke-dasharray="2 2">
            <rect width="89" height="45" rx="3" stroke="none"/>
            <rect x="0.25" y="0.25" width="88.5" height="44.5" rx="2.75" fill="none"/>
          </g>
        </g>
      </g>
      <g id="Group_878" data-name="Group 878" transform="translate(649.093 0.607)">
        <g id="Group_193-3" data-name="Group 193" transform="translate(2589.634 442.31)">
          <path id="Path_3483-3" data-name="Path 3483" d="M0,0H279.311V526.307H0Z" fill="#a69f9f"/>
          <rect id="Rectangle_181-3" data-name="Rectangle 181" width="232.288" height="486.115" transform="translate(24.139 23.792)" fill="#fff" stroke="#595454" stroke-width="1"/>
          <rect id="Rectangle_183-3" data-name="Rectangle 183" width="10.71" height="161.774" transform="translate(6.14 185.963)" fill="#fff" stroke="#9f9089" stroke-linecap="round" stroke-linejoin="round" stroke-width="1.403"/>
          <path id="Path_3486" data-name="Path 3486" d="M70.567,369.352,208.763,237.8" fill="none" stroke="#707070" stroke-width="1"/>
          <path id="Path_3487-3" data-name="Path 3487" d="M70.567,369.352,208.763,237.8" transform="translate(-7 37)" fill="none" stroke="#707070" stroke-width="1"/>
        </g>
        <g id="Component_3_56" data-name="Component 3 – 56" transform="translate(2679.29 546.393)">
          <g transform="matrix(1, 0, 0, 1, -766.29, -563.12)" filter="url(#Rectangle_638-3)">
            <rect id="Rectangle_638-6" data-name="Rectangle 638" width="100" height="56" rx="3" transform="translate(766.29 563.12)" fill="url(#linear-gradient)"/>
          </g>
          <text id="Scan_Here-3" data-name="Scan
Here" transform="translate(45.349 26.412)" fill="#fff" font-size="16" font-family="SegoeUI-Bold, Segoe UI" font-weight="700"><tspan x="0" y="0">SCAN</tspan><tspan x="0" y="16">HERE</tspan></text>
          <g id="Group_875-3" data-name="Group 875" transform="translate(18.949 15.597) rotate(3)">
            <path id="Path_160-3" data-name="Path 160" d="M0,5.252c0,.016,0,.032,0,.048A7.41,7.41,0,0,0,1.4,9.639a4.838,4.838,0,0,0,.326.422,1.342,1.342,0,0,0,2-1.79s-.016-.018-.04-.048L3.7,8.217l.01.01a1.4,1.4,0,0,1-.126-.153,5.039,5.039,0,0,1-.9-2.822,5.037,5.037,0,0,1,.894-2.816,1.631,1.631,0,0,1,.127-.156l-.01.01L3.69,2.286c.024-.031.04-.049.04-.049a1.342,1.342,0,0,0-2-1.789A4.849,4.849,0,0,0,1.4.872,7.409,7.409,0,0,0,0,5.207Z" transform="translate(16.048 7.468)" fill="#fff"/>
            <path id="Path_161-3" data-name="Path 161" d="M3.1,0A1.317,1.317,0,0,1,4.148,2.117,9.8,9.8,0,0,0,2.635,7.554a10.787,10.787,0,0,0,1.541,5.655,1.317,1.317,0,0,1-2.149,1.524A13.2,13.2,0,0,1,0,7.554,12.229,12.229,0,0,1,2.054.518,1.315,1.315,0,0,1,3.1,0Z" transform="translate(10.971 5.124)" fill="#fff"/>
            <path id="Path_162-3" data-name="Path 162" d="M3.757,0A1.318,1.318,0,0,1,4.811,2.106a14.4,14.4,0,0,0-2.176,7.927,15.568,15.568,0,0,0,2.2,8.215,1.318,1.318,0,1,1-2.165,1.5A18.132,18.132,0,0,1,0,10.033,16.735,16.735,0,0,1,2.7.529,1.315,1.315,0,0,1,3.757,0Z" transform="translate(5.483 2.61)" fill="#fff"/>
            <path id="Path_163-3" data-name="Path 163" d="M4.476,0A1.318,1.318,0,0,1,5.531,2.106a19.019,19.019,0,0,0-2.9,10.5A20.8,20.8,0,0,0,5.56,23.47a1.317,1.317,0,0,1-2.167,1.5A23.053,23.053,0,0,1,0,12.606,21.249,21.249,0,0,1,3.42.529,1.314,1.314,0,0,1,4.476,0Z" transform="translate(0)" fill="#fff"/>
          </g>
          <g id="Rectangle_639-3" data-name="Rectangle 639" transform="translate(1 1)" fill="none" stroke="#707070" stroke-width="1.5">
            <rect width="98.5" height="54" rx="3" stroke="none"/>
            <rect x="0.75" y="0.75" width="97" height="52.5" rx="2.25" fill="none"/>
          </g>
          <g id="Rectangle_640-3" data-name="Rectangle 640" transform="translate(5.5 5.5)" fill="none" stroke="#fff" stroke-width="0.5" stroke-dasharray="2 2">
            <rect width="89" height="45" rx="3" stroke="none"/>
            <rect x="0.25" y="0.25" width="88.5" height="44.5" rx="2.75" fill="none"/>
          </g>
        </g>
      </g>
      <rect id="Rectangle_617" data-name="Rectangle 617" width="278" height="12" transform="translate(2910.383 382)" fill="#c0f2fb"/>
      <rect id="Rectangle_1408" data-name="Rectangle 1408" width="278" height="12" transform="translate(3244.383 382)" fill="#c0f2fb"/>
      <rect id="Rectangle_1409" data-name="Rectangle 1409" width="278" height="12" transform="translate(3583.383 382)" fill="#c0f2fb"/>
      <text id="Commercial_Patients" data-name="Commercial Patients" transform="translate(2925.929 324)" fill="#595454" font-size="24" font-family="SegoeUI, Segoe UI" letter-spacing="0.02em"><tspan x="0" y="26">COMMERCIAL </tspan><tspan x="0" y="51">PATIENTS</tspan></text>
    </g>
  </g>
</svg>
