<svg xmlns="http://www.w3.org/2000/svg" xmlns:xlink="http://www.w3.org/1999/xlink" width="1973.839" height="1113.665" viewBox="0 0 1973.839 1113.665">
  <defs>
    <clipPath id="clip-path">
      <rect id="Rectangle_1450" data-name="Rectangle 1450" width="1595.489" height="985.106" fill="none"/>
    </clipPath>
    <clipPath id="clip-path-2">
      <rect id="Rectangle_1444" data-name="Rectangle 1444" width="1595.487" height="985.104" fill="none"/>
    </clipPath>
    <clipPath id="clip-path-3">
      <rect id="Rectangle_1429" data-name="Rectangle 1429" width="180.115" height="284.8" fill="none"/>
    </clipPath>
    <linearGradient id="linear-gradient" x1="0.263" y1="-0.1" x2="0.918" y2="1" gradientUnits="objectBoundingBox">
      <stop offset="0" stop-color="#373231"/>
      <stop offset="1" stop-color="#453838"/>
    </linearGradient>
    <filter id="Rectangle_638" x="791.897" y="557.123" width="118" height="74" filterUnits="userSpaceOnUse">
      <feOffset dy="3" input="SourceAlpha"/>
      <feGaussianBlur stdDeviation="3" result="blur"/>
      <feFlood flood-color="#595454" flood-opacity="0.2"/>
      <feComposite operator="in" in2="blur"/>
      <feComposite in="SourceGraphic"/>
    </filter>
    <filter id="Rectangle_638-2" x="1132.743" y="557.123" width="118" height="74" filterUnits="userSpaceOnUse">
      <feOffset dy="3" input="SourceAlpha"/>
      <feGaussianBlur stdDeviation="3" result="blur-2"/>
      <feFlood flood-color="#595454" flood-opacity="0.2"/>
      <feComposite operator="in" in2="blur-2"/>
      <feComposite in="SourceGraphic"/>
    </filter>
    <filter id="Rectangle_638-3" x="451.091" y="557.123" width="118" height="74" filterUnits="userSpaceOnUse">
      <feOffset dy="3" input="SourceAlpha"/>
      <feGaussianBlur stdDeviation="3" result="blur-3"/>
      <feFlood flood-color="#595454" flood-opacity="0.2"/>
      <feComposite operator="in" in2="blur-3"/>
      <feComposite in="SourceGraphic"/>
    </filter>
  </defs>
  <g id="Doors_Component" data-name="Doors Component" transform="translate(46.087 17.123)">
    <path id="Background" d="M0,0H1932.2V984.848H0Z" transform="translate(-14.793 -16.623)" fill="#c5ffe6" stroke="#595454" stroke-width="1" opacity="0.196"/>
    <g id="Objects" transform="translate(-46.087)">
      <g id="Group_1226" data-name="Group 1226" clip-path="url(#clip-path)">
        <rect id="Rectangle_1425" data-name="Rectangle 1425" width="202.733" height="307.417" transform="translate(1392.246 406.773)" fill="#fff"/>
        <g id="Group_1223" data-name="Group 1223" transform="translate(0 0.002)">
          <g id="Group_1222" data-name="Group 1222" clip-path="url(#clip-path-2)">
            <rect id="Rectangle_1426" data-name="Rectangle 1426" width="202.733" height="307.416" transform="translate(1392.246 406.772)" fill="none" stroke="#595454" stroke-linecap="round" stroke-linejoin="round" stroke-width="1.043"/>
            <g id="Group_1221" data-name="Group 1221" transform="translate(1403.553 418.08)" opacity="0.69">
              <g id="Group_1220" data-name="Group 1220">
                <g id="Group_1219" data-name="Group 1219" clip-path="url(#clip-path-3)">
                  <rect id="Rectangle_1427" data-name="Rectangle 1427" width="179.1" height="283.783" transform="translate(0.509 0.508)" fill="#e3f2e9"/>
                  <rect id="Rectangle_1428" data-name="Rectangle 1428" width="179.1" height="283.783" transform="translate(0.509 0.508)" fill="none" stroke="#595454" stroke-linecap="round" stroke-linejoin="round" stroke-width="1.043"/>
                </g>
              </g>
            </g>
            <path id="Path_4430" data-name="Path 4430" d="M1577.771,712.959s4.745-10.191-28.1-106.464c-30.073-88.159-6.716-69.344,19.19-46.97,38.425,33.186-31.951-107.049-5.213-130.349" transform="translate(-37.876 -10.588)" fill="none" stroke="#595454" stroke-linecap="round" stroke-linejoin="round" stroke-width="1"/>
            <path id="Path_4431" data-name="Path 4431" d="M1515.854,712.959s4.745-10.191-28.1-106.464c-30.073-88.159-6.716-69.344,19.191-46.97,38.424,33.186-31.952-107.049-5.213-130.349" transform="translate(-36.349 -10.588)" fill="none" stroke="#a84599" stroke-linecap="round" stroke-linejoin="round" stroke-width="1"/>
            <rect id="Rectangle_1430" data-name="Rectangle 1430" width="21.322" height="122.632" transform="translate(65.423 232.283)" fill="#be2bbb"/>
            <rect id="Rectangle_1431" data-name="Rectangle 1431" width="21.322" height="122.632" transform="translate(65.423 232.283)" fill="none" stroke="#595454" stroke-linecap="round" stroke-linejoin="round" stroke-width="1.331"/>
            <rect id="Rectangle_1432" data-name="Rectangle 1432" width="10.661" height="122.632" transform="translate(200.249 232.283)" fill="#be2bbb"/>
            <rect id="Rectangle_1433" data-name="Rectangle 1433" width="10.661" height="122.632" transform="translate(200.249 232.283)" fill="none" stroke="#595454" stroke-linecap="round" stroke-linejoin="round" stroke-width="1.331"/>
            <rect id="Rectangle_1434" data-name="Rectangle 1434" width="27.1" height="95.349" transform="translate(210.91 259.566)" fill="#ede7e7"/>
            <rect id="Rectangle_1435" data-name="Rectangle 1435" width="27.1" height="95.349" transform="translate(210.91 259.566)" fill="none" stroke="#595454" stroke-linecap="round" stroke-linejoin="round" stroke-width="1.331"/>
            <rect id="Rectangle_1436" data-name="Rectangle 1436" width="5.831" height="116.992" transform="translate(59.593 237.923)" fill="#fff"/>
            <rect id="Rectangle_1437" data-name="Rectangle 1437" width="5.831" height="116.992" transform="translate(59.593 237.923)" fill="none" stroke="#595454" stroke-linecap="round" stroke-linejoin="round" stroke-width="1.331"/>
            <rect id="Rectangle_1438" data-name="Rectangle 1438" width="27.034" height="116.992" transform="translate(86.798 246.31) rotate(-22.1)" fill="#ede7e7"/>
            <rect id="Rectangle_1439" data-name="Rectangle 1439" width="27.034" height="116.992" transform="translate(86.798 246.31) rotate(-22.1)" fill="none" stroke="#595454" stroke-linecap="round" stroke-linejoin="round" stroke-width="1.331"/>
            <rect id="Rectangle_1440" data-name="Rectangle 1440" width="11.95" height="116.992" transform="translate(136.111 246.311) rotate(-22.102)" fill="#fff"/>
            <rect id="Rectangle_1441" data-name="Rectangle 1441" width="11.95" height="116.992" transform="translate(136.111 246.311) rotate(-22.102)" fill="none" stroke="#595454" stroke-linecap="round" stroke-linejoin="round" stroke-width="1.331"/>
            <rect id="Rectangle_1442" data-name="Rectangle 1442" width="18.658" height="134.352" transform="translate(109.429 230.189) rotate(-22.1)" fill="#fff"/>
            <rect id="Rectangle_1443" data-name="Rectangle 1443" width="18.658" height="134.352" transform="translate(109.429 230.189) rotate(-22.1)" fill="none" stroke="#595454" stroke-linecap="round" stroke-linejoin="round" stroke-width="1.331"/>
            <path id="Path_4432" data-name="Path 4432" d="M47.859,565.284H269.976V550.551H47.859" transform="translate(-1.181 -13.582)" fill="#fff"/>
            <path id="Path_4433" data-name="Path 4433" d="M47.859,565.284H269.976V550.551H47.859" transform="translate(-1.181 -13.582)" fill="none" stroke="#a59f9f" stroke-miterlimit="10" stroke-width="1.475"/>
            <path id="Path_4434" data-name="Path 4434" d="M45.98,379.494H268.1V364.76H45.98" transform="translate(-1.134 -8.999)" fill="#fff"/>
            <path id="Path_4435" data-name="Path 4435" d="M45.98,379.494H268.1V364.76H45.98" transform="translate(-1.134 -8.999)" fill="none" stroke="#a59f9f" stroke-miterlimit="10" stroke-width="1.475"/>
            <path id="Path_4436" data-name="Path 4436" d="M127.867,486.468l3.77-15.638,2.256-9.355s-2.081-1.929-12.92-.69c-16.365,1.87-22.838-6.969-45.182-1.892l10.33,34.861h71.444l7.535-21.247c-9.794-3.112-21.365-4.679-33.463-1.677" transform="translate(-1.869 -11.282)" fill="#fff"/>
            <path id="Path_4437" data-name="Path 4437" d="M127.867,486.468l3.77-15.638,2.256-9.355s-2.081-1.929-12.92-.69c-16.365,1.87-22.838-6.969-45.182-1.892l10.33,34.861h71.444l7.535-21.247c-9.794-3.112-21.365-4.679-33.463-1.677" transform="translate(-1.869 -11.282)" fill="none" stroke="#595454" stroke-linecap="round" stroke-linejoin="round" stroke-width="1.21"/>
            <path id="Path_4438" data-name="Path 4438" d="M172.4,548.078H64.808v-53.4H172.4Z" transform="translate(-1.599 -12.204)" fill="#be2bbb"/>
            <path id="Path_4439" data-name="Path 4439" d="M172.4,548.078H64.808v-53.4H172.4Z" transform="translate(-1.599 -12.204)" fill="none" stroke="#595454" stroke-linecap="round" stroke-linejoin="round" stroke-width="1.21"/>
            <path id="Path_4440" data-name="Path 4440" d="M207.6,424.513c-2.955-3.634-4.854-9.217-4.854-15.49,0-10.952,5.771-19.829,12.89-19.829s12.889,8.878,12.889,19.829c0,6.273-1.9,11.856-4.855,15.49,2.956,3.633,4.855,9.217,4.855,15.49A26.278,26.278,0,0,1,225,453.6a26.276,26.276,0,0,1,3.526,13.6,26.764,26.764,0,0,1-3.085,12.853,26.76,26.76,0,0,1,3.085,12.852c0,10.952-5.771,19.829-12.889,19.829s-12.89-8.877-12.89-19.829a26.76,26.76,0,0,1,3.084-12.852,26.764,26.764,0,0,1-3.084-12.853,26.276,26.276,0,0,1,3.526-13.6,26.278,26.278,0,0,1-3.526-13.6c0-6.273,1.9-11.857,4.854-15.49" transform="translate(-5.001 -9.602)" fill="#cde8db"/>
            <path id="Path_4441" data-name="Path 4441" d="M207.6,424.513c-2.955-3.634-4.854-9.217-4.854-15.49,0-10.952,5.771-19.829,12.89-19.829s12.889,8.878,12.889,19.829c0,6.273-1.9,11.856-4.855,15.49,2.956,3.633,4.855,9.217,4.855,15.49A26.278,26.278,0,0,1,225,453.6a26.276,26.276,0,0,1,3.526,13.6,26.764,26.764,0,0,1-3.085,12.853,26.76,26.76,0,0,1,3.085,12.852c0,10.952-5.771,19.829-12.889,19.829s-12.89-8.877-12.89-19.829a26.76,26.76,0,0,1,3.084-12.852,26.764,26.764,0,0,1-3.084-12.853,26.276,26.276,0,0,1,3.526-13.6,26.278,26.278,0,0,1-3.526-13.6C202.748,433.73,204.647,428.146,207.6,424.513Z" transform="translate(-5.001 -9.602)" fill="none" stroke="#a59f9f" stroke-linecap="round" stroke-linejoin="round" stroke-width="0.949"/>
            <line id="Line_458" data-name="Line 458" x1="1.114" y2="115.013" transform="translate(210.08 389.505)" fill="#fff"/>
            <line id="Line_459" data-name="Line 459" x1="1.114" y2="115.013" transform="translate(210.08 389.505)" fill="none" stroke="#a59f9f" stroke-linecap="round" stroke-linejoin="round" stroke-width="0.949"/>
            <path id="Path_4442" data-name="Path 4442" d="M243.689,431.567c-1.655-4.381-1.692-10.278.291-16.23,3.461-10.39,11.743-16.989,18.5-14.739s9.423,12.5,5.961,22.887c-1.983,5.951-5.549,10.649-9.5,13.162,1.656,4.381,1.692,10.278-.291,16.23A26.267,26.267,0,0,1,251,464.665a26.272,26.272,0,0,1-.953,14.017,26.759,26.759,0,0,1-6.989,11.218,26.769,26.769,0,0,1-1.135,13.169c-3.461,10.39-11.743,16.989-18.5,14.739s-9.423-12.5-5.961-22.887a26.764,26.764,0,0,1,6.988-11.218,26.77,26.77,0,0,1,1.136-13.169,26.268,26.268,0,0,1,7.644-11.788,26.272,26.272,0,0,1,.953-14.017c1.983-5.952,5.55-10.649,9.5-13.162" transform="translate(-5.327 -9.872)" fill="#e1f1eb"/>
            <path id="Path_4443" data-name="Path 4443" d="M243.689,431.567c-1.655-4.381-1.692-10.278.291-16.23,3.461-10.39,11.743-16.989,18.5-14.739s9.423,12.5,5.961,22.887c-1.983,5.951-5.549,10.649-9.5,13.162,1.656,4.381,1.692,10.278-.291,16.23A26.267,26.267,0,0,1,251,464.665a26.272,26.272,0,0,1-.953,14.017,26.759,26.759,0,0,1-6.989,11.218,26.769,26.769,0,0,1-1.135,13.169c-3.461,10.39-11.743,16.989-18.5,14.739s-9.423-12.5-5.961-22.887a26.764,26.764,0,0,1,6.988-11.218,26.77,26.77,0,0,1,1.136-13.169,26.268,26.268,0,0,1,7.644-11.788,26.272,26.272,0,0,1,.953-14.017C236.171,438.776,239.737,434.08,243.689,431.567Z" transform="translate(-5.327 -9.872)" fill="none" stroke="#a59f9f" stroke-linecap="round" stroke-linejoin="round" stroke-width="0.949"/>
            <line id="Line_460" data-name="Line 460" x1="37.409" y2="108.765" transform="translate(217.136 400.307)" fill="#fff"/>
            <line id="Line_461" data-name="Line 461" x1="37.409" y2="108.765" transform="translate(217.136 400.307)" fill="none" stroke="#a59f9f" stroke-linecap="round" stroke-linejoin="round" stroke-width="0.949"/>
            <path id="Path_4444" data-name="Path 4444" d="M194.7,459.222c-3.984-2.464-7.609-7.114-9.667-13.041-3.592-10.345-1.053-20.625,5.672-22.96s15.088,4.159,18.681,14.505c2.058,5.926,2.1,11.823.5,16.225,3.984,2.464,7.61,7.115,9.667,13.041a26.271,26.271,0,0,1,1.13,14,26.273,26.273,0,0,1,7.792,11.691,26.754,26.754,0,0,1,1.3,13.153,26.765,26.765,0,0,1,7.13,11.13c3.592,10.345,1.053,20.625-5.672,22.96s-15.088-4.159-18.681-14.5a26.755,26.755,0,0,1-1.3-13.153,26.755,26.755,0,0,1-7.13-11.129,26.264,26.264,0,0,1-1.13-14,26.272,26.272,0,0,1-7.792-11.69c-2.058-5.926-2.1-11.824-.5-16.226" transform="translate(-4.524 -10.43)" fill="#e1f1eb"/>
            <path id="Path_4445" data-name="Path 4445" d="M194.7,459.222c-3.984-2.464-7.609-7.114-9.667-13.041-3.592-10.345-1.053-20.625,5.672-22.96s15.088,4.159,18.681,14.505c2.058,5.926,2.1,11.823.5,16.225,3.984,2.464,7.61,7.115,9.667,13.041a26.271,26.271,0,0,1,1.13,14,26.273,26.273,0,0,1,7.792,11.691,26.754,26.754,0,0,1,1.3,13.153,26.765,26.765,0,0,1,7.13,11.13c3.592,10.345,1.053,20.625-5.672,22.96s-15.088-4.159-18.681-14.5a26.755,26.755,0,0,1-1.3-13.153,26.755,26.755,0,0,1-7.13-11.129,26.264,26.264,0,0,1-1.13-14,26.272,26.272,0,0,1-7.792-11.69C193.138,469.522,193.1,463.624,194.7,459.222Z" transform="translate(-4.524 -10.43)" fill="none" stroke="#a59f9f" stroke-linecap="round" stroke-linejoin="round" stroke-width="0.949"/>
            <line id="Line_462" data-name="Line 462" x2="36.674" y2="109.015" transform="translate(189.96 421.975)" fill="#fff"/>
            <line id="Line_463" data-name="Line 463" x2="36.674" y2="109.015" transform="translate(189.96 421.975)" fill="none" stroke="#a59f9f" stroke-linecap="round" stroke-linejoin="round" stroke-width="0.949"/>
            <path id="Path_4446" data-name="Path 4446" d="M219.265,543.477h5.9a27.6,27.6,0,0,0,27.6-27.6V484.065h-61.1v31.812a27.6,27.6,0,0,0,27.6,27.6" transform="translate(-4.728 -11.942)" fill="#ede7e7"/>
            <path id="Path_4447" data-name="Path 4447" d="M219.265,543.477h5.9a27.6,27.6,0,0,0,27.6-27.6V484.065h-61.1v31.812A27.6,27.6,0,0,0,219.265,543.477Z" transform="translate(-4.728 -11.942)" fill="none" stroke="#595454" stroke-linecap="round" stroke-linejoin="round" stroke-width="0.949"/>
            <line id="Line_464" data-name="Line 464" x1="60.455" transform="translate(187.147 485.473)" fill="#fff"/>
            <line id="Line_465" data-name="Line 465" x1="60.455" transform="translate(187.147 485.473)" fill="none" stroke="#595454" stroke-linecap="round" stroke-linejoin="round" stroke-width="0.949"/>
            <path id="Path_4448" data-name="Path 4448" d="M191.436,549.735h62.6a6.9,6.9,0,0,0,6.9-6.9v-.738h-76.41v.738a6.9,6.9,0,0,0,6.9,6.9" transform="translate(-4.552 -13.374)" fill="#cbc7c7"/>
            <path id="Path_4449" data-name="Path 4449" d="M191.436,549.735h62.6a6.9,6.9,0,0,0,6.9-6.9v-.738h-76.41v.738A6.9,6.9,0,0,0,191.436,549.735Z" transform="translate(-4.552 -13.374)" fill="none" stroke="#595454" stroke-linecap="round" stroke-linejoin="round" stroke-width="0.949"/>
            <line id="Line_466" data-name="Line 466" y2="207.826" transform="translate(1477.064)" fill="#fff"/>
            <line id="Line_467" data-name="Line 467" y2="207.826" transform="translate(1477.064)" fill="none" stroke="#595454" stroke-miterlimit="10" stroke-width="0.772"/>
            <path id="Path_4450" data-name="Path 4450" d="M1522.866,217.328a8.664,8.664,0,1,0-17.329,0" transform="translate(-37.137 -5.149)" fill="#fff"/>
            <path id="Path_4451" data-name="Path 4451" d="M1522.866,217.328a8.664,8.664,0,1,0-17.329,0" transform="translate(-37.137 -5.149)" fill="none" stroke="#595454" stroke-miterlimit="10" stroke-width="0.772"/>
            <path id="Path_4452" data-name="Path 4452" d="M1532.412,330.27a18.459,18.459,0,1,1-36.918,0Z" transform="translate(-36.889 -8.149)" fill="#ede7e7"/>
            <path id="Path_4453" data-name="Path 4453" d="M1532.412,330.27a18.459,18.459,0,1,1-36.918,0Z" transform="translate(-36.889 -8.149)" fill="none" stroke="#a84599" stroke-miterlimit="10" stroke-width="0.772"/>
            <path id="Path_4454" data-name="Path 4454" d="M1526.971,229.71V217.547H1497.49V229.71a15.85,15.85,0,0,1-11.124,15.13,86.614,86.614,0,0,0-60.739,82.649h173.207a86.614,86.614,0,0,0-60.74-82.649,15.851,15.851,0,0,1-11.123-15.13" transform="translate(-35.165 -5.368)" fill="#be2bbb"/>
            <path id="Path_4455" data-name="Path 4455" d="M1526.971,229.71V217.547H1497.49V229.71a15.85,15.85,0,0,1-11.124,15.13,86.614,86.614,0,0,0-60.739,82.649h173.207a86.614,86.614,0,0,0-60.74-82.649A15.851,15.851,0,0,1,1526.971,229.71Z" transform="translate(-35.165 -5.368)" fill="none" stroke="#595454" stroke-miterlimit="10" stroke-width="0.772"/>
          </g>
        </g>
        <g id="Group_1225" data-name="Group 1225" transform="translate(0 0.002)">
          <g id="Group_1224" data-name="Group 1224" clip-path="url(#clip-path-2)">
            <path id="Path_4456" data-name="Path 4456" d="M1518.186,860.27c0,43.649-18.334,73.319-40.95,73.319s-40.95-29.67-40.95-73.319,18.333-73.319,40.95-73.319,40.95,29.67,40.95,73.319" transform="translate(-35.428 -19.413)" fill="#fff"/>
            <ellipse id="Ellipse_64" data-name="Ellipse 64" cx="40.95" cy="73.319" rx="40.95" ry="73.319" transform="translate(1400.857 767.538)" fill="none" stroke="#a84599" stroke-linecap="round" stroke-linejoin="round" stroke-width="1.354"/>
            <path id="Path_4457" data-name="Path 4457" d="M1503.056,860.27c0,43.649-11.384,73.319-25.428,73.319s-25.429-29.67-25.429-73.319,11.385-73.319,25.429-73.319S1503.056,816.621,1503.056,860.27Z" transform="translate(-35.821 -19.413)" fill="none" stroke="#a84599" stroke-linecap="round" stroke-linejoin="round" stroke-width="1.354"/>
            <ellipse id="Ellipse_65" data-name="Ellipse 65" cx="8.917" cy="73.319" rx="8.917" ry="73.319" transform="translate(1432.89 767.538)" fill="none" stroke="#a84599" stroke-linecap="round" stroke-linejoin="round" stroke-width="1.354"/>
            <path id="Path_4458" data-name="Path 4458" d="M1521.645,770.448c15.433-15.433,32.964-18.88,41.652-10.192s5.24,26.219-10.192,41.652-32.964,18.88-41.651,10.192-5.24-26.219,10.192-41.652" transform="translate(-37.167 -18.64)" fill="#fff"/>
            <ellipse id="Ellipse_66" data-name="Ellipse 66" cx="36.659" cy="22.245" rx="36.659" ry="22.245" transform="translate(1458.556 777.731) rotate(-45)" fill="none" stroke="#a84599" stroke-linecap="round" stroke-linejoin="round" stroke-width="1.354"/>
            <path id="Path_4459" data-name="Path 4459" d="M1531.983,780.787c15.433-15.433,28.381-23.463,31.415-20.428s-5,15.982-20.429,31.414-28.381,23.463-31.414,20.429S1516.551,796.22,1531.983,780.787Z" transform="translate(-37.269 -18.742)" fill="none" stroke="#a84599" stroke-linecap="round" stroke-linejoin="round" stroke-width="1.354"/>
            <path id="Path_4460" data-name="Path 4460" d="M1499.953,748.438c0,21.825-9.959,36.659-22.244,36.659s-22.245-14.834-22.245-36.659,9.958-36.659,22.245-36.659,22.244,14.834,22.244,36.659" transform="translate(-35.901 -17.559)" fill="#fff"/>
            <path id="Path_4461" data-name="Path 4461" d="M1499.953,748.438c0,21.825-9.959,36.659-22.244,36.659s-22.245-14.834-22.245-36.659,9.958-36.659,22.245-36.659S1499.953,726.613,1499.953,748.438Z" transform="translate(-35.901 -17.559)" fill="none" stroke="#a84599" stroke-linecap="round" stroke-linejoin="round" stroke-width="1.354"/>
            <path id="Path_4462" data-name="Path 4462" d="M1485.843,748.438c0,21.825-3.478,36.659-7.768,36.659s-7.769-14.834-7.769-36.659,3.478-36.659,7.769-36.659S1485.843,726.613,1485.843,748.438Z" transform="translate(-36.268 -17.559)" fill="none" stroke="#a84599" stroke-linecap="round" stroke-linejoin="round" stroke-width="1.354"/>
            <path id="Path_4463" data-name="Path 4463" d="M1490.146,997.853h-25.795a27.564,27.564,0,0,1-27.564-27.563V919.171h80.922V970.29a27.563,27.563,0,0,1-27.563,27.563" transform="translate(-35.441 -22.675)" fill="#ede7e7"/>
            <path id="Path_4464" data-name="Path 4464" d="M1490.146,997.853h-25.795a27.564,27.564,0,0,1-27.564-27.563V919.171h80.922V970.29A27.563,27.563,0,0,1,1490.146,997.853Z" transform="translate(-35.441 -22.675)" fill="none" stroke="#595454" stroke-linecap="round" stroke-linejoin="round" stroke-width="1.354"/>
            <line id="Line_468" data-name="Line 468" x2="79.508" transform="translate(1402.053 914.175)" fill="#fff"/>
            <line id="Line_469" data-name="Line 469" x2="79.508" transform="translate(1402.053 914.175)" fill="none" stroke="#595454" stroke-miterlimit="10" stroke-width="1.354"/>
            <path id="Path_4465" data-name="Path 4465" d="M1520.116,1006.138h-86.25a7.472,7.472,0,0,1-7.471-7.472v-2.647h101.193v2.647a7.472,7.472,0,0,1-7.472,7.472" transform="translate(-35.184 -24.57)" fill="#c3bebe"/>
            <path id="Path_4466" data-name="Path 4466" d="M1520.116,1006.138h-86.25a7.472,7.472,0,0,1-7.471-7.472v-2.647h101.193v2.647A7.472,7.472,0,0,1,1520.116,1006.138Z" transform="translate(-35.184 -24.57)" fill="none" stroke="#595454" stroke-linecap="round" stroke-linejoin="round" stroke-width="1.354"/>
            <rect id="Rectangle_1445" data-name="Rectangle 1445" width="102.187" height="22.249" transform="translate(24.062 833.724)" fill="#fff"/>
            <rect id="Rectangle_1446" data-name="Rectangle 1446" width="102.187" height="22.249" transform="translate(24.062 833.724)" fill="none" stroke="#595454" stroke-linecap="round" stroke-linejoin="round" stroke-width="0.564"/>
            <path id="Path_4467" data-name="Path 4467" d="M15.215,859.37,4.147,1001.694a4.024,4.024,0,0,0,8,.881l20.3-142.287Z" transform="translate(-0.102 -21.2)" fill="#fff"/>
            <path id="Path_4468" data-name="Path 4468" d="M15.215,859.37,4.147,1001.694a4.024,4.024,0,0,0,8,.881l20.3-142.287Z" transform="translate(-0.102 -21.2)" fill="none" stroke="#595454" stroke-linecap="round" stroke-linejoin="round" stroke-width="0.564"/>
            <path id="Path_4469" data-name="Path 4469" d="M138.137,859.37l11.068,142.324a4.024,4.024,0,0,1-8,.881L120.9,860.287Z" transform="translate(-2.982 -21.2)" fill="#fff"/>
            <path id="Path_4470" data-name="Path 4470" d="M138.137,859.37l11.068,142.324a4.024,4.024,0,0,1-8,.881L120.9,860.287Z" transform="translate(-2.982 -21.2)" fill="none" stroke="#595454" stroke-linecap="round" stroke-linejoin="round" stroke-width="0.564"/>
            <path id="Path_4471" data-name="Path 4471" d="M141.725,838.745c-2.413-6.205-3.8-17.326-5.022-25.451l-8.464-72.545a16.37,16.37,0,0,0-16.261-14.473H38.734a16.37,16.37,0,0,0-16.261,14.473l-8.464,72.545c-1.223,8.125-2.609,19.246-5.022,25.451,0,0,49.526,6.671,66.369,6.671s66.369-6.671,66.369-6.671" transform="translate(-0.222 -17.917)" fill="#ede7e7"/>
            <path id="Path_4472" data-name="Path 4472" d="M141.725,838.745c-2.413-6.205-3.8-17.326-5.022-25.451l-8.464-72.545a16.37,16.37,0,0,0-16.261-14.473H38.734a16.37,16.37,0,0,0-16.261,14.473l-8.464,72.545c-1.223,8.125-2.609,19.246-5.022,25.451,0,0,49.526,6.671,66.369,6.671S141.725,838.745,141.725,838.745Z" transform="translate(-0.222 -17.917)" fill="none" stroke="#595454" stroke-linecap="round" stroke-linejoin="round" stroke-width="0.564"/>
            <path id="Path_4473" data-name="Path 4473" d="M40.389,835.509a510.358,510.358,0,0,0,71.482,0" transform="translate(-0.996 -20.611)" fill="none" stroke="#595454" stroke-linecap="round" stroke-linejoin="round" stroke-width="0.564"/>
            <path id="Path_4474" data-name="Path 4474" d="M149.963,851.564c0-5.517-2.854-10.741-9.866-10.518l-6.229.53c-19.98,1.8-39.578,2.805-58.736,2.895-19.158-.09-38.757-1.1-58.736-2.895l-6.229-.53c-7.013-.223-9.866,5-9.866,10.518-.238,5.026,1.824,8.6,8.066,9.8,12.843,2.466,34.513,3.561,51.346,3.965v0c5.235.124,15.142.2,15.409.2h.019c.268,0,10.176-.072,15.41-.2v0c16.833-.4,38.5-1.5,51.346-3.965,6.241-1.2,8.3-4.775,8.066-9.8" transform="translate(-0.007 -20.748)" fill="#ede7e7"/>
            <path id="Path_4475" data-name="Path 4475" d="M149.963,851.564c0-5.517-2.854-10.741-9.866-10.518l-6.229.53c-19.98,1.8-39.578,2.805-58.736,2.895-19.158-.09-38.757-1.1-58.736-2.895l-6.229-.53c-7.013-.223-9.866,5-9.866,10.518-.238,5.026,1.824,8.6,8.066,9.8,12.843,2.466,34.513,3.561,51.346,3.965v0c5.235.124,15.142.2,15.409.2h.019c.268,0,10.176-.072,15.41-.2v0c16.833-.4,38.5-1.5,51.346-3.965C148.139,860.167,150.2,856.59,149.963,851.564Z" transform="translate(-0.007 -20.748)" fill="none" stroke="#595454" stroke-linecap="round" stroke-linejoin="round" stroke-width="0.564"/>
            <rect id="Rectangle_1447" data-name="Rectangle 1447" width="102.187" height="22.249" transform="translate(198.718 833.724)" fill="#fff"/>
            <rect id="Rectangle_1448" data-name="Rectangle 1448" width="102.187" height="22.249" transform="translate(198.718 833.724)" fill="none" stroke="#595454" stroke-linecap="round" stroke-linejoin="round" stroke-width="0.564"/>
            <path id="Path_4476" data-name="Path 4476" d="M194.288,859.37,183.22,1001.694a4.024,4.024,0,0,0,8,.881l20.3-142.287Z" transform="translate(-4.519 -21.2)" fill="#fff"/>
            <path id="Path_4477" data-name="Path 4477" d="M194.288,859.37,183.22,1001.694a4.024,4.024,0,0,0,8,.881l20.3-142.287Z" transform="translate(-4.519 -21.2)" fill="none" stroke="#595454" stroke-linecap="round" stroke-linejoin="round" stroke-width="0.564"/>
            <path id="Path_4478" data-name="Path 4478" d="M317.211,859.37l11.068,142.324a4.024,4.024,0,0,1-8,.881l-20.3-142.287Z" transform="translate(-7.399 -21.2)" fill="#fff"/>
            <path id="Path_4479" data-name="Path 4479" d="M317.211,859.37l11.068,142.324a4.024,4.024,0,0,1-8,.881l-20.3-142.287Z" transform="translate(-7.399 -21.2)" fill="none" stroke="#595454" stroke-linecap="round" stroke-linejoin="round" stroke-width="0.564"/>
            <path id="Path_4480" data-name="Path 4480" d="M320.8,838.745c-2.413-6.205-3.8-17.326-5.022-25.451l-8.464-72.545a16.37,16.37,0,0,0-16.261-14.473H217.807a16.37,16.37,0,0,0-16.261,14.473l-8.464,72.545c-1.223,8.125-2.609,19.246-5.022,25.451,0,0,49.526,6.671,66.369,6.671s66.369-6.671,66.369-6.671" transform="translate(-4.639 -17.917)" fill="#ede7e7"/>
            <path id="Path_4481" data-name="Path 4481" d="M320.8,838.745c-2.413-6.205-3.8-17.326-5.022-25.451l-8.464-72.545a16.37,16.37,0,0,0-16.261-14.473H217.807a16.37,16.37,0,0,0-16.261,14.473l-8.464,72.545c-1.223,8.125-2.609,19.246-5.022,25.451,0,0,49.526,6.671,66.369,6.671S320.8,838.745,320.8,838.745Z" transform="translate(-4.639 -17.917)" fill="none" stroke="#595454" stroke-linecap="round" stroke-linejoin="round" stroke-width="0.564"/>
            <path id="Path_4482" data-name="Path 4482" d="M219.462,835.509a510.358,510.358,0,0,0,71.482,0" transform="translate(-5.413 -20.611)" fill="none" stroke="#595454" stroke-linecap="round" stroke-linejoin="round" stroke-width="0.564"/>
            <path id="Path_4483" data-name="Path 4483" d="M329.036,851.564c0-5.517-2.854-10.741-9.866-10.518l-6.229.53c-19.98,1.8-39.578,2.805-58.736,2.895-19.158-.09-38.757-1.1-58.736-2.895l-6.229-.53c-7.013-.223-9.866,5-9.866,10.518-.238,5.026,1.824,8.6,8.066,9.8,12.843,2.466,34.513,3.561,51.346,3.965v0c5.235.124,15.142.2,15.409.2h.019c.268,0,10.176-.072,15.41-.2v0c16.833-.4,38.5-1.5,51.346-3.965,6.241-1.2,8.3-4.775,8.066-9.8" transform="translate(-4.424 -20.748)" fill="#ede7e7"/>
            <path id="Path_4484" data-name="Path 4484" d="M329.036,851.564c0-5.517-2.854-10.741-9.866-10.518l-6.229.53c-19.98,1.8-39.578,2.805-58.736,2.895-19.158-.09-38.757-1.1-58.736-2.895l-6.229-.53c-7.013-.223-9.866,5-9.866,10.518-.238,5.026,1.824,8.6,8.066,9.8,12.843,2.466,34.513,3.561,51.346,3.965v0c5.235.124,15.142.2,15.409.2h.019c.268,0,10.176-.072,15.41-.2v0c16.833-.4,38.5-1.5,51.346-3.965C327.212,860.167,329.274,856.59,329.036,851.564Z" transform="translate(-4.424 -20.748)" fill="none" stroke="#595454" stroke-linecap="round" stroke-linejoin="round" stroke-width="0.564"/>
          </g>
        </g>
      </g>
      <g id="Layer_2" data-name="Layer 2" transform="translate(-2372.296)">
        <rect id="Rectangle_151" data-name="Rectangle 151" width="1941.038" height="126.788" transform="translate(2404.597 969.253)" fill="#fff" stroke="#453838" stroke-miterlimit="10" stroke-width="1"/>
      </g>
    </g>
    <g id="Doors" transform="translate(-2577.383 -1)">
      <rect id="Rectangle_185" data-name="Rectangle 185" width="279.31" height="86.697" transform="translate(2901.73 307.358)" fill="#fff" stroke="#9f9089" stroke-linecap="round" stroke-linejoin="round" stroke-width="1.264"/>
      <rect id="Rectangle_186" data-name="Rectangle 186" width="279.31" height="86.697" transform="translate(3242.813 307.358)" fill="#fff" stroke="#9f9089" stroke-linecap="round" stroke-linejoin="round" stroke-width="1.264"/>
      <text id="Videos" transform="translate(3261.688 336.5)" fill="#595454" font-size="24" font-family="SegoeUI, Segoe UI" letter-spacing="0.02em"><tspan x="0" y="26">VIDEOS</tspan></text>
      <rect id="Rectangle_187" data-name="Rectangle 187" width="279.31" height="86.697" transform="translate(3582.998 307.359)" fill="#fff" stroke="#9f9089" stroke-linecap="round" stroke-linejoin="round" stroke-width="1.264"/>
      <text id="Patient_resource_connections" data-name="Patient resource connections" transform="translate(3594.918 324)" fill="#595454" font-size="24" font-family="SegoeUI, Segoe UI"><tspan x="0" y="26">PATIENT RESOURCE </tspan><tspan x="0" y="51">CONNECTIONS</tspan></text>
      <g id="Group_879" data-name="Group 879" transform="translate(652.899 0.607)">
        <g id="Group_193" data-name="Group 193" transform="translate(2589.634 442.31)">
          <path id="Path_3483" data-name="Path 3483" d="M0,0H279.311V526.307H0Z" fill="#a69f9f"/>
          <rect id="Rectangle_181" data-name="Rectangle 181" width="52.952" height="231.056" transform="translate(24.139 23.792)" fill="#fff" stroke="#595454" stroke-width="1"/>
          <rect id="Rectangle_183" data-name="Rectangle 183" width="10.71" height="161.774" transform="translate(6.14 185.963)" fill="#fff" stroke="#9f9089" stroke-linecap="round" stroke-linejoin="round" stroke-width="1.403"/>
          <path id="Path_3487" data-name="Path 3487" d="M128.4,267.483,159.178,237.8" transform="translate(-89.051 -79.297)" fill="none" stroke="#707070" stroke-width="1"/>
          <path id="Path_3488" data-name="Path 3488" d="M128.4,267.483l16.985-16.615" transform="translate(-89.051 -102.297)" fill="none" stroke="#707070" stroke-width="1"/>
        </g>
        <g id="Component_3_58" data-name="Component 3 – 58" transform="translate(2679.294 546.393)">
          <g transform="matrix(1, 0, 0, 1, -800.9, -563.12)" filter="url(#Rectangle_638)">
            <rect id="Rectangle_638-4" data-name="Rectangle 638" width="100" height="56" rx="3" transform="translate(800.9 563.12)" fill="url(#linear-gradient)"/>
          </g>
          <text id="Scan_Here" data-name="Scan
Here" transform="translate(45.349 26.412)" fill="#fff" font-size="16" font-family="SegoeUI-Bold, Segoe UI" font-weight="700"><tspan x="0" y="0">SCAN</tspan><tspan x="0" y="16">HERE</tspan></text>
          <g id="Group_875" data-name="Group 875" transform="translate(18.949 15.597) rotate(3)">
            <path id="Path_160" data-name="Path 160" d="M0,5.252c0,.016,0,.032,0,.048A7.41,7.41,0,0,0,1.4,9.639a4.838,4.838,0,0,0,.326.422,1.342,1.342,0,0,0,2-1.79s-.016-.018-.04-.048L3.7,8.217l.01.01a1.4,1.4,0,0,1-.126-.153,5.039,5.039,0,0,1-.9-2.822,5.037,5.037,0,0,1,.894-2.816,1.631,1.631,0,0,1,.127-.156l-.01.01L3.69,2.286c.024-.031.04-.049.04-.049a1.342,1.342,0,0,0-2-1.789A4.849,4.849,0,0,0,1.4.872,7.409,7.409,0,0,0,0,5.207Z" transform="translate(16.048 7.468)" fill="#fff"/>
            <path id="Path_161" data-name="Path 161" d="M3.1,0A1.317,1.317,0,0,1,4.148,2.117,9.8,9.8,0,0,0,2.635,7.554a10.787,10.787,0,0,0,1.541,5.655,1.317,1.317,0,0,1-2.149,1.524A13.2,13.2,0,0,1,0,7.554,12.229,12.229,0,0,1,2.054.518,1.315,1.315,0,0,1,3.1,0Z" transform="translate(10.971 5.124)" fill="#fff"/>
            <path id="Path_162" data-name="Path 162" d="M3.757,0A1.318,1.318,0,0,1,4.811,2.106a14.4,14.4,0,0,0-2.176,7.927,15.568,15.568,0,0,0,2.2,8.215,1.318,1.318,0,1,1-2.165,1.5A18.132,18.132,0,0,1,0,10.033,16.735,16.735,0,0,1,2.7.529,1.315,1.315,0,0,1,3.757,0Z" transform="translate(5.483 2.61)" fill="#fff"/>
            <path id="Path_163" data-name="Path 163" d="M4.476,0A1.318,1.318,0,0,1,5.531,2.106a19.019,19.019,0,0,0-2.9,10.5A20.8,20.8,0,0,0,5.56,23.47a1.317,1.317,0,0,1-2.167,1.5A23.053,23.053,0,0,1,0,12.606,21.249,21.249,0,0,1,3.42.529,1.314,1.314,0,0,1,4.476,0Z" transform="translate(0)" fill="#fff"/>
          </g>
          <g id="Rectangle_639" data-name="Rectangle 639" transform="translate(1 1)" fill="none" stroke="#707070" stroke-width="1.5">
            <rect width="98.5" height="54" rx="3" stroke="none"/>
            <rect x="0.75" y="0.75" width="97" height="52.5" rx="2.25" fill="none"/>
          </g>
          <g id="Rectangle_640" data-name="Rectangle 640" transform="translate(5.5 5.5)" fill="none" stroke="#fff" stroke-width="0.5" stroke-dasharray="2 2">
            <rect width="89" height="45" rx="3" stroke="none"/>
            <rect x="0.25" y="0.25" width="88.5" height="44.5" rx="2.75" fill="none"/>
          </g>
        </g>
      </g>
      <g id="Group_878" data-name="Group 878" transform="translate(993.749 0.607)">
        <g id="Group_193-2" data-name="Group 193" transform="translate(2589.634 442.31)">
          <path id="Path_3483-2" data-name="Path 3483" d="M0,0H279.311V526.307H0Z" fill="#a69f9f"/>
          <rect id="Rectangle_181-2" data-name="Rectangle 181" width="232.288" height="486.115" transform="translate(24.139 23.792)" fill="#fff" stroke="#595454" stroke-width="1"/>
          <rect id="Rectangle_183-2" data-name="Rectangle 183" width="10.71" height="161.774" transform="translate(6.14 185.963)" fill="#fff" stroke="#9f9089" stroke-linecap="round" stroke-linejoin="round" stroke-width="1.403"/>
          <path id="Path_3486" data-name="Path 3486" d="M70.567,369.352,208.763,237.8" fill="none" stroke="#707070" stroke-width="1"/>
          <path id="Path_3487-2" data-name="Path 3487" d="M70.567,369.352,208.763,237.8" transform="translate(-7 37)" fill="none" stroke="#707070" stroke-width="1"/>
        </g>
        <g id="Component_3_59" data-name="Component 3 – 59" transform="translate(2679.29 546.393)">
          <g transform="matrix(1, 0, 0, 1, -1141.74, -563.12)" filter="url(#Rectangle_638-2)">
            <rect id="Rectangle_638-5" data-name="Rectangle 638" width="100" height="56" rx="3" transform="translate(1141.74 563.12)" fill="url(#linear-gradient)"/>
          </g>
          <text id="Scan_Here-2" data-name="Scan
Here" transform="translate(45.349 26.412)" fill="#fff" font-size="16" font-family="SegoeUI-Bold, Segoe UI" font-weight="700"><tspan x="0" y="0">SCAN</tspan><tspan x="0" y="16">HERE</tspan></text>
          <g id="Group_875-2" data-name="Group 875" transform="translate(18.949 15.597) rotate(3)">
            <path id="Path_160-2" data-name="Path 160" d="M0,5.252c0,.016,0,.032,0,.048A7.41,7.41,0,0,0,1.4,9.639a4.838,4.838,0,0,0,.326.422,1.342,1.342,0,0,0,2-1.79s-.016-.018-.04-.048L3.7,8.217l.01.01a1.4,1.4,0,0,1-.126-.153,5.039,5.039,0,0,1-.9-2.822,5.037,5.037,0,0,1,.894-2.816,1.631,1.631,0,0,1,.127-.156l-.01.01L3.69,2.286c.024-.031.04-.049.04-.049a1.342,1.342,0,0,0-2-1.789A4.849,4.849,0,0,0,1.4.872,7.409,7.409,0,0,0,0,5.207Z" transform="translate(16.048 7.468)" fill="#fff"/>
            <path id="Path_161-2" data-name="Path 161" d="M3.1,0A1.317,1.317,0,0,1,4.148,2.117,9.8,9.8,0,0,0,2.635,7.554a10.787,10.787,0,0,0,1.541,5.655,1.317,1.317,0,0,1-2.149,1.524A13.2,13.2,0,0,1,0,7.554,12.229,12.229,0,0,1,2.054.518,1.315,1.315,0,0,1,3.1,0Z" transform="translate(10.971 5.124)" fill="#fff"/>
            <path id="Path_162-2" data-name="Path 162" d="M3.757,0A1.318,1.318,0,0,1,4.811,2.106a14.4,14.4,0,0,0-2.176,7.927,15.568,15.568,0,0,0,2.2,8.215,1.318,1.318,0,1,1-2.165,1.5A18.132,18.132,0,0,1,0,10.033,16.735,16.735,0,0,1,2.7.529,1.315,1.315,0,0,1,3.757,0Z" transform="translate(5.483 2.61)" fill="#fff"/>
            <path id="Path_163-2" data-name="Path 163" d="M4.476,0A1.318,1.318,0,0,1,5.531,2.106a19.019,19.019,0,0,0-2.9,10.5A20.8,20.8,0,0,0,5.56,23.47a1.317,1.317,0,0,1-2.167,1.5A23.053,23.053,0,0,1,0,12.606,21.249,21.249,0,0,1,3.42.529,1.314,1.314,0,0,1,4.476,0Z" transform="translate(0)" fill="#fff"/>
          </g>
          <g id="Rectangle_639-2" data-name="Rectangle 639" transform="translate(1 1)" fill="none" stroke="#707070" stroke-width="1.5">
            <rect width="98.5" height="54" rx="3" stroke="none"/>
            <rect x="0.75" y="0.75" width="97" height="52.5" rx="2.25" fill="none"/>
          </g>
          <g id="Rectangle_640-2" data-name="Rectangle 640" transform="translate(5.5 5.5)" fill="none" stroke="#fff" stroke-width="0.5" stroke-dasharray="2 2">
            <rect width="89" height="45" rx="3" stroke="none"/>
            <rect x="0.25" y="0.25" width="88.5" height="44.5" rx="2.75" fill="none"/>
          </g>
        </g>
      </g>
      <rect id="Rectangle_617" data-name="Rectangle 617" width="278" height="12" transform="translate(2902.383 382)" fill="#c5ffe6"/>
      <rect id="Rectangle_1408" data-name="Rectangle 1408" width="278" height="12" transform="translate(3244.383 382)" fill="#c5ffe6"/>
      <rect id="Rectangle_1409" data-name="Rectangle 1409" width="278" height="12" transform="translate(3583.383 382)" fill="#c5ffe6"/>
      <text id="BROCHURES" transform="translate(2917.585 336.5)" fill="#595454" font-size="24" font-family="SegoeUI, Segoe UI" letter-spacing="0.02em"><tspan x="0" y="26">BROCHURES</tspan></text>
      <g id="Group_1228" data-name="Group 1228" transform="translate(312.097 0.607)">
        <g id="Group_193-3" data-name="Group 193" transform="translate(2589.634 442.31)">
          <path id="Path_3483-3" data-name="Path 3483" d="M0,0H279.311V526.307H0Z" fill="#a69f9f"/>
          <rect id="Rectangle_181-3" data-name="Rectangle 181" width="232.288" height="486.115" transform="translate(24.139 23.792)" fill="#fff" stroke="#595454" stroke-width="1"/>
          <rect id="Rectangle_183-3" data-name="Rectangle 183" width="10.71" height="161.774" transform="translate(6.14 185.963)" fill="#fff" stroke="#9f9089" stroke-linecap="round" stroke-linejoin="round" stroke-width="1.403"/>
          <path id="Path_3486-2" data-name="Path 3486" d="M70.567,369.352,208.763,237.8" fill="none" stroke="#707070" stroke-width="1"/>
          <path id="Path_3487-3" data-name="Path 3487" d="M70.567,369.352,208.763,237.8" transform="translate(-7 37)" fill="none" stroke="#707070" stroke-width="1"/>
        </g>
        <g id="Component_3_60" data-name="Component 3 – 60" transform="translate(2679.29 546.393)">
          <g transform="matrix(1, 0, 0, 1, -460.09, -563.12)" filter="url(#Rectangle_638-3)">
            <rect id="Rectangle_638-6" data-name="Rectangle 638" width="100" height="56" rx="3" transform="translate(460.09 563.12)" fill="url(#linear-gradient)"/>
          </g>
          <text id="Scan_Here-3" data-name="Scan
Here" transform="translate(45.349 26.412)" fill="#fff" font-size="16" font-family="SegoeUI-Bold, Segoe UI" font-weight="700"><tspan x="0" y="0">SCAN</tspan><tspan x="0" y="16">HERE</tspan></text>
          <g id="Group_875-3" data-name="Group 875" transform="translate(18.949 15.597) rotate(3)">
            <path id="Path_160-3" data-name="Path 160" d="M0,5.252c0,.016,0,.032,0,.048A7.41,7.41,0,0,0,1.4,9.639a4.838,4.838,0,0,0,.326.422,1.342,1.342,0,0,0,2-1.79s-.016-.018-.04-.048L3.7,8.217l.01.01a1.4,1.4,0,0,1-.126-.153,5.039,5.039,0,0,1-.9-2.822,5.037,5.037,0,0,1,.894-2.816,1.631,1.631,0,0,1,.127-.156l-.01.01L3.69,2.286c.024-.031.04-.049.04-.049a1.342,1.342,0,0,0-2-1.789A4.849,4.849,0,0,0,1.4.872,7.409,7.409,0,0,0,0,5.207Z" transform="translate(16.048 7.468)" fill="#fff"/>
            <path id="Path_161-3" data-name="Path 161" d="M3.1,0A1.317,1.317,0,0,1,4.148,2.117,9.8,9.8,0,0,0,2.635,7.554a10.787,10.787,0,0,0,1.541,5.655,1.317,1.317,0,0,1-2.149,1.524A13.2,13.2,0,0,1,0,7.554,12.229,12.229,0,0,1,2.054.518,1.315,1.315,0,0,1,3.1,0Z" transform="translate(10.971 5.124)" fill="#fff"/>
            <path id="Path_162-3" data-name="Path 162" d="M3.757,0A1.318,1.318,0,0,1,4.811,2.106a14.4,14.4,0,0,0-2.176,7.927,15.568,15.568,0,0,0,2.2,8.215,1.318,1.318,0,1,1-2.165,1.5A18.132,18.132,0,0,1,0,10.033,16.735,16.735,0,0,1,2.7.529,1.315,1.315,0,0,1,3.757,0Z" transform="translate(5.483 2.61)" fill="#fff"/>
            <path id="Path_163-3" data-name="Path 163" d="M4.476,0A1.318,1.318,0,0,1,5.531,2.106a19.019,19.019,0,0,0-2.9,10.5A20.8,20.8,0,0,0,5.56,23.47a1.317,1.317,0,0,1-2.167,1.5A23.053,23.053,0,0,1,0,12.606,21.249,21.249,0,0,1,3.42.529,1.314,1.314,0,0,1,4.476,0Z" transform="translate(0)" fill="#fff"/>
          </g>
          <g id="Rectangle_639-3" data-name="Rectangle 639" transform="translate(1 1)" fill="none" stroke="#707070" stroke-width="1.5">
            <rect width="98.5" height="54" rx="3" stroke="none"/>
            <rect x="0.75" y="0.75" width="97" height="52.5" rx="2.25" fill="none"/>
          </g>
          <g id="Rectangle_640-3" data-name="Rectangle 640" transform="translate(5.5 5.5)" fill="none" stroke="#fff" stroke-width="0.5" stroke-dasharray="2 2">
            <rect width="89" height="45" rx="3" stroke="none"/>
            <rect x="0.25" y="0.25" width="88.5" height="44.5" rx="2.75" fill="none"/>
          </g>
        </g>
      </g>
    </g>
  </g>
</svg>
