<svg xmlns="http://www.w3.org/2000/svg" width="1949.04" height="1104.015" viewBox="0 0 1949.04 1104.015">
  <g id="assets" transform="translate(29.04 9.368)">
    <g id="Assets-2" data-name="Assets" transform="translate(-163.638 -93.777)">
      <rect id="white_bg" data-name="white bg" width="1920" height="129" transform="translate(163.638 1044.777)" fill="#fff"/>
      <rect id="Rectangle_1296" data-name="Rectangle 1296" width="507.031" height="466.177" transform="translate(134.598 289.131)" fill="#fff"/>
      <rect id="Rectangle_1297" data-name="Rectangle 1297" width="5.591" height="466.257" transform="translate(157.456 289.131)" fill="#ede7e7"/>
      <rect id="Rectangle_1298" data-name="Rectangle 1298" width="5.591" height="466.257" transform="translate(210.873 289.131)" fill="#ede7e7"/>
      <rect id="Rectangle_1299" data-name="Rectangle 1299" width="5.591" height="466.257" transform="translate(264.29 289.131)" fill="#ede7e7"/>
      <rect id="Rectangle_1300" data-name="Rectangle 1300" width="5.591" height="466.257" transform="translate(317.707 289.131)" fill="#ede7e7"/>
      <rect id="Rectangle_1301" data-name="Rectangle 1301" width="5.591" height="466.257" transform="translate(371.125 289.131)" fill="#ede7e7"/>
      <rect id="Rectangle_1302" data-name="Rectangle 1302" width="5.591" height="466.257" transform="translate(424.542 289.131)" fill="#ede7e7"/>
      <rect id="Rectangle_1303" data-name="Rectangle 1303" width="5.591" height="466.257" transform="translate(477.959 289.131)" fill="#ede7e7"/>
      <rect id="Rectangle_1304" data-name="Rectangle 1304" width="5.591" height="466.257" transform="translate(531.376 289.131)" fill="#ede7e7"/>
      <rect id="Rectangle_1305" data-name="Rectangle 1305" width="5.591" height="466.257" transform="translate(584.793 289.131)" fill="#ede7e7"/>
      <rect id="Rectangle_1306" data-name="Rectangle 1306" width="507.031" height="5.499" transform="translate(134.598 402.946)" fill="#ede7e7"/>
      <rect id="Rectangle_1307" data-name="Rectangle 1307" width="507.031" height="5.499" transform="translate(134.598 519.51)" fill="#ede7e7"/>
      <rect id="Rectangle_1308" data-name="Rectangle 1308" width="507.031" height="5.498" transform="translate(134.598 636.075)" fill="#ede7e7"/>
      <rect id="Rectangle_1309" data-name="Rectangle 1309" width="641.628" height="466.177" transform="translate(802.828 289.183)" fill="#fff"/>
      <rect id="Rectangle_1310" data-name="Rectangle 1310" width="5.591" height="466.257" transform="translate(853.45 289.184)" fill="#ede7e7"/>
      <rect id="Rectangle_1311" data-name="Rectangle 1311" width="5.591" height="466.257" transform="translate(906.867 289.184)" fill="#ede7e7"/>
      <rect id="Rectangle_1312" data-name="Rectangle 1312" width="5.591" height="466.257" transform="translate(960.284 289.184)" fill="#ede7e7"/>
      <rect id="Rectangle_1313" data-name="Rectangle 1313" width="5.591" height="466.257" transform="translate(1013.701 289.184)" fill="#ede7e7"/>
      <rect id="Rectangle_1314" data-name="Rectangle 1314" width="5.591" height="466.257" transform="translate(1067.118 289.184)" fill="#ede7e7"/>
      <rect id="Rectangle_1315" data-name="Rectangle 1315" width="5.591" height="466.257" transform="translate(1120.536 289.184)" fill="#ede7e7"/>
      <rect id="Rectangle_1316" data-name="Rectangle 1316" width="5.591" height="466.257" transform="translate(1173.953 289.184)" fill="#ede7e7"/>
      <rect id="Rectangle_1317" data-name="Rectangle 1317" width="5.591" height="466.257" transform="translate(1227.37 289.184)" fill="#ede7e7"/>
      <rect id="Rectangle_1318" data-name="Rectangle 1318" width="5.591" height="466.257" transform="translate(1280.787 289.184)" fill="#ede7e7"/>
      <rect id="Rectangle_1319" data-name="Rectangle 1319" width="5.591" height="466.257" transform="translate(1334.204 289.184)" fill="#ede7e7"/>
      <rect id="Rectangle_1320" data-name="Rectangle 1320" width="5.591" height="466.257" transform="translate(1387.621 289.184)" fill="#ede7e7"/>
      <rect id="Rectangle_1321" data-name="Rectangle 1321" width="641.629" height="5.499" transform="translate(802.828 402.998)" fill="#ede7e7"/>
      <rect id="Rectangle_1322" data-name="Rectangle 1322" width="641.629" height="5.499" transform="translate(802.828 519.562)" fill="#ede7e7"/>
      <rect id="Rectangle_1323" data-name="Rectangle 1323" width="641.629" height="5.499" transform="translate(802.828 636.127)" fill="#ede7e7"/>
      <rect id="Rectangle_1324" data-name="Rectangle 1324" width="203.025" height="466.177" transform="translate(1605.646 289.131)" fill="#fff"/>
      <rect id="Rectangle_1325" data-name="Rectangle 1325" width="5.591" height="466.257" transform="translate(1656.268 289.131)" fill="#ede7e7"/>
      <rect id="Rectangle_1326" data-name="Rectangle 1326" width="5.591" height="466.257" transform="translate(1709.685 289.131)" fill="#ede7e7"/>
      <rect id="Rectangle_1327" data-name="Rectangle 1327" width="5.591" height="466.257" transform="translate(1763.102 289.131)" fill="#ede7e7"/>
      <rect id="Rectangle_1328" data-name="Rectangle 1328" width="203.025" height="5.499" transform="translate(1605.646 402.946)" fill="#ede7e7"/>
      <rect id="Rectangle_1329" data-name="Rectangle 1329" width="203.025" height="5.499" transform="translate(1605.646 519.51)" fill="#ede7e7"/>
      <rect id="Rectangle_1330" data-name="Rectangle 1330" width="203.025" height="5.498" transform="translate(1605.646 636.075)" fill="#ede7e7"/>
      <path id="Path_4280" data-name="Path 4280" d="M679.414,511.085h91.909V353.855H679.414Zm5.5-151.732h80.911V505.586H684.913Z" fill="#ede7e7"/>
      <rect id="Rectangle_1331" data-name="Rectangle 1331" width="61.273" height="124.293" transform="translate(695.649 370.323)" fill="#ede7e7"/>
      <path id="Path_4281" data-name="Path 4281" d="M1481.152,508.726h91.909V351.5h-91.909Zm5.5-151.731h80.911V503.228h-80.911Z" fill="#ede7e7"/>
      <rect id="Rectangle_1332" data-name="Rectangle 1332" width="65.009" height="3.928" transform="translate(1495.204 369.643)" fill="#ede7e7"/>
      <rect id="Rectangle_1333" data-name="Rectangle 1333" width="65.009" height="3.928" transform="translate(1495.204 383.783)" fill="#ede7e7"/>
      <rect id="Rectangle_1334" data-name="Rectangle 1334" width="65.009" height="3.928" transform="translate(1495.204 397.923)" fill="#ede7e7"/>
      <rect id="Rectangle_1335" data-name="Rectangle 1335" width="65.009" height="3.928" transform="translate(1495.204 412.063)" fill="#ede7e7"/>
      <rect id="Rectangle_1336" data-name="Rectangle 1336" width="65.009" height="3.928" transform="translate(1495.204 426.202)" fill="#ede7e7"/>
      <rect id="Rectangle_1337" data-name="Rectangle 1337" width="65.009" height="3.928" transform="translate(1495.204 440.342)" fill="#ede7e7"/>
      <rect id="Rectangle_1338" data-name="Rectangle 1338" width="65.009" height="3.928" transform="translate(1495.204 454.482)" fill="#ede7e7"/>
      <rect id="Rectangle_1339" data-name="Rectangle 1339" width="65.009" height="3.928" transform="translate(1495.204 468.622)" fill="#ede7e7"/>
      <rect id="Rectangle_1340" data-name="Rectangle 1340" width="65.009" height="3.928" transform="translate(1495.204 482.762)" fill="#ede7e7"/>
      <rect id="Rectangle_1341" data-name="Rectangle 1341" width="5.499" height="153.809" transform="translate(638.879 93.233)" fill="#d5d1ca"/>
      <rect id="Rectangle_1342" data-name="Rectangle 1342" width="5.499" height="257.011" transform="translate(1269.865 84.409)" fill="#a59f9f"/>
      <path id="Path_4282" data-name="Path 4282" d="M1209.345,388.045H1336.8l-64.2-52.234Zm111.983-5.5H1224.64l47.987-39.625Z" fill="#a59f9f"/>
      <path id="Path_5282" data-name="Path 5282" d="M1209.345,388.045H1336.8l-64.2-52.234Zm111.983-5.5H1224.64l47.987-39.625Z" transform="translate(-631.443 -96.018)" fill="#d5d1ca"/>
      <rect id="Rectangle_1343" data-name="Rectangle 1343" width="5.499" height="258.893" transform="translate(302.374 93.233)" fill="#a59f9f"/>
      <path id="Path_4283" data-name="Path 4283" d="M249.5,368.492H361.573l-56.449-45.93Z" fill="#a59f9f"/>
      <rect id="Rectangle_1344" data-name="Rectangle 1344" width="5.499" height="345.355" transform="translate(1056.951 93.233)" fill="#a59f9f"/>
      <path id="Path_4284" data-name="Path 4284" d="M1004.079,454.954H1116.15l-56.449-45.93Z" fill="#a59f9f"/>
      <rect id="Rectangle_1345" data-name="Rectangle 1345" width="5.499" height="266.438" transform="translate(1683.326 84.409)" fill="#a59f9f"/>
      <path id="Path_4285" data-name="Path 4285" d="M1630.453,367.213h112.071l-56.449-45.93Z" fill="#a59f9f"/>
      <path id="Path_4286" data-name="Path 4286" d="M1682.144,1050.157H390.175V983.051H1682.144Zm-1289.36-2.609h1286.75V985.661H392.784Z" fill="#a59f9f"/>
      <path id="Path_4287" data-name="Path 4287" d="M1724.353,985.66H347.966V966.405H1724.353ZM350.576,983.051H1721.744V969.015H350.576Z" fill="#a59f9f"/>
      <path id="Path_4288" data-name="Path 4288" d="M525.065,1188.424H497.489V1047.547h27.576Zm-24.967-.891h22.357V1048.438H500.1Z" fill="#a59f9f"/>
      <path id="Path_4289" data-name="Path 4289" d="M1575.945,1176.544h-28.691v-129h28.691Zm-25.976-.816h23.261V1048.363h-23.261Z" transform="translate(-1.114)" fill="#a59f9f"/>
      <path id="Path_4290" data-name="Path 4290" d="M1547.444,1177.849H1291.006v-130.3h256.438Zm-253.828-1h251.219V1048.551H1293.616Z" fill="#a59f9f"/>
      <rect id="Rectangle_1346" data-name="Rectangle 1346" width="253.828" height="2.609" transform="translate(1292.312 1112.045)" fill="#a59f9f"/>
      <rect id="Rectangle_1347" data-name="Rectangle 1347" width="253.828" height="2.609" transform="translate(1292.312 1176.544)" fill="#a59f9f"/>
      <rect id="Rectangle_1348" data-name="Rectangle 1348" width="34.471" height="2.609" transform="translate(1401.989 1145.335)" fill="#a59f9f"/>
      <rect id="Rectangle_1349" data-name="Rectangle 1349" width="34.471" height="2.609" transform="translate(1401.989 1079.796)" fill="#a59f9f"/>
      <rect id="Rectangle_1350" data-name="Rectangle 1350" width="548.781" height="299.124" transform="translate(798.393 588.596)" fill="#fff"/>
      <rect id="Rectangle_1351" data-name="Rectangle 1351" width="548.781" height="299.124" transform="translate(798.393 588.596)" fill="none" stroke="#595454" stroke-linecap="round" stroke-linejoin="round" stroke-width="2.763"/>
      <path id="Path_4291" data-name="Path 4291" d="M1083.288,953.757l21.831-66.038h-64.287L1014.26,968.1h117.646V953.757Z" fill="#a59f9f"/>
      <path id="Path_4292" data-name="Path 4292" d="M1083.288,953.757l21.831-66.038h-64.287L1014.26,968.1h117.646V953.757Z" fill="none" stroke="#595454" stroke-linecap="round" stroke-linejoin="round" stroke-width="2.763"/>
      <rect id="Rectangle_1352" data-name="Rectangle 1352" width="548.781" height="25.705" transform="translate(798.393 862.015)" fill="#ede7e7"/>
      <rect id="Rectangle_1353" data-name="Rectangle 1353" width="548.781" height="25.705" transform="translate(798.393 862.015)" fill="none" stroke="#5c5353" stroke-linecap="round" stroke-linejoin="round" stroke-width="2.763"/>
      <line id="Line_437" data-name="Line 437" y1="121.151" x2="127.27" transform="translate(1093.267 644.839)" fill="none" stroke="#707071" stroke-width="0.921"/>
      <line id="Line_438" data-name="Line 438" y1="51.045" x2="54.448" transform="translate(934.013 689.964)" fill="none" stroke="#707071" stroke-width="0.921"/>
      <line id="Line_439" data-name="Line 439" y1="121.151" x2="127.27" transform="translate(1086.82 678.913)" fill="none" stroke="#707071" stroke-width="0.921"/>
    </g>
    <g id="Group_1196" data-name="Group 1196" transform="translate(-150.638 84.223)">
      <g id="Group_1569" data-name="Group 1569" transform="translate(-13.779 -183)">
        <path id="Path_4298" data-name="Path 4298" d="M778.665,878.035V869.77a6.417,6.417,0,0,0-6.417-6.417H721.919a6.417,6.417,0,0,0-6.417,6.417v14.646l10.059,89.54h43.046l10.058-89.54Z" fill="#fff"/>
        <path id="Path_4299" data-name="Path 4299" d="M778.665,878.035V869.77a6.417,6.417,0,0,0-6.417-6.417H721.919a6.417,6.417,0,0,0-6.417,6.417v14.646l10.059,89.54h43.046l10.058-89.54Z" fill="none" stroke="#595454" stroke-linecap="round" stroke-linejoin="round" stroke-width="1.462"/>
        <path id="Path_4300" data-name="Path 4300" d="M771.316,949.838H722.855l-5.7-50.821H777Z" fill="#007B98"/>
        <path id="Path_4301" data-name="Path 4301" d="M771.316,949.838H722.855l-5.7-50.821H777Z" fill="none" stroke="#595454" stroke-linecap="round" stroke-linejoin="round" stroke-width="1.462"/>
        <rect id="Rectangle_1356" data-name="Rectangle 1356" width="74.567" height="6.381" transform="translate(709.8 878.035)" fill="#fff"/>
        <rect id="Rectangle_1357" data-name="Rectangle 1357" width="74.567" height="6.381" transform="translate(709.8 878.035)" fill="none" stroke="#595454" stroke-linecap="round" stroke-linejoin="round" stroke-width="1.462"/>
        <path id="Path_4306" data-name="Path 4306" d="M233.794,940.48l-14.823,238.49H350.532L368.7,1044.241v135.067h124.9V949.42A127.589,127.589,0,0,0,366.005,821.831h-6.321A126.111,126.111,0,0,0,233.794,940.48" fill="#595454"/>
        <path id="Path_4308" data-name="Path 4308" d="M452.14,636.067l4.143,15.684a187.592,187.592,0,0,1,5.652,62.5l-6.9,147.023-190.462.93-16.85-145.331s-12.043-54.823,40.074-61.505" fill="#fbecce"/>
        <path id="Path_4309" data-name="Path 4309" d="M247.718,716.874l16.85,145.331H454.861l7.074-147.954a187.594,187.594,0,0,0-5.652-62.5l-4.143-15.683" fill="none" stroke="#595454" stroke-linecap="round" stroke-linejoin="round" stroke-width="1.593"/>
        <path id="Path_4310" data-name="Path 4310" d="M712.63,971.069l-33.971-13.006c-10.47-4.01-22.326-15.185-26.6-25.548L608.232,951.4c9.355,14.565,22.35,23.672,42.709,23.672l60.78.751a2.457,2.457,0,0,0,.909-4.752" fill="#ede7e7"/>
        <path id="Path_4311" data-name="Path 4311" d="M712.63,971.069l-33.971-13.006c-10.47-4.01-22.326-15.185-26.6-25.548L608.232,951.4c9.355,14.565,22.35,23.672,42.709,23.672l60.78.751A2.457,2.457,0,0,0,712.63,971.069Z" fill="none" stroke="#595454" stroke-linecap="round" stroke-linejoin="round" stroke-width="1.593"/>
        <path id="Path_4312" data-name="Path 4312" d="M662.145,962.734l31.384,6.934a6.133,6.133,0,0,1,4.81,5.988" fill="none" stroke="#595454" stroke-linecap="round" stroke-linejoin="round" stroke-width="1.593"/>
        <rect id="Rectangle_1358" data-name="Rectangle 1358" width="182.914" height="138.678" transform="matrix(0.324, -0.946, 0.946, 0.324, 254.019, 899.597)" fill="#007B98"/>
        <path id="Path_4313" data-name="Path 4313" d="M333.92,880.315l43.165,12.624a22.757,22.757,0,0,0,12.369.116L404.344,889a21.7,21.7,0,0,0,14.64-13.38l4.957-13.337a3.194,3.194,0,0,0-3.3-4.291l-14.6,1.394a78.761,78.761,0,0,1-12.693.184l-13.433-.891,14.875-12.857a4.863,4.863,0,0,0-5.317-8.046c-10.441,5.11-39.062,19.162-39.062,19.162l-14.437-4.161Z" fill="#ede7e7"/>
        <path id="Path_4314" data-name="Path 4314" d="M333.92,880.315l43.165,12.624a22.757,22.757,0,0,0,12.369.116L404.344,889a21.7,21.7,0,0,0,14.64-13.38l4.957-13.337a3.194,3.194,0,0,0-3.3-4.291l-14.6,1.394a78.761,78.761,0,0,1-12.693.184l-13.433-.891,14.875-12.857a4.863,4.863,0,0,0-5.317-8.046c-10.441,5.11-39.062,19.162-39.062,19.162l-14.437-4.161Z" fill="none" stroke="#595454" stroke-linecap="round" stroke-miterlimit="10" stroke-width="1.593"/>
        <path id="Path_4315" data-name="Path 4315" d="M393.467,867.683a270.547,270.547,0,0,0,29.252-2.117" fill="none" stroke="#595454" stroke-linecap="round" stroke-linejoin="round" stroke-width="1.593"/>
        <path id="Path_4316" data-name="Path 4316" d="M393.467,875.549c9.219,0,22.949-1.468,26.634-2.937" fill="none" stroke="#595454" stroke-linecap="round" stroke-linejoin="round" stroke-width="1.593"/>
        <path id="Path_4317" data-name="Path 4317" d="M393.467,883.416c9.219,0,18.579-1.459,22.949-2.918" fill="none" stroke="#595454" stroke-linecap="round" stroke-linejoin="round" stroke-width="1.593"/>
        <path id="Path_4318" data-name="Path 4318" d="M461.1,724.9,608.157,951.609l43.826-19.283L530.3,625.9a84.554,84.554,0,0,0-78.585-53.347H268.055A77.012,77.012,0,0,0,194.1,628.085L149.681,781.04a56.684,56.684,0,0,0,39.074,70.371l152.3,42.879,16.809-41.049-139.3-55.916,45.884-126.637" fill="#fbecce"/>
        <path id="Path_4319" data-name="Path 4319" d="M461.1,724.9,608.157,951.609l43.826-19.283L530.3,625.9a84.554,84.554,0,0,0-78.585-53.347H268.055A77.012,77.012,0,0,0,194.1,628.085L149.681,781.04a56.684,56.684,0,0,0,39.074,70.371l152.3,42.879,16.809-41.049-139.3-55.916,45.884-126.637" fill="none" stroke="#595454" stroke-linecap="round" stroke-linejoin="round" stroke-width="1.593"/>
        <path id="Path_4320" data-name="Path 4320" d="M388.112,572.52V539.04h-59.47v33.48H298.637v19.973a32.156,32.156,0,0,0,32.156,32.156h62.148A32.156,32.156,0,0,0,425.1,592.493V572.52Z" fill="#ede7e7"/>
        <path id="Path_4321" data-name="Path 4321" d="M388.112,572.52V539.04h-59.47v33.48H298.637v19.973a32.156,32.156,0,0,0,32.156,32.156h62.148A32.156,32.156,0,0,0,425.1,592.493V572.52Z" fill="none" stroke="#595454" stroke-linecap="round" stroke-miterlimit="10" stroke-width="1.593"/>
        <path id="Path_4322" data-name="Path 4322" d="M460.825,728.466l1.109-14.215a187.567,187.567,0,0,0-5.651-62.5l-4.143-15.683" fill="none" stroke="#595454" stroke-linecap="round" stroke-linejoin="round" stroke-width="1.593"/>
        <path id="Path_4323" data-name="Path 4323" d="M298,475.714a16.225,16.225,0,0,1,11.591,5.034V463.357a53.475,53.475,0,0,1,53.475-53.475h.149a53.476,53.476,0,0,1,53.475,53.475v40.312a53.55,53.55,0,0,1-30.173,48.187,48.911,48.911,0,0,1-22.547,5.363c-23.707,0-36.923-14.011-36.923-14.011a53.433,53.433,0,0,1-17.087-33.338A16.311,16.311,0,0,1,298,515.283c-9.634,0-17.444-8.858-17.444-19.785s7.81-19.784,17.444-19.784" fill="#ede7e7"/>
        <path id="Path_4324" data-name="Path 4324" d="M357.671,389.819h1.449a81.306,81.306,0,0,1,81.306,81.3h0a40.715,40.715,0,0,1-23.96,37.365c.142-1.589.227-3.195.227-4.821V463.358a53.963,53.963,0,0,0-.562-7.718H370.345l-19.473-37.789-.6,37.789H310.156a53.813,53.813,0,0,0-.562,7.718v17.39A16.229,16.229,0,0,0,298,475.714c-8.1,0-14.888,6.268-16.853,14.753a40.869,40.869,0,0,1-4.784-19.342h0a81.305,81.305,0,0,1,81.3-81.3" fill="#a59f9f"/>
        <path id="Path_4325" data-name="Path 4325" d="M391.025,482.43a3.785,3.785,0,1,1-3.785,3.784,3.784,3.784,0,0,1,3.785-3.784m-47.711,3.784a3.784,3.784,0,1,0,3.784-3.784,3.784,3.784,0,0,0-3.784,3.784" fill="#595454"/>
        <path id="Path_4326" data-name="Path 4326" d="M362.5,512.069s1.914,9.589,15.685,8.53" fill="none" stroke="#595454" stroke-linecap="round" stroke-linejoin="round" stroke-width="1.593"/>
        <path id="Path_4327" data-name="Path 4327" d="M371.418,481.837s4.482,5.832,9.068,10.575a9.037,9.037,0,0,1-.291,12.96l-.038.035" fill="none" stroke="#595454" stroke-linecap="round" stroke-linejoin="round" stroke-width="1.593"/>
        <path id="Path_4328" data-name="Path 4328" d="M352.98,462.69s-11.878,0-17.468,7.686" fill="none" stroke="#595454" stroke-linecap="round" stroke-linejoin="round" stroke-width="1.593"/>
        <path id="Path_4329" data-name="Path 4329" d="M399.218,469.276s-8.308-8.489-17.711-7.109" fill="none" stroke="#595454" stroke-linecap="round" stroke-linejoin="round" stroke-width="1.593"/>
        <path id="Path_4330" data-name="Path 4330" d="M313.621,504.271c-2.853,6.52-8.766,11.012-15.618,11.012-9.635,0-17.445-8.858-17.445-19.784s7.81-19.784,17.445-19.784c6.852,0,12.765,4.492,15.618,11.012" fill="none" stroke="#595454" stroke-linecap="round" stroke-linejoin="round" stroke-width="1.593"/>
        <path id="Path_4331" data-name="Path 4331" d="M309.594,480.729V463.358a53.976,53.976,0,0,1,.553-7.719" fill="none" stroke="#595454" stroke-linecap="round" stroke-linejoin="round" stroke-width="1.593"/>
        <path id="Path_4332" data-name="Path 4332" d="M416.14,455.639a53.981,53.981,0,0,1,.553,7.719V503.67a53.549,53.549,0,0,1-53.549,53.549h0a53.557,53.557,0,0,1-53.192-47.336" fill="none" stroke="#595454" stroke-linecap="round" stroke-linejoin="round" stroke-width="1.593"/>
        <path id="Path_4333" data-name="Path 4333" d="M337.6,533.747c-.534,3.544,4.932,7.1,12.209,7.944s13.609-1.346,14.143-4.89-4.932-7.1-12.209-7.943-13.609,1.345-14.143,4.889" fill="#b43e97"/>
        <path id="Path_4334" data-name="Path 4334" d="M342.915,532.582s-23.953-8.469-40.5-36.021c-4.079-6.793-5,5.3-5,5.3s7.371,23.028,42.685,36.391Z" fill="#b43e97"/>
        <path id="Path_4335" data-name="Path 4335" d="M298.144,480.792a2.857,2.857,0,0,0,2.962-2.574l1.628-32.523c.981-19.578,18.64-34.914,40.2-34.914h34.709c22.191,0,40.244,16.408,40.244,36.576a2.981,2.981,0,0,0,5.935,0c0-23.142-20.716-41.97-46.179-41.97H342.937c-24.743,0-45.006,17.6-46.131,40.062l-1.629,32.523a2.813,2.813,0,0,0,2.83,2.817l.137,0" fill="#b43e97"/>
        <path id="Path_4336" data-name="Path 4336" d="M298.513,513.777h0c5.556,0,10.1-4.131,10.1-9.181V476.86c0-5.049-4.546-9.181-10.1-9.181s-10.1,4.132-10.1,9.181V504.6c0,5.05,4.546,9.181,10.1,9.181" fill="#b43e97"/>
        <path id="Path_4337" data-name="Path 4337" d="M298.513,513.777h0c5.556,0,10.1-4.131,10.1-9.181V476.86c0-5.049-4.546-9.181-10.1-9.181s-10.1,4.132-10.1,9.181V504.6C288.411,509.646,292.957,513.777,298.513,513.777Z" fill="none" stroke="#fff" stroke-miterlimit="10" stroke-width="0.835"/>
        <path id="Path_4338" data-name="Path 4338" d="M288.973,502.559h0a1.862,1.862,0,0,0,1.939-1.763l0-16.137a1.948,1.948,0,0,0-3.879,0l0,16.138a1.862,1.862,0,0,0,1.939,1.763" fill="#ede7e7"/>
        <path id="Path_4339" data-name="Path 4339" d="M288.973,502.559h0a1.862,1.862,0,0,0,1.939-1.763l0-16.137a1.948,1.948,0,0,0-3.879,0l0,16.138A1.862,1.862,0,0,0,288.973,502.559Z" fill="none" stroke="#595454" stroke-miterlimit="10" stroke-width="0.835"/>
        <path id="Path_4340" data-name="Path 4340" d="M1465.728,734.626c4.448-5.469,7.306-13.872,7.306-23.315,0-16.483-8.686-29.846-19.4-29.846s-19.4,13.363-19.4,29.846c0,9.443,2.858,17.846,7.307,23.315-4.449,5.469-7.307,13.872-7.307,23.315a39.536,39.536,0,0,0,5.307,20.469,39.543,39.543,0,0,0-5.307,20.47,40.282,40.282,0,0,0,4.643,19.345,40.282,40.282,0,0,0-4.643,19.345c0,16.483,8.686,29.846,19.4,29.846s19.4-13.363,19.4-29.846a40.28,40.28,0,0,0-4.642-19.345,40.28,40.28,0,0,0,4.642-19.345,39.543,39.543,0,0,0-5.307-20.47,39.536,39.536,0,0,0,5.307-20.469c0-9.443-2.858-17.846-7.306-23.315" fill="#ede7e7"/>
        <path id="Path_4341" data-name="Path 4341" d="M1465.728,734.626c4.448-5.469,7.306-13.872,7.306-23.315,0-16.483-8.686-29.846-19.4-29.846s-19.4,13.363-19.4,29.846c0,9.443,2.858,17.846,7.307,23.315-4.449,5.469-7.307,13.872-7.307,23.315a39.536,39.536,0,0,0,5.307,20.469,39.543,39.543,0,0,0-5.307,20.47,40.282,40.282,0,0,0,4.643,19.345,40.282,40.282,0,0,0-4.643,19.345c0,16.483,8.686,29.846,19.4,29.846s19.4-13.363,19.4-29.846a40.28,40.28,0,0,0-4.642-19.345,40.28,40.28,0,0,0,4.642-19.345,39.543,39.543,0,0,0-5.307-20.47,39.536,39.536,0,0,0,5.307-20.469C1473.034,748.5,1470.176,740.095,1465.728,734.626Z" fill="none" stroke="#a84599" stroke-miterlimit="10" stroke-width="1.898"/>
        <line id="Line_440" data-name="Line 440" x2="1.677" y2="173.109" transform="translate(1452.795 696.388)" fill="#ede7e7"/>
        <line id="Line_441" data-name="Line 441" x2="1.677" y2="173.109" transform="translate(1452.795 696.388)" fill="none" stroke="#a84599" stroke-linecap="round" stroke-linejoin="round" stroke-width="1.898"/>
        <path id="Path_4342" data-name="Path 4342" d="M1411.9,744.836c2.491-6.595,2.547-15.47-.437-24.429-5.21-15.638-17.675-25.571-27.84-22.184s-14.182,18.809-8.972,34.448c2.984,8.958,8.352,16.027,14.3,19.81-2.492,6.595-2.547,15.471.437,24.429a39.546,39.546,0,0,0,11.505,17.743,39.537,39.537,0,0,0,1.435,21.1,40.273,40.273,0,0,0,10.519,16.885,40.277,40.277,0,0,0,1.709,19.821c5.21,15.639,17.674,25.571,27.839,22.185s14.182-18.81,8.973-34.448a40.286,40.286,0,0,0-10.519-16.886,40.276,40.276,0,0,0-1.71-19.821,39.531,39.531,0,0,0-11.505-17.743,39.546,39.546,0,0,0-1.434-21.1c-2.985-8.958-8.352-16.027-14.3-19.81" fill="#a59f9f"/>
        <line id="Line_442" data-name="Line 442" x2="56.305" y2="163.705" transform="translate(1387.547 712.646)" fill="#a59f9f"/>
        <line id="Line_443" data-name="Line 443" x2="56.305" y2="163.705" transform="translate(1387.547 712.646)" fill="none" stroke="#595454" stroke-linecap="round" stroke-linejoin="round" stroke-width="1.898"/>
        <path id="Path_4343" data-name="Path 4343" d="M1484.429,785.623c6-3.708,11.452-10.708,14.549-19.628,5.408-15.572,1.585-31.044-8.536-34.559s-22.71,6.26-28.117,21.832c-3.1,8.919-3.154,17.795-.745,24.421-6,3.707-11.453,10.708-14.551,19.628a39.541,39.541,0,0,0-1.7,21.078,39.541,39.541,0,0,0-11.728,17.6,40.292,40.292,0,0,0-1.96,19.8,40.286,40.286,0,0,0-10.731,16.752c-5.407,15.571-1.585,31.043,8.536,34.558s22.71-6.26,28.117-21.831a40.281,40.281,0,0,0,1.96-19.8,40.272,40.272,0,0,0,10.731-16.751,39.542,39.542,0,0,0,1.7-21.078,39.538,39.538,0,0,0,11.728-17.6c3.1-8.92,3.154-17.8.746-24.421" fill="#fff"/>
        <path id="Path_4344" data-name="Path 4344" d="M1484.429,785.623c6-3.708,11.452-10.708,14.549-19.628,5.408-15.572,1.585-31.044-8.536-34.559s-22.71,6.26-28.117,21.832c-3.1,8.919-3.154,17.795-.745,24.421-6,3.707-11.453,10.708-14.551,19.628a39.541,39.541,0,0,0-1.7,21.078,39.541,39.541,0,0,0-11.728,17.6,40.292,40.292,0,0,0-1.96,19.8,40.286,40.286,0,0,0-10.731,16.752c-5.407,15.571-1.585,31.043,8.536,34.558s22.71-6.26,28.117-21.831a40.281,40.281,0,0,0,1.96-19.8,40.272,40.272,0,0,0,10.731-16.751,39.542,39.542,0,0,0,1.7-21.078,39.538,39.538,0,0,0,11.728-17.6C1486.78,801.124,1486.837,792.248,1484.429,785.623Z" fill="none" stroke="#a84599" stroke-miterlimit="10" stroke-width="1.898"/>
        <line id="Line_444" data-name="Line 444" x1="55.199" y2="164.082" transform="translate(1429.556 745.259)" fill="#ede7e7"/>
        <line id="Line_445" data-name="Line 445" x1="55.199" y2="164.082" transform="translate(1429.556 745.259)" fill="none" stroke="#a84599" stroke-linecap="round" stroke-linejoin="round" stroke-width="1.898"/>
        <path id="Path_4345" data-name="Path 4345" d="M1462.786,910.161h-43.51a24.228,24.228,0,0,1-24.229-24.228V820.739h91.968v65.194a24.229,24.229,0,0,1-24.229,24.228" fill="#fbecce"/>
        <path id="Path_4346" data-name="Path 4346" d="M1462.786,910.161h-43.51a24.228,24.228,0,0,1-24.229-24.228V820.739h91.968v65.194A24.229,24.229,0,0,1,1462.786,910.161Z" fill="none" stroke="#595454" stroke-linecap="round" stroke-linejoin="round" stroke-width="1.898"/>
        <line id="Line_446" data-name="Line 446" x2="91.969" transform="translate(1395.047 840.831)" fill="#fff"/>
        <line id="Line_447" data-name="Line 447" x2="91.969" transform="translate(1395.047 840.831)" fill="none" stroke="#595454" stroke-linecap="round" stroke-linejoin="round" stroke-width="1.898"/>
        <path id="Path_4347" data-name="Path 4347" d="M1492.474,917.424H1389.587a6.06,6.06,0,0,1-6.06-6.06v-5.441h115.007v5.441a6.06,6.06,0,0,1-6.06,6.06" fill="#fbecce"/>
        <path id="Path_4348" data-name="Path 4348" d="M1492.474,917.424H1389.587a6.06,6.06,0,0,1-6.06-6.06v-5.441h115.007v5.441A6.06,6.06,0,0,1,1492.474,917.424Z" fill="none" stroke="#595454" stroke-linecap="round" stroke-linejoin="round" stroke-width="1.898"/>
        <path id="Path_4349" data-name="Path 4349" d="M1503.79,942.069H1353.218a6.493,6.493,0,0,1-6.494-6.493V923.917a6.493,6.493,0,0,1,6.494-6.492H1503.79Z" fill="#ede7e7"/>
        <path id="Path_4350" data-name="Path 4350" d="M1503.79,942.069H1353.218a6.493,6.493,0,0,1-6.494-6.493V923.917a6.493,6.493,0,0,1,6.494-6.492H1503.79Z" fill="none" stroke="#595454" stroke-linecap="round" stroke-linejoin="round" stroke-width="1.898"/>
        <path id="Path_4351" data-name="Path 4351" d="M1533.239,966.713H1382.667a6.493,6.493,0,0,1-6.493-6.493V948.561a6.493,6.493,0,0,1,6.493-6.492h150.572Z" fill="#ede7e7"/>
        <path id="Path_4352" data-name="Path 4352" d="M1533.239,966.713H1382.667a6.493,6.493,0,0,1-6.493-6.493V948.561a6.493,6.493,0,0,1,6.493-6.492h150.572Z" fill="none" stroke="#595454" stroke-linecap="round" stroke-linejoin="round" stroke-width="1.898"/>
        <path id="Path_4353" data-name="Path 4353" d="M1311.223,935a7.929,7.929,0,1,0-7.929,7.929,7.929,7.929,0,0,0,7.929-7.929" fill="#a59f9f"/>
        <path id="Path_4354" data-name="Path 4354" d="M1303.3,913.7a21.3,21.3,0,1,0,21.3,21.3,21.3,21.3,0,0,0-21.3-21.3m0,35.367a14.07,14.07,0,1,1,14.07-14.07,14.07,14.07,0,0,1-14.07,14.07" fill="#ede7e7"/>
        <path id="Path_4355" data-name="Path 4355" d="M1303.3,913.7a21.3,21.3,0,1,0,21.3,21.3A21.3,21.3,0,0,0,1303.3,913.7Zm0,35.367a14.07,14.07,0,1,1,14.07-14.07A14.07,14.07,0,0,1,1303.3,949.07Z" fill="none" stroke="#595454" stroke-linecap="round" stroke-linejoin="round" stroke-width="1"/>
        <path id="Path_4356" data-name="Path 4356" d="M1255.389,931.322h10.954c8.59,0,15.122-3.579,20.972-10.392" fill="none" stroke="#595454" stroke-linecap="round" stroke-linejoin="round" stroke-width="1"/>
        <path id="Path_4357" data-name="Path 4357" d="M1243.565,962.953v2.262a5.682,5.682,0,0,0,5.682,5.682h74.426a5.682,5.682,0,0,0,5.682-5.682v-2.262Z" fill="#a59f9f"/>
        <path id="Path_4358" data-name="Path 4358" d="M1243.565,962.953v2.262a5.682,5.682,0,0,0,5.682,5.682h74.426a5.682,5.682,0,0,0,5.682-5.682v-2.262Z" fill="none" stroke="#a59f9f" stroke-linecap="round" stroke-linejoin="round" stroke-width="1"/>
        <path id="Path_4359" data-name="Path 4359" d="M1325.253,929.115h-16.647a23.4,23.4,0,0,0-9.814,2.157l-36.1,16.674-8.5-18.831h-6.519a4.1,4.1,0,0,0-4.1,4.1v29.735h85.79V933.217a4.1,4.1,0,0,0-4.1-4.1" fill="#fff"/>
        <path id="Path_4360" data-name="Path 4360" d="M1325.253,929.115h-16.647a23.4,23.4,0,0,0-9.814,2.157l-36.1,16.674-8.5-18.831h-6.519a4.1,4.1,0,0,0-4.1,4.1v29.735h85.79V933.217A4.1,4.1,0,0,0,1325.253,929.115Z" fill="none" stroke="#595454" stroke-linecap="round" stroke-linejoin="round" stroke-width="1"/>
        <rect id="Rectangle_1354" data-name="Rectangle 1354" width="94.847" height="14.754" transform="translate(1555.578 962.431)" fill="#007B98" stroke="#595454" stroke-width="1.5"/>
        <path id="Path_4293" data-name="Path 4293" d="M1554.724,959.029,1687.585,698.3l-158.814-107.89" transform="translate(0.779 3.038)" fill="none" stroke="#595454" stroke-miterlimit="10" stroke-width="1.5"/>
        <path id="Path_5283" data-name="Path 5283" d="M1540,668.313l-95.134-54.925,15.877-27.5a30.451,30.451,0,0,1,41.6-11.146l42.392,24.475a30.452,30.452,0,0,1,11.146,41.6Z" transform="translate(0.779 3.038)" fill="#007B98" stroke="#595454" stroke-width="1.5"/>
        <path id="Path_5284" data-name="Path 5284" d="M1693.908,700.406a10.538,10.538,0,1,1-10.538-10.539,10.539,10.539,0,0,1,10.538,10.539" transform="translate(0.779 3.038)" fill="#007B98" stroke="#595454" stroke-width="1.5"/>
      </g>
    </g>
  </g>
</svg>
